G04 Layer_Color=16711935*
%FSLAX44Y44*%
%MOMM*%
G71*
G01*
G75*
%ADD38R,1.8032X1.2032*%
G04:AMPARAMS|DCode=40|XSize=1.7032mm|YSize=2.2032mm|CornerRadius=0.4766mm|HoleSize=0mm|Usage=FLASHONLY|Rotation=0.000|XOffset=0mm|YOffset=0mm|HoleType=Round|Shape=RoundedRectangle|*
%AMROUNDEDRECTD40*
21,1,1.7032,1.2500,0,0,0.0*
21,1,0.7500,2.2032,0,0,0.0*
1,1,0.9532,0.3750,-0.6250*
1,1,0.9532,-0.3750,-0.6250*
1,1,0.9532,-0.3750,0.6250*
1,1,0.9532,0.3750,0.6250*
%
%ADD40ROUNDEDRECTD40*%
G04:AMPARAMS|DCode=41|XSize=6.2032mm|YSize=3.2032mm|CornerRadius=0.8516mm|HoleSize=0mm|Usage=FLASHONLY|Rotation=0.000|XOffset=0mm|YOffset=0mm|HoleType=Round|Shape=RoundedRectangle|*
%AMROUNDEDRECTD41*
21,1,6.2032,1.5000,0,0,0.0*
21,1,4.5000,3.2032,0,0,0.0*
1,1,1.7032,2.2500,-0.7500*
1,1,1.7032,-2.2500,-0.7500*
1,1,1.7032,-2.2500,0.7500*
1,1,1.7032,2.2500,0.7500*
%
%ADD41ROUNDEDRECTD41*%
%ADD42R,1.2032X1.8032*%
%ADD45C,2.7032*%
%ADD46R,2.0032X2.0032*%
%ADD47C,2.0032*%
G04:AMPARAMS|DCode=48|XSize=6.7032mm|YSize=6.7032mm|CornerRadius=1.7266mm|HoleSize=0mm|Usage=FLASHONLY|Rotation=0.000|XOffset=0mm|YOffset=0mm|HoleType=Round|Shape=RoundedRectangle|*
%AMROUNDEDRECTD48*
21,1,6.7032,3.2500,0,0,0.0*
21,1,3.2500,6.7032,0,0,0.0*
1,1,3.4532,1.6250,-1.6250*
1,1,3.4532,-1.6250,-1.6250*
1,1,3.4532,-1.6250,1.6250*
1,1,3.4532,1.6250,1.6250*
%
%ADD48ROUNDEDRECTD48*%
%ADD50C,1.4032*%
G04:AMPARAMS|DCode=52|XSize=1.2032mm|YSize=0.4532mm|CornerRadius=0.1641mm|HoleSize=0mm|Usage=FLASHONLY|Rotation=270.000|XOffset=0mm|YOffset=0mm|HoleType=Round|Shape=RoundedRectangle|*
%AMROUNDEDRECTD52*
21,1,1.2032,0.1250,0,0,270.0*
21,1,0.8750,0.4532,0,0,270.0*
1,1,0.3282,-0.0625,-0.4375*
1,1,0.3282,-0.0625,0.4375*
1,1,0.3282,0.0625,0.4375*
1,1,0.3282,0.0625,-0.4375*
%
%ADD52ROUNDEDRECTD52*%
G04:AMPARAMS|DCode=53|XSize=1.2032mm|YSize=0.4532mm|CornerRadius=0.1641mm|HoleSize=0mm|Usage=FLASHONLY|Rotation=0.000|XOffset=0mm|YOffset=0mm|HoleType=Round|Shape=RoundedRectangle|*
%AMROUNDEDRECTD53*
21,1,1.2032,0.1250,0,0,0.0*
21,1,0.8750,0.4532,0,0,0.0*
1,1,0.3282,0.4375,-0.0625*
1,1,0.3282,-0.4375,-0.0625*
1,1,0.3282,-0.4375,0.0625*
1,1,0.3282,0.4375,0.0625*
%
%ADD53ROUNDEDRECTD53*%
G04:AMPARAMS|DCode=54|XSize=1.2032mm|YSize=1.2032mm|CornerRadius=0.2016mm|HoleSize=0mm|Usage=FLASHONLY|Rotation=270.000|XOffset=0mm|YOffset=0mm|HoleType=Round|Shape=RoundedRectangle|*
%AMROUNDEDRECTD54*
21,1,1.2032,0.8000,0,0,270.0*
21,1,0.8000,1.2032,0,0,270.0*
1,1,0.4032,-0.4000,-0.4000*
1,1,0.4032,-0.4000,0.4000*
1,1,0.4032,0.4000,0.4000*
1,1,0.4032,0.4000,-0.4000*
%
%ADD54ROUNDEDRECTD54*%
G04:AMPARAMS|DCode=55|XSize=1.7032mm|YSize=4.2032mm|CornerRadius=0.2516mm|HoleSize=0mm|Usage=FLASHONLY|Rotation=270.000|XOffset=0mm|YOffset=0mm|HoleType=Round|Shape=RoundedRectangle|*
%AMROUNDEDRECTD55*
21,1,1.7032,3.7000,0,0,270.0*
21,1,1.2000,4.2032,0,0,270.0*
1,1,0.5032,-1.8500,-0.6000*
1,1,0.5032,-1.8500,0.6000*
1,1,0.5032,1.8500,0.6000*
1,1,0.5032,1.8500,-0.6000*
%
%ADD55ROUNDEDRECTD55*%
G04:AMPARAMS|DCode=56|XSize=1.7032mm|YSize=2.2032mm|CornerRadius=0.2516mm|HoleSize=0mm|Usage=FLASHONLY|Rotation=90.000|XOffset=0mm|YOffset=0mm|HoleType=Round|Shape=RoundedRectangle|*
%AMROUNDEDRECTD56*
21,1,1.7032,1.7000,0,0,90.0*
21,1,1.2000,2.2032,0,0,90.0*
1,1,0.5032,0.8500,0.6000*
1,1,0.5032,0.8500,-0.6000*
1,1,0.5032,-0.8500,-0.6000*
1,1,0.5032,-0.8500,0.6000*
%
%ADD56ROUNDEDRECTD56*%
G04:AMPARAMS|DCode=57|XSize=7.7032mm|YSize=7.2032mm|CornerRadius=0.8016mm|HoleSize=0mm|Usage=FLASHONLY|Rotation=90.000|XOffset=0mm|YOffset=0mm|HoleType=Round|Shape=RoundedRectangle|*
%AMROUNDEDRECTD57*
21,1,7.7032,5.6000,0,0,90.0*
21,1,6.1000,7.2032,0,0,90.0*
1,1,1.6032,2.8000,3.0500*
1,1,1.6032,2.8000,-3.0500*
1,1,1.6032,-2.8000,-3.0500*
1,1,1.6032,-2.8000,3.0500*
%
%ADD57ROUNDEDRECTD57*%
%ADD58O,1.8032X1.0032*%
D38*
X678942Y296672D02*
D03*
Y326672D02*
D03*
X474980Y245110D02*
D03*
Y275110D02*
D03*
X525780Y296150D02*
D03*
Y326150D02*
D03*
X500380Y275350D02*
D03*
Y245350D02*
D03*
X525780D02*
D03*
Y275350D02*
D03*
X551180Y245350D02*
D03*
Y275350D02*
D03*
X576580Y245350D02*
D03*
Y275350D02*
D03*
X551180Y296150D02*
D03*
Y326150D02*
D03*
X576580Y296150D02*
D03*
Y326150D02*
D03*
X474980Y295910D02*
D03*
Y325910D02*
D03*
X576580Y226074D02*
D03*
Y196074D02*
D03*
X401320Y224550D02*
D03*
Y194550D02*
D03*
X506222Y68058D02*
D03*
Y98058D02*
D03*
X533400Y67804D02*
D03*
Y97804D02*
D03*
X451358Y67804D02*
D03*
Y97804D02*
D03*
X479298Y67804D02*
D03*
Y97804D02*
D03*
X376174Y224550D02*
D03*
Y194550D02*
D03*
X425958Y194804D02*
D03*
Y224804D02*
D03*
X560324Y67804D02*
D03*
Y97804D02*
D03*
X500380Y296150D02*
D03*
Y326150D02*
D03*
D40*
X500714Y194056D02*
D03*
X454914D02*
D03*
X477814D02*
D03*
D41*
Y129056D02*
D03*
D42*
X175500Y344170D02*
D03*
X205500D02*
D03*
X175500Y394970D02*
D03*
X205500D02*
D03*
X404636Y445516D02*
D03*
X374636D02*
D03*
X239240Y306070D02*
D03*
X269240D02*
D03*
X124700Y417576D02*
D03*
X154700D02*
D03*
X154940Y442722D02*
D03*
X124940D02*
D03*
X176008D02*
D03*
X206008D02*
D03*
X703340Y424942D02*
D03*
X673340D02*
D03*
X478296Y221996D02*
D03*
X448296D02*
D03*
X399006Y86614D02*
D03*
X429006D02*
D03*
D45*
X228600Y394770D02*
D03*
Y344370D02*
D03*
D46*
X203200Y128270D02*
D03*
X127000D02*
D03*
X710800Y306070D02*
D03*
X609600Y128270D02*
D03*
X711200D02*
D03*
X609600Y306070D02*
D03*
D47*
X203200Y153670D02*
D03*
Y179070D02*
D03*
Y204470D02*
D03*
X127000Y153670D02*
D03*
Y179070D02*
D03*
Y204470D02*
D03*
Y229870D02*
D03*
X710800Y382270D02*
D03*
Y356870D02*
D03*
Y331470D02*
D03*
X609600Y153670D02*
D03*
Y179070D02*
D03*
Y204470D02*
D03*
Y229870D02*
D03*
X711200Y153670D02*
D03*
Y179070D02*
D03*
Y204470D02*
D03*
Y229870D02*
D03*
X609600Y382270D02*
D03*
Y356870D02*
D03*
Y331470D02*
D03*
X25400Y254000D02*
D03*
Y279400D02*
D03*
Y304800D02*
D03*
Y330200D02*
D03*
Y355600D02*
D03*
Y228600D02*
D03*
Y203200D02*
D03*
Y177800D02*
D03*
Y152400D02*
D03*
Y127000D02*
D03*
Y381000D02*
D03*
Y406400D02*
D03*
X548640Y509270D02*
D03*
X574040D02*
D03*
X599440D02*
D03*
X523240D02*
D03*
X497840D02*
D03*
X472440D02*
D03*
X447040D02*
D03*
X421640D02*
D03*
X330200D02*
D03*
X355600D02*
D03*
X381000D02*
D03*
X304800D02*
D03*
X279400D02*
D03*
X254000D02*
D03*
X228600D02*
D03*
X203200D02*
D03*
X330200Y26670D02*
D03*
X355600D02*
D03*
X381000D02*
D03*
X406400D02*
D03*
X431800D02*
D03*
X304800D02*
D03*
X279400D02*
D03*
X254000D02*
D03*
X228600D02*
D03*
X203200D02*
D03*
X457200D02*
D03*
X508000D02*
D03*
X482600D02*
D03*
D48*
X685800Y52070D02*
D03*
X50800D02*
D03*
X685800Y483870D02*
D03*
X50800D02*
D03*
D50*
X570230Y44196D02*
D03*
D52*
X295200Y421470D02*
D03*
X290200D02*
D03*
X310200D02*
D03*
X305200D02*
D03*
X300200D02*
D03*
X335200D02*
D03*
X340200D02*
D03*
X345200D02*
D03*
X325200D02*
D03*
X330200D02*
D03*
X320200D02*
D03*
X315200D02*
D03*
Y331470D02*
D03*
X320200D02*
D03*
X330200D02*
D03*
X325200D02*
D03*
X345200D02*
D03*
X340200D02*
D03*
X335200D02*
D03*
X300200D02*
D03*
X305200D02*
D03*
X310200D02*
D03*
X290200D02*
D03*
X295200D02*
D03*
D53*
X362700Y373970D02*
D03*
Y378970D02*
D03*
Y388970D02*
D03*
Y383970D02*
D03*
Y403970D02*
D03*
Y398970D02*
D03*
Y393970D02*
D03*
Y358970D02*
D03*
Y363970D02*
D03*
Y368970D02*
D03*
Y348970D02*
D03*
Y353970D02*
D03*
X272700D02*
D03*
Y348970D02*
D03*
Y368970D02*
D03*
Y363970D02*
D03*
Y358970D02*
D03*
Y393970D02*
D03*
Y398970D02*
D03*
Y403970D02*
D03*
Y383970D02*
D03*
Y388970D02*
D03*
Y378970D02*
D03*
Y373970D02*
D03*
D54*
X526542Y210566D02*
D03*
X549656Y219964D02*
D03*
Y201168D02*
D03*
D55*
X557022Y44176D02*
D03*
D56*
X423672Y119126D02*
D03*
Y164846D02*
D03*
D57*
X360172Y141986D02*
D03*
D58*
X490696Y361962D02*
D03*
Y374662D02*
D03*
Y387362D02*
D03*
Y400062D02*
D03*
X549196Y361912D02*
D03*
Y374662D02*
D03*
Y387362D02*
D03*
Y400062D02*
D03*
Y451062D02*
D03*
Y438362D02*
D03*
Y425662D02*
D03*
Y412912D02*
D03*
X490696Y451062D02*
D03*
Y438362D02*
D03*
Y425662D02*
D03*
Y412962D02*
D03*
M02*
