G04 Layer_Physical_Order=1*
G04 Layer_Color=255*
%FSLAX44Y44*%
%MOMM*%
G71*
G01*
G75*
%ADD10R,1.6000X1.0000*%
G04:AMPARAMS|DCode=11|XSize=1mm|YSize=1.6mm|CornerRadius=0.25mm|HoleSize=0mm|Usage=FLASHONLY|Rotation=90.000|XOffset=0mm|YOffset=0mm|HoleType=Round|Shape=RoundedRectangle|*
%AMROUNDEDRECTD11*
21,1,1.0000,1.1000,0,0,90.0*
21,1,0.5000,1.6000,0,0,90.0*
1,1,0.5000,0.5500,0.2500*
1,1,0.5000,0.5500,-0.2500*
1,1,0.5000,-0.5500,-0.2500*
1,1,0.5000,-0.5500,0.2500*
%
%ADD11ROUNDEDRECTD11*%
G04:AMPARAMS|DCode=12|XSize=1.5mm|YSize=2mm|CornerRadius=0.375mm|HoleSize=0mm|Usage=FLASHONLY|Rotation=0.000|XOffset=0mm|YOffset=0mm|HoleType=Round|Shape=RoundedRectangle|*
%AMROUNDEDRECTD12*
21,1,1.5000,1.2500,0,0,0.0*
21,1,0.7500,2.0000,0,0,0.0*
1,1,0.7500,0.3750,-0.6250*
1,1,0.7500,-0.3750,-0.6250*
1,1,0.7500,-0.3750,0.6250*
1,1,0.7500,0.3750,0.6250*
%
%ADD12ROUNDEDRECTD12*%
G04:AMPARAMS|DCode=13|XSize=6mm|YSize=3mm|CornerRadius=0.75mm|HoleSize=0mm|Usage=FLASHONLY|Rotation=0.000|XOffset=0mm|YOffset=0mm|HoleType=Round|Shape=RoundedRectangle|*
%AMROUNDEDRECTD13*
21,1,6.0000,1.5000,0,0,0.0*
21,1,4.5000,3.0000,0,0,0.0*
1,1,1.5000,2.2500,-0.7500*
1,1,1.5000,-2.2500,-0.7500*
1,1,1.5000,-2.2500,0.7500*
1,1,1.5000,2.2500,0.7500*
%
%ADD13ROUNDEDRECTD13*%
%ADD14R,1.0000X1.6000*%
%ADD15R,3.0000X4.0000*%
G04:AMPARAMS|DCode=16|XSize=1mm|YSize=1.6mm|CornerRadius=0.25mm|HoleSize=0mm|Usage=FLASHONLY|Rotation=180.000|XOffset=0mm|YOffset=0mm|HoleType=Round|Shape=RoundedRectangle|*
%AMROUNDEDRECTD16*
21,1,1.0000,1.1000,0,0,180.0*
21,1,0.5000,1.6000,0,0,180.0*
1,1,0.5000,-0.2500,0.5500*
1,1,0.5000,0.2500,0.5500*
1,1,0.5000,0.2500,-0.5500*
1,1,0.5000,-0.2500,-0.5500*
%
%ADD16ROUNDEDRECTD16*%
%ADD17C,0.5080*%
%ADD18C,0.2540*%
%ADD19C,0.5000*%
%ADD20C,0.7620*%
%ADD21C,0.6350*%
%ADD22C,2.5000*%
%ADD23R,1.8000X1.8000*%
%ADD24C,1.8000*%
G04:AMPARAMS|DCode=25|XSize=6.5mm|YSize=6.5mm|CornerRadius=1.625mm|HoleSize=0mm|Usage=FLASHONLY|Rotation=0.000|XOffset=0mm|YOffset=0mm|HoleType=Round|Shape=RoundedRectangle|*
%AMROUNDEDRECTD25*
21,1,6.5000,3.2500,0,0,0.0*
21,1,3.2500,6.5000,0,0,0.0*
1,1,3.2500,1.6250,-1.6250*
1,1,3.2500,-1.6250,-1.6250*
1,1,3.2500,-1.6250,1.6250*
1,1,3.2500,1.6250,1.6250*
%
%ADD25ROUNDEDRECTD25*%
%ADD26C,1.3000*%
%ADD27C,1.2000*%
%ADD28C,1.5000*%
G36*
X705866Y524510D02*
X707892D01*
X711867Y523719D01*
X715611Y522168D01*
X718981Y519917D01*
X721847Y517051D01*
X724098Y513681D01*
X725649Y509937D01*
X726440Y505962D01*
Y503936D01*
X726440D01*
X726440Y34036D01*
X726440Y32538D01*
X726049Y29567D01*
X725273Y26672D01*
X724126Y23904D01*
X722628Y21308D01*
X720804Y18931D01*
X718685Y16812D01*
X716308Y14988D01*
X713712Y13489D01*
X710944Y12343D01*
X708049Y11567D01*
X705554Y11238D01*
X703580Y11176D01*
X703580Y11176D01*
X31750Y11176D01*
X30335Y11176D01*
X27529Y11545D01*
X24795Y12278D01*
X22180Y13361D01*
X19729Y14776D01*
X17484Y16499D01*
X15483Y18500D01*
X13760Y20745D01*
X12345Y23196D01*
X11262Y25811D01*
X10529Y28545D01*
X10160Y31351D01*
X10160Y32766D01*
X10160Y506730D01*
Y508481D01*
X10843Y511916D01*
X12184Y515152D01*
X14129Y518064D01*
X16606Y520541D01*
X19518Y522486D01*
X22754Y523827D01*
X26189Y524510D01*
X27940Y524510D01*
Y524510D01*
X705866Y524510D01*
D02*
G37*
%LPC*%
G36*
X26670Y138472D02*
Y128270D01*
X36872D01*
X36643Y130013D01*
X35480Y132820D01*
X33630Y135230D01*
X31220Y137080D01*
X28412Y138243D01*
X26670Y138472D01*
D02*
G37*
G36*
X203200Y165310D02*
X200187Y164913D01*
X197380Y163750D01*
X194970Y161900D01*
X193120Y159490D01*
X191957Y156683D01*
X191560Y153670D01*
X191957Y150658D01*
X193120Y147850D01*
X194970Y145440D01*
X197380Y143590D01*
X200187Y142427D01*
X203200Y142030D01*
X206213Y142427D01*
X209020Y143590D01*
X211430Y145440D01*
X213280Y147850D01*
X213457Y148277D01*
X260162D01*
Y142876D01*
X275242D01*
Y163956D01*
X260162D01*
Y158555D01*
X213668D01*
X213280Y159490D01*
X211430Y161900D01*
X209020Y163750D01*
X206213Y164913D01*
X203200Y165310D01*
D02*
G37*
G36*
X504712Y147508D02*
X488442D01*
Y126238D01*
X504712D01*
Y147508D01*
D02*
G37*
G36*
X24130Y138472D02*
X22387Y138243D01*
X19580Y137080D01*
X17170Y135230D01*
X15320Y132820D01*
X14157Y130013D01*
X13928Y128270D01*
X24130D01*
Y138472D01*
D02*
G37*
G36*
X127000Y190709D02*
X123988Y190313D01*
X121180Y189150D01*
X118770Y187300D01*
X116920Y184890D01*
X115757Y182083D01*
X115360Y179070D01*
X115757Y176057D01*
X116920Y173250D01*
X118770Y170840D01*
X121180Y168990D01*
X123988Y167827D01*
X127000Y167430D01*
X130013Y167827D01*
X132820Y168990D01*
X135230Y170840D01*
X137080Y173250D01*
X138243Y176057D01*
X138639Y179070D01*
X138243Y182083D01*
X137080Y184890D01*
X135230Y187300D01*
X132820Y189150D01*
X130013Y190313D01*
X127000Y190709D01*
D02*
G37*
G36*
X609600Y216110D02*
X606587Y215713D01*
X603780Y214550D01*
X601370Y212700D01*
X599520Y210290D01*
X598357Y207482D01*
X597960Y204470D01*
X598357Y201458D01*
X599520Y198650D01*
X601370Y196240D01*
X603780Y194390D01*
X606587Y193227D01*
X609600Y192830D01*
X612612Y193227D01*
X615420Y194390D01*
X617830Y196240D01*
X619680Y198650D01*
X620843Y201458D01*
X621240Y204470D01*
X620843Y207482D01*
X619680Y210290D01*
X617830Y212700D01*
X615420Y214550D01*
X612612Y215713D01*
X609600Y216110D01*
D02*
G37*
G36*
X125730Y203200D02*
X115528D01*
X115757Y201458D01*
X116920Y198650D01*
X118770Y196240D01*
X121180Y194390D01*
X123988Y193227D01*
X125730Y192998D01*
Y203200D01*
D02*
G37*
G36*
X203200Y190709D02*
X200187Y190313D01*
X197380Y189150D01*
X194970Y187300D01*
X193120Y184890D01*
X191957Y182083D01*
X191560Y179070D01*
X191957Y176057D01*
X193120Y173250D01*
X194970Y170840D01*
X197380Y168990D01*
X200187Y167827D01*
X203200Y167430D01*
X206213Y167827D01*
X209020Y168990D01*
X211430Y170840D01*
X213280Y173250D01*
X213457Y173677D01*
X260402D01*
Y168276D01*
X275482D01*
Y189356D01*
X260402D01*
Y183955D01*
X213668D01*
X213280Y184890D01*
X211430Y187300D01*
X209020Y189150D01*
X206213Y190313D01*
X203200Y190709D01*
D02*
G37*
G36*
X25400Y214839D02*
X22387Y214443D01*
X19580Y213280D01*
X17170Y211430D01*
X15320Y209020D01*
X14157Y206213D01*
X13760Y203200D01*
X14157Y200187D01*
X15320Y197380D01*
X17170Y194970D01*
X19580Y193120D01*
X22387Y191957D01*
X25400Y191560D01*
X28412Y191957D01*
X31220Y193120D01*
X33630Y194970D01*
X35480Y197380D01*
X36643Y200187D01*
X37039Y203200D01*
X36643Y206213D01*
X35480Y209020D01*
X33630Y211430D01*
X31220Y213280D01*
X28412Y214443D01*
X25400Y214839D01*
D02*
G37*
G36*
X485902Y147508D02*
X469632D01*
Y126238D01*
X485902D01*
Y147508D01*
D02*
G37*
G36*
Y123698D02*
X469632D01*
Y102428D01*
X485902D01*
Y123698D01*
D02*
G37*
G36*
X504712D02*
X488442D01*
Y102428D01*
X504712D01*
Y123698D01*
D02*
G37*
G36*
X303530Y103696D02*
X302571Y103570D01*
X300493Y102710D01*
X298709Y101341D01*
X297340Y99557D01*
X296480Y97479D01*
X296353Y96520D01*
X303530D01*
Y103696D01*
D02*
G37*
G36*
X306070D02*
Y96520D01*
X313246D01*
X313120Y97479D01*
X312260Y99557D01*
X310891Y101341D01*
X309107Y102710D01*
X307029Y103570D01*
X306070Y103696D01*
D02*
G37*
G36*
X331430Y126664D02*
X328950D01*
X327308Y126448D01*
X325778Y125814D01*
X324464Y124806D01*
X323456Y123492D01*
X322822Y121962D01*
X322606Y120320D01*
Y115340D01*
X331430D01*
Y126664D01*
D02*
G37*
G36*
X36872Y125730D02*
X26670D01*
Y115528D01*
X28412Y115757D01*
X31220Y116920D01*
X33630Y118770D01*
X35480Y121180D01*
X36643Y123988D01*
X36872Y125730D01*
D02*
G37*
G36*
X127000Y165310D02*
X123988Y164913D01*
X121180Y163750D01*
X118770Y161900D01*
X116920Y159490D01*
X115757Y156683D01*
X115360Y153670D01*
X115757Y150658D01*
X116920Y147850D01*
X118770Y145440D01*
X120595Y144039D01*
Y139810D01*
X115460D01*
Y116730D01*
X138540D01*
Y121865D01*
X191660D01*
Y116730D01*
X196795D01*
Y77470D01*
X197013Y75812D01*
X197653Y74268D01*
X198671Y72941D01*
X217467Y54145D01*
X218794Y53127D01*
X220338Y52487D01*
X221996Y52269D01*
X450795D01*
Y36301D01*
X448970Y34900D01*
X447120Y32490D01*
X445957Y29683D01*
X445560Y26670D01*
X445957Y23658D01*
X447120Y20850D01*
X448970Y18440D01*
X451380Y16590D01*
X454188Y15427D01*
X457200Y15030D01*
X460213Y15427D01*
X463020Y16590D01*
X465430Y18440D01*
X467280Y20850D01*
X468443Y23658D01*
X468840Y26670D01*
X468443Y29683D01*
X467280Y32490D01*
X465430Y34900D01*
X463605Y36301D01*
Y54243D01*
X477887Y68525D01*
X513777D01*
X515240Y67230D01*
X515240Y66525D01*
Y60960D01*
X525780D01*
X536320D01*
Y66525D01*
X536320Y67230D01*
X537784Y68525D01*
X556260D01*
X557918Y68743D01*
X559462Y69383D01*
X560789Y70401D01*
X607118Y116730D01*
X621140D01*
Y121865D01*
X699660D01*
Y116730D01*
X722740D01*
Y139810D01*
X699660D01*
Y134675D01*
X621140D01*
Y139810D01*
X598060D01*
Y125788D01*
X553607Y81335D01*
X537982D01*
X536320Y82150D01*
X536320Y83335D01*
Y97230D01*
X532185D01*
Y103190D01*
X536320D01*
Y118270D01*
X515240D01*
Y103190D01*
X519375D01*
Y97230D01*
X515240D01*
Y83335D01*
X515240Y82150D01*
X513578Y81335D01*
X475234D01*
X473576Y81117D01*
X472032Y80477D01*
X470705Y79459D01*
X456325Y65079D01*
X407720D01*
Y74804D01*
X412134D01*
Y95884D01*
X407720D01*
Y102428D01*
X434712D01*
Y147508D01*
X399632D01*
Y120475D01*
X388574D01*
X388378Y121962D01*
X387744Y123492D01*
X386736Y124806D01*
X385422Y125814D01*
X383892Y126448D01*
X382250Y126664D01*
X374750D01*
X373108Y126448D01*
X371578Y125814D01*
X370264Y124806D01*
X369256Y123492D01*
X368622Y121962D01*
X368406Y120320D01*
Y107820D01*
X368622Y106178D01*
X369256Y104648D01*
X370264Y103334D01*
X371578Y102326D01*
X372095Y102111D01*
Y65079D01*
X224649D01*
X209605Y80123D01*
Y116730D01*
X214740D01*
Y139810D01*
X191660D01*
Y134675D01*
X138540D01*
Y139810D01*
X133405D01*
Y144039D01*
X135230Y145440D01*
X137080Y147850D01*
X138243Y150658D01*
X138639Y153670D01*
X138243Y156683D01*
X137080Y159490D01*
X135230Y161900D01*
X132820Y163750D01*
X130013Y164913D01*
X127000Y165310D01*
D02*
G37*
G36*
X336450Y126664D02*
X333970D01*
Y115340D01*
X342794D01*
Y120320D01*
X342578Y121962D01*
X341944Y123492D01*
X340936Y124806D01*
X339622Y125814D01*
X338092Y126448D01*
X336450Y126664D01*
D02*
G37*
G36*
X24130Y125730D02*
X13928D01*
X14157Y123988D01*
X15320Y121180D01*
X17170Y118770D01*
X19580Y116920D01*
X22387Y115757D01*
X24130Y115528D01*
Y125730D01*
D02*
G37*
G36*
X621072Y228600D02*
X610870D01*
Y218398D01*
X612612Y218627D01*
X615420Y219790D01*
X617830Y221640D01*
X619680Y224050D01*
X620843Y226857D01*
X621072Y228600D01*
D02*
G37*
G36*
X722672D02*
X712470D01*
Y218398D01*
X714212Y218627D01*
X717020Y219790D01*
X719430Y221640D01*
X721280Y224050D01*
X722443Y226857D01*
X722672Y228600D01*
D02*
G37*
G36*
X709930D02*
X699728D01*
X699957Y226857D01*
X701120Y224050D01*
X702970Y221640D01*
X705380Y219790D01*
X708187Y218627D01*
X709930Y218398D01*
Y228600D01*
D02*
G37*
G36*
X138472D02*
X128270D01*
Y218398D01*
X130013Y218627D01*
X132820Y219790D01*
X135230Y221640D01*
X137080Y224050D01*
X138243Y226857D01*
X138472Y228600D01*
D02*
G37*
G36*
X297688Y231300D02*
X288418D01*
Y225030D01*
X297688D01*
Y231300D01*
D02*
G37*
G36*
X128270Y241342D02*
Y231140D01*
X138472D01*
X138243Y232882D01*
X137080Y235690D01*
X135230Y238100D01*
X132820Y239950D01*
X130013Y241113D01*
X128270Y241342D01*
D02*
G37*
G36*
X610870D02*
Y231140D01*
X621072D01*
X620843Y232882D01*
X619680Y235690D01*
X617830Y238100D01*
X615420Y239950D01*
X612612Y241113D01*
X610870Y241342D01*
D02*
G37*
G36*
X608330D02*
X606587Y241113D01*
X603780Y239950D01*
X601370Y238100D01*
X599520Y235690D01*
X598357Y232882D01*
X598128Y231140D01*
X608330D01*
Y241342D01*
D02*
G37*
G36*
X709930D02*
X708187Y241113D01*
X705380Y239950D01*
X702970Y238100D01*
X701120Y235690D01*
X699957Y232882D01*
X699728Y231140D01*
X709930D01*
Y241342D01*
D02*
G37*
G36*
X608330Y228600D02*
X598128D01*
X598357Y226857D01*
X599520Y224050D01*
X601370Y221640D01*
X603780Y219790D01*
X606587Y218627D01*
X608330Y218398D01*
Y228600D01*
D02*
G37*
G36*
X214672Y203200D02*
X204470D01*
Y192998D01*
X206213Y193227D01*
X209020Y194390D01*
X211430Y196240D01*
X213280Y198650D01*
X214443Y201458D01*
X214672Y203200D01*
D02*
G37*
G36*
X125730Y215942D02*
X123988Y215713D01*
X121180Y214550D01*
X118770Y212700D01*
X116920Y210290D01*
X115757Y207482D01*
X115528Y205740D01*
X125730D01*
Y215942D01*
D02*
G37*
G36*
X201930Y203200D02*
X191728D01*
X191957Y201458D01*
X193120Y198650D01*
X194970Y196240D01*
X197380Y194390D01*
X200187Y193227D01*
X201930Y192998D01*
Y203200D01*
D02*
G37*
G36*
X138472D02*
X128270D01*
Y192998D01*
X130013Y193227D01*
X132820Y194390D01*
X135230Y196240D01*
X137080Y198650D01*
X138243Y201458D01*
X138472Y203200D01*
D02*
G37*
G36*
X201930Y215942D02*
X200187Y215713D01*
X197380Y214550D01*
X194970Y212700D01*
X193120Y210290D01*
X191957Y207482D01*
X191728Y205740D01*
X201930D01*
Y215942D01*
D02*
G37*
G36*
X297688Y222490D02*
X288418D01*
Y216220D01*
X297688D01*
Y222490D01*
D02*
G37*
G36*
X125730Y228600D02*
X115528D01*
X115757Y226857D01*
X116920Y224050D01*
X118770Y221640D01*
X121180Y219790D01*
X123988Y218627D01*
X125730Y218398D01*
Y228600D01*
D02*
G37*
G36*
X128270Y215942D02*
Y205740D01*
X138472D01*
X138243Y207482D01*
X137080Y210290D01*
X135230Y212700D01*
X132820Y214550D01*
X130013Y215713D01*
X128270Y215942D01*
D02*
G37*
G36*
X204470D02*
Y205740D01*
X214672D01*
X214443Y207482D01*
X213280Y210290D01*
X211430Y212700D01*
X209020Y214550D01*
X206213Y215713D01*
X204470Y215942D01*
D02*
G37*
G36*
X417872Y25400D02*
X407670D01*
Y15198D01*
X409412Y15427D01*
X412220Y16590D01*
X414630Y18440D01*
X416480Y20850D01*
X417643Y23658D01*
X417872Y25400D01*
D02*
G37*
G36*
X67050Y87201D02*
X34550D01*
X30866Y86838D01*
X27325Y85764D01*
X24060Y84019D01*
X21199Y81671D01*
X18851Y78810D01*
X17106Y75545D01*
X16032Y72003D01*
X15669Y68320D01*
Y35820D01*
X16032Y32136D01*
X17106Y28595D01*
X18851Y25330D01*
X21199Y22469D01*
X24060Y20121D01*
X27325Y18376D01*
X30866Y17302D01*
X34550Y16939D01*
X67050D01*
X70733Y17302D01*
X74275Y18376D01*
X77540Y20121D01*
X80401Y22469D01*
X82749Y25330D01*
X84494Y28595D01*
X85568Y32136D01*
X85931Y35820D01*
Y68320D01*
X85568Y72003D01*
X84494Y75545D01*
X82749Y78810D01*
X80401Y81671D01*
X77540Y84019D01*
X74275Y85764D01*
X70733Y86838D01*
X67050Y87201D01*
D02*
G37*
G36*
X508000Y38310D02*
X504987Y37913D01*
X502180Y36750D01*
X499770Y34900D01*
X497920Y32490D01*
X496757Y29683D01*
X496360Y26670D01*
X496757Y23658D01*
X497920Y20850D01*
X499770Y18440D01*
X502180Y16590D01*
X504987Y15427D01*
X508000Y15030D01*
X511012Y15427D01*
X513820Y16590D01*
X516230Y18440D01*
X518080Y20850D01*
X519243Y23658D01*
X519640Y26670D01*
X519243Y29683D01*
X518080Y32490D01*
X516230Y34900D01*
X513820Y36750D01*
X511012Y37913D01*
X508000Y38310D01*
D02*
G37*
G36*
X405130Y25400D02*
X394928D01*
X395157Y23658D01*
X396320Y20850D01*
X398170Y18440D01*
X400580Y16590D01*
X403387Y15427D01*
X405130Y15198D01*
Y25400D01*
D02*
G37*
G36*
X702050Y87201D02*
X669550D01*
X665866Y86838D01*
X662325Y85764D01*
X659060Y84019D01*
X656199Y81671D01*
X653851Y78810D01*
X652106Y75545D01*
X651032Y72003D01*
X650669Y68320D01*
Y35820D01*
X651032Y32136D01*
X652106Y28595D01*
X653851Y25330D01*
X656199Y22469D01*
X659060Y20121D01*
X662325Y18376D01*
X665866Y17302D01*
X669550Y16939D01*
X702050D01*
X705733Y17302D01*
X709275Y18376D01*
X712540Y20121D01*
X715401Y22469D01*
X717749Y25330D01*
X719494Y28595D01*
X720568Y32136D01*
X720931Y35820D01*
Y68320D01*
X720568Y72003D01*
X719494Y75545D01*
X717749Y78810D01*
X715401Y81671D01*
X712540Y84019D01*
X709275Y85764D01*
X705733Y86838D01*
X702050Y87201D01*
D02*
G37*
G36*
X405130Y38142D02*
X403387Y37913D01*
X400580Y36750D01*
X398170Y34900D01*
X396320Y32490D01*
X395157Y29683D01*
X394928Y27940D01*
X405130D01*
Y38142D01*
D02*
G37*
G36*
X407670D02*
Y27940D01*
X417872D01*
X417643Y29683D01*
X416480Y32490D01*
X414630Y34900D01*
X412220Y36750D01*
X409412Y37913D01*
X407670Y38142D01*
D02*
G37*
G36*
X628650Y29210D02*
X621474D01*
X621600Y28251D01*
X622460Y26173D01*
X623829Y24389D01*
X625613Y23020D01*
X627691Y22160D01*
X628650Y22034D01*
Y29210D01*
D02*
G37*
G36*
X638367D02*
X631190D01*
Y22034D01*
X632149Y22160D01*
X634227Y23020D01*
X636011Y24389D01*
X637380Y26173D01*
X638240Y28251D01*
X638367Y29210D01*
D02*
G37*
G36*
X482600Y38310D02*
X479588Y37913D01*
X476780Y36750D01*
X474370Y34900D01*
X472520Y32490D01*
X471357Y29683D01*
X470960Y26670D01*
X471357Y23658D01*
X472520Y20850D01*
X474370Y18440D01*
X476780Y16590D01*
X479588Y15427D01*
X482600Y15030D01*
X485612Y15427D01*
X488420Y16590D01*
X490830Y18440D01*
X492680Y20850D01*
X493843Y23658D01*
X494240Y26670D01*
X493843Y29683D01*
X492680Y32490D01*
X490830Y34900D01*
X488420Y36750D01*
X485612Y37913D01*
X482600Y38310D01*
D02*
G37*
G36*
X254000D02*
X250987Y37913D01*
X248180Y36750D01*
X245770Y34900D01*
X243920Y32490D01*
X242757Y29683D01*
X242360Y26670D01*
X242757Y23658D01*
X243920Y20850D01*
X245770Y18440D01*
X248180Y16590D01*
X250987Y15427D01*
X254000Y15030D01*
X257013Y15427D01*
X259820Y16590D01*
X262230Y18440D01*
X264080Y20850D01*
X265243Y23658D01*
X265639Y26670D01*
X265243Y29683D01*
X264080Y32490D01*
X262230Y34900D01*
X259820Y36750D01*
X257013Y37913D01*
X254000Y38310D01*
D02*
G37*
G36*
X279400D02*
X276388Y37913D01*
X273580Y36750D01*
X271170Y34900D01*
X269320Y32490D01*
X268157Y29683D01*
X267760Y26670D01*
X268157Y23658D01*
X269320Y20850D01*
X271170Y18440D01*
X273580Y16590D01*
X276388Y15427D01*
X279400Y15030D01*
X282412Y15427D01*
X285220Y16590D01*
X287630Y18440D01*
X289480Y20850D01*
X290643Y23658D01*
X291040Y26670D01*
X290643Y29683D01*
X289480Y32490D01*
X287630Y34900D01*
X285220Y36750D01*
X282412Y37913D01*
X279400Y38310D01*
D02*
G37*
G36*
X203200D02*
X200187Y37913D01*
X197380Y36750D01*
X194970Y34900D01*
X193120Y32490D01*
X191957Y29683D01*
X191560Y26670D01*
X191957Y23658D01*
X193120Y20850D01*
X194970Y18440D01*
X197380Y16590D01*
X200187Y15427D01*
X203200Y15030D01*
X206213Y15427D01*
X209020Y16590D01*
X211430Y18440D01*
X213280Y20850D01*
X214443Y23658D01*
X214839Y26670D01*
X214443Y29683D01*
X213280Y32490D01*
X211430Y34900D01*
X209020Y36750D01*
X206213Y37913D01*
X203200Y38310D01*
D02*
G37*
G36*
X228600D02*
X225588Y37913D01*
X222780Y36750D01*
X220370Y34900D01*
X218520Y32490D01*
X217357Y29683D01*
X216960Y26670D01*
X217357Y23658D01*
X218520Y20850D01*
X220370Y18440D01*
X222780Y16590D01*
X225588Y15427D01*
X228600Y15030D01*
X231612Y15427D01*
X234420Y16590D01*
X236830Y18440D01*
X238680Y20850D01*
X239843Y23658D01*
X240240Y26670D01*
X239843Y29683D01*
X238680Y32490D01*
X236830Y34900D01*
X234420Y36750D01*
X231612Y37913D01*
X228600Y38310D01*
D02*
G37*
G36*
X304800D02*
X301787Y37913D01*
X298980Y36750D01*
X296570Y34900D01*
X294720Y32490D01*
X293557Y29683D01*
X293160Y26670D01*
X293557Y23658D01*
X294720Y20850D01*
X296570Y18440D01*
X298980Y16590D01*
X301787Y15427D01*
X304800Y15030D01*
X307812Y15427D01*
X310620Y16590D01*
X313030Y18440D01*
X314880Y20850D01*
X316043Y23658D01*
X316439Y26670D01*
X316043Y29683D01*
X314880Y32490D01*
X313030Y34900D01*
X310620Y36750D01*
X307812Y37913D01*
X304800Y38310D01*
D02*
G37*
G36*
X381000D02*
X377988Y37913D01*
X375180Y36750D01*
X372770Y34900D01*
X370920Y32490D01*
X369757Y29683D01*
X369361Y26670D01*
X369757Y23658D01*
X370920Y20850D01*
X372770Y18440D01*
X375180Y16590D01*
X377988Y15427D01*
X381000Y15030D01*
X384012Y15427D01*
X386820Y16590D01*
X389230Y18440D01*
X391080Y20850D01*
X392243Y23658D01*
X392640Y26670D01*
X392243Y29683D01*
X391080Y32490D01*
X389230Y34900D01*
X386820Y36750D01*
X384012Y37913D01*
X381000Y38310D01*
D02*
G37*
G36*
X431800D02*
X428787Y37913D01*
X425980Y36750D01*
X423570Y34900D01*
X421720Y32490D01*
X420557Y29683D01*
X420160Y26670D01*
X420557Y23658D01*
X421720Y20850D01*
X423570Y18440D01*
X425980Y16590D01*
X428787Y15427D01*
X431800Y15030D01*
X434813Y15427D01*
X437620Y16590D01*
X440030Y18440D01*
X441880Y20850D01*
X443043Y23658D01*
X443440Y26670D01*
X443043Y29683D01*
X441880Y32490D01*
X440030Y34900D01*
X437620Y36750D01*
X434813Y37913D01*
X431800Y38310D01*
D02*
G37*
G36*
X330200D02*
X327188Y37913D01*
X324380Y36750D01*
X321970Y34900D01*
X320120Y32490D01*
X318957Y29683D01*
X318560Y26670D01*
X318957Y23658D01*
X320120Y20850D01*
X321970Y18440D01*
X324380Y16590D01*
X327188Y15427D01*
X330200Y15030D01*
X333213Y15427D01*
X336020Y16590D01*
X338430Y18440D01*
X340280Y20850D01*
X341443Y23658D01*
X341839Y26670D01*
X341443Y29683D01*
X340280Y32490D01*
X338430Y34900D01*
X336020Y36750D01*
X333213Y37913D01*
X330200Y38310D01*
D02*
G37*
G36*
X355600D02*
X352588Y37913D01*
X349780Y36750D01*
X347370Y34900D01*
X345520Y32490D01*
X344357Y29683D01*
X343960Y26670D01*
X344357Y23658D01*
X345520Y20850D01*
X347370Y18440D01*
X349780Y16590D01*
X352588Y15427D01*
X355600Y15030D01*
X358613Y15427D01*
X361420Y16590D01*
X363830Y18440D01*
X365680Y20850D01*
X366843Y23658D01*
X367239Y26670D01*
X366843Y29683D01*
X365680Y32490D01*
X363830Y34900D01*
X361420Y36750D01*
X358613Y37913D01*
X355600Y38310D01*
D02*
G37*
G36*
X433324Y84074D02*
X427054D01*
Y74804D01*
X433324D01*
Y84074D01*
D02*
G37*
G36*
X442134D02*
X435864D01*
Y74804D01*
X442134D01*
Y84074D01*
D02*
G37*
G36*
X324584D02*
X318314D01*
Y74804D01*
X324584D01*
Y84074D01*
D02*
G37*
G36*
X342794Y112800D02*
X322606D01*
Y107820D01*
X322822Y106178D01*
X323456Y104648D01*
X324464Y103334D01*
X325778Y102326D01*
X326936Y101846D01*
Y95884D01*
X318314D01*
Y86614D01*
X325854D01*
Y85344D01*
X327124D01*
Y74804D01*
X333394D01*
Y84732D01*
X336776Y88114D01*
X337692Y89308D01*
X338268Y90698D01*
X338464Y92190D01*
Y101846D01*
X339622Y102326D01*
X340936Y103334D01*
X341944Y104648D01*
X342578Y106178D01*
X342794Y107820D01*
Y112800D01*
D02*
G37*
G36*
X433324Y95884D02*
X427054D01*
Y86614D01*
X433324D01*
Y95884D01*
D02*
G37*
G36*
X303530Y93980D02*
X296353D01*
X296480Y93021D01*
X297340Y90943D01*
X298709Y89159D01*
X300493Y87790D01*
X302571Y86930D01*
X303530Y86804D01*
Y93980D01*
D02*
G37*
G36*
X313246D02*
X306070D01*
Y86804D01*
X307029Y86930D01*
X309107Y87790D01*
X310891Y89159D01*
X312260Y90943D01*
X313120Y93021D01*
X313246Y93980D01*
D02*
G37*
G36*
X442134Y95884D02*
X435864D01*
Y86614D01*
X442134D01*
Y95884D01*
D02*
G37*
G36*
X220472Y104118D02*
X218243Y103824D01*
X216165Y102964D01*
X214381Y101595D01*
X213012Y99811D01*
X212152Y97733D01*
X211858Y95504D01*
X212152Y93275D01*
X213012Y91197D01*
X214381Y89413D01*
X216165Y88044D01*
X218243Y87184D01*
X220472Y86890D01*
X222701Y87184D01*
X224779Y88044D01*
X226563Y89413D01*
X227262Y90324D01*
X277495D01*
X278389Y89159D01*
X280173Y87790D01*
X282251Y86930D01*
X284480Y86636D01*
X286709Y86930D01*
X288787Y87790D01*
X290571Y89159D01*
X291940Y90943D01*
X292800Y93021D01*
X293094Y95250D01*
X292800Y97479D01*
X291940Y99557D01*
X290571Y101341D01*
X288787Y102710D01*
X286709Y103570D01*
X284480Y103864D01*
X282251Y103570D01*
X280173Y102710D01*
X278389Y101341D01*
X277885Y100683D01*
X227262D01*
X226563Y101595D01*
X224779Y102964D01*
X222701Y103824D01*
X220472Y104118D01*
D02*
G37*
G36*
X536320Y58420D02*
X527050D01*
Y52150D01*
X536320D01*
Y58420D01*
D02*
G37*
G36*
X543560Y52810D02*
X541331Y52516D01*
X539253Y51656D01*
X537469Y50287D01*
X536100Y48503D01*
X535240Y46425D01*
X534946Y44196D01*
X535240Y41967D01*
X536100Y39889D01*
X537469Y38105D01*
X539253Y36736D01*
X541331Y35876D01*
X543560Y35582D01*
X545789Y35876D01*
X547867Y36736D01*
X549651Y38105D01*
X551020Y39889D01*
X551880Y41967D01*
X552174Y44196D01*
X551880Y46425D01*
X551020Y48503D01*
X549651Y50287D01*
X547867Y51656D01*
X545789Y52516D01*
X543560Y52810D01*
D02*
G37*
G36*
X570230D02*
X568001Y52516D01*
X565923Y51656D01*
X564139Y50287D01*
X562770Y48503D01*
X561910Y46425D01*
X561616Y44196D01*
X561910Y41967D01*
X562770Y39889D01*
X564139Y38105D01*
X565923Y36736D01*
X568001Y35876D01*
X570230Y35582D01*
X572459Y35876D01*
X574537Y36736D01*
X576321Y38105D01*
X577690Y39889D01*
X578550Y41967D01*
X578844Y44196D01*
X578550Y46425D01*
X577690Y48503D01*
X576321Y50287D01*
X574537Y51656D01*
X572459Y52516D01*
X570230Y52810D01*
D02*
G37*
G36*
X628650Y38926D02*
X627691Y38800D01*
X625613Y37940D01*
X623829Y36571D01*
X622460Y34787D01*
X621600Y32709D01*
X621474Y31750D01*
X628650D01*
Y38926D01*
D02*
G37*
G36*
X631190D02*
Y31750D01*
X638367D01*
X638240Y32709D01*
X637380Y34787D01*
X636011Y36571D01*
X634227Y37940D01*
X632149Y38800D01*
X631190Y38926D01*
D02*
G37*
G36*
X128270Y44450D02*
X119581D01*
X119758Y43099D01*
X120770Y40657D01*
X122379Y38559D01*
X124477Y36950D01*
X126919Y35938D01*
X128270Y35761D01*
Y44450D01*
D02*
G37*
G36*
X130810Y55679D02*
Y46990D01*
X139499D01*
X139322Y48341D01*
X138310Y50783D01*
X136701Y52881D01*
X134603Y54490D01*
X132161Y55502D01*
X130810Y55679D01*
D02*
G37*
G36*
X524510Y58420D02*
X515240D01*
Y52150D01*
X524510D01*
Y58420D01*
D02*
G37*
G36*
X139499Y44450D02*
X130810D01*
Y35761D01*
X132161Y35938D01*
X134603Y36950D01*
X136701Y38559D01*
X138310Y40657D01*
X139322Y43099D01*
X139499Y44450D01*
D02*
G37*
G36*
X128270Y55679D02*
X126919Y55502D01*
X124477Y54490D01*
X122379Y52881D01*
X120770Y50783D01*
X119758Y48341D01*
X119581Y46990D01*
X128270D01*
Y55679D01*
D02*
G37*
G36*
X702050Y519001D02*
X669550D01*
X665866Y518638D01*
X662325Y517564D01*
X659060Y515819D01*
X656199Y513471D01*
X653851Y510610D01*
X652106Y507345D01*
X651032Y503803D01*
X650669Y500120D01*
Y467620D01*
X651032Y463937D01*
X652106Y460395D01*
X653851Y457130D01*
X656199Y454269D01*
X659060Y451921D01*
X662325Y450176D01*
X665866Y449102D01*
X669550Y448739D01*
X702050D01*
X705733Y449102D01*
X709275Y450176D01*
X712540Y451921D01*
X715401Y454269D01*
X717749Y457130D01*
X719494Y460395D01*
X720568Y463937D01*
X720931Y467620D01*
Y500120D01*
X720568Y503803D01*
X719494Y507345D01*
X717749Y510610D01*
X715401Y513471D01*
X712540Y515819D01*
X709275Y517564D01*
X705733Y518638D01*
X702050Y519001D01*
D02*
G37*
G36*
X165100Y474947D02*
X162479Y474602D01*
X160037Y473590D01*
X157939Y471981D01*
X156330Y469883D01*
X155318Y467441D01*
X154973Y464820D01*
X155318Y462199D01*
X156330Y459757D01*
X157939Y457659D01*
X160037Y456050D01*
X162479Y455038D01*
X165100Y454693D01*
X167721Y455038D01*
X170163Y456050D01*
X172261Y457659D01*
X173870Y459757D01*
X174882Y462199D01*
X175227Y464820D01*
X174882Y467441D01*
X173870Y469883D01*
X172261Y471981D01*
X170163Y473590D01*
X167721Y474602D01*
X165100Y474947D01*
D02*
G37*
G36*
X578423Y453644D02*
X571246D01*
Y446468D01*
X572205Y446594D01*
X574283Y447454D01*
X576067Y448823D01*
X577436Y450607D01*
X578296Y452685D01*
X578423Y453644D01*
D02*
G37*
G36*
X67050Y519001D02*
X34550D01*
X30866Y518638D01*
X27325Y517564D01*
X24060Y515819D01*
X21199Y513471D01*
X18851Y510610D01*
X17106Y507345D01*
X16032Y503803D01*
X15669Y500120D01*
Y467620D01*
X16032Y463937D01*
X17106Y460395D01*
X18851Y457130D01*
X21199Y454269D01*
X24060Y451921D01*
X27325Y450176D01*
X30866Y449102D01*
X34550Y448739D01*
X67050D01*
X70733Y449102D01*
X74275Y450176D01*
X77540Y451921D01*
X80401Y454269D01*
X82749Y457130D01*
X84494Y460395D01*
X85568Y463937D01*
X85931Y467620D01*
Y500120D01*
X85568Y503803D01*
X84494Y507345D01*
X82749Y510610D01*
X80401Y513471D01*
X77540Y515819D01*
X74275Y517564D01*
X70733Y518638D01*
X67050Y519001D01*
D02*
G37*
G36*
X568706Y463360D02*
X567747Y463234D01*
X565669Y462374D01*
X563885Y461005D01*
X562516Y459221D01*
X561656Y457143D01*
X561530Y456184D01*
X568706D01*
Y463360D01*
D02*
G37*
G36*
X643447Y481330D02*
X636270D01*
Y474154D01*
X637229Y474280D01*
X639307Y475140D01*
X641091Y476509D01*
X642460Y478293D01*
X643320Y480371D01*
X643447Y481330D01*
D02*
G37*
G36*
X633730Y491046D02*
X632771Y490920D01*
X630693Y490060D01*
X628909Y488691D01*
X627540Y486907D01*
X626680Y484829D01*
X626553Y483870D01*
X633730D01*
Y491046D01*
D02*
G37*
G36*
X571246Y463360D02*
Y456184D01*
X578423D01*
X578296Y457143D01*
X577436Y459221D01*
X576067Y461005D01*
X574283Y462374D01*
X572205Y463234D01*
X571246Y463360D01*
D02*
G37*
G36*
X633730Y481330D02*
X626553D01*
X626680Y480371D01*
X627540Y478293D01*
X628909Y476509D01*
X630693Y475140D01*
X632771Y474280D01*
X633730Y474154D01*
Y481330D01*
D02*
G37*
G36*
X568706Y453644D02*
X561530D01*
X561656Y452685D01*
X562516Y450607D01*
X563885Y448823D01*
X565669Y447454D01*
X567747Y446594D01*
X568706Y446468D01*
Y453644D01*
D02*
G37*
G36*
X464552Y441198D02*
X458282D01*
Y431928D01*
X464552D01*
Y441198D01*
D02*
G37*
G36*
X473362D02*
X467092D01*
Y431928D01*
X473362D01*
Y441198D01*
D02*
G37*
G36*
X411480Y433134D02*
X410521Y433008D01*
X408443Y432148D01*
X406659Y430779D01*
X405290Y428995D01*
X404430Y426917D01*
X404304Y425958D01*
X411480D01*
Y433134D01*
D02*
G37*
G36*
X414020D02*
Y425958D01*
X421197D01*
X421070Y426917D01*
X420210Y428995D01*
X418841Y430779D01*
X417057Y432148D01*
X414979Y433008D01*
X414020Y433134D01*
D02*
G37*
G36*
X519176Y442279D02*
X518217Y442152D01*
X516139Y441292D01*
X514355Y439923D01*
X512986Y438139D01*
X512126Y436061D01*
X512000Y435102D01*
X519176D01*
Y442279D01*
D02*
G37*
G36*
X464552Y453008D02*
X458282D01*
Y443738D01*
X464552D01*
Y453008D01*
D02*
G37*
G36*
X473362D02*
X467092D01*
Y443738D01*
X473362D01*
Y453008D01*
D02*
G37*
G36*
X521716Y442279D02*
Y435102D01*
X528893D01*
X528766Y436061D01*
X527906Y438139D01*
X526537Y439923D01*
X524753Y441292D01*
X522675Y442152D01*
X521716Y442279D01*
D02*
G37*
G36*
X432308Y478768D02*
X430079Y478474D01*
X428001Y477614D01*
X426217Y476245D01*
X424848Y474461D01*
X423988Y472383D01*
X423694Y470154D01*
X423988Y467925D01*
X424848Y465847D01*
X426217Y464063D01*
X428001Y462694D01*
X428423Y462519D01*
Y454420D01*
X428003Y454246D01*
X426219Y452877D01*
X424850Y451093D01*
X423990Y449015D01*
X423696Y446786D01*
X423990Y444557D01*
X424850Y442479D01*
X426219Y440695D01*
X428003Y439326D01*
X430081Y438466D01*
X432310Y438172D01*
X434539Y438466D01*
X436617Y439326D01*
X438401Y440695D01*
X439770Y442479D01*
X440630Y444557D01*
X440924Y446786D01*
X440630Y449015D01*
X439770Y451093D01*
X438401Y452877D01*
X436617Y454246D01*
X436193Y454421D01*
Y462519D01*
X436615Y462694D01*
X438399Y464063D01*
X439768Y465847D01*
X440628Y467925D01*
X440922Y470154D01*
X440628Y472383D01*
X439768Y474461D01*
X438399Y476245D01*
X436615Y477614D01*
X434537Y478474D01*
X432308Y478768D01*
D02*
G37*
G36*
X636270Y491046D02*
Y483870D01*
X643447D01*
X643320Y484829D01*
X642460Y486907D01*
X641091Y488691D01*
X639307Y490060D01*
X637229Y490920D01*
X636270Y491046D01*
D02*
G37*
G36*
X447040Y520910D02*
X444027Y520513D01*
X441220Y519350D01*
X438810Y517500D01*
X436960Y515090D01*
X435797Y512282D01*
X435400Y509270D01*
X435797Y506258D01*
X436599Y504322D01*
X382693Y450417D01*
X282208D01*
X282034Y450839D01*
X280665Y452623D01*
X278881Y453992D01*
X278216Y454267D01*
X278486Y456320D01*
X279851Y456500D01*
X281929Y457360D01*
X283713Y458729D01*
X285082Y460513D01*
X285257Y460935D01*
X377190D01*
X378677Y461231D01*
X379937Y462073D01*
X416692Y498829D01*
X418628Y498027D01*
X421640Y497630D01*
X424652Y498027D01*
X427460Y499190D01*
X429870Y501040D01*
X431720Y503450D01*
X432883Y506258D01*
X433279Y509270D01*
X432883Y512282D01*
X431720Y515090D01*
X429870Y517500D01*
X427460Y519350D01*
X424652Y520513D01*
X421640Y520910D01*
X418628Y520513D01*
X415820Y519350D01*
X413410Y517500D01*
X411560Y515090D01*
X410397Y512282D01*
X410000Y509270D01*
X410397Y506258D01*
X411199Y504322D01*
X375581Y468705D01*
X285257D01*
X285082Y469127D01*
X283713Y470911D01*
X281929Y472280D01*
X279851Y473140D01*
X277622Y473434D01*
X275393Y473140D01*
X273315Y472280D01*
X271531Y470911D01*
X270162Y469127D01*
X269302Y467049D01*
X269008Y464820D01*
X269302Y462591D01*
X270162Y460513D01*
X271531Y458729D01*
X273315Y457360D01*
X273980Y457085D01*
X273710Y455032D01*
X272345Y454852D01*
X270267Y453992D01*
X268483Y452623D01*
X267114Y450839D01*
X266254Y448761D01*
X265960Y446532D01*
X266254Y444303D01*
X267114Y442225D01*
X268483Y440441D01*
X270267Y439072D01*
X270551Y438955D01*
X270154Y436955D01*
X208280D01*
X206793Y436659D01*
X205533Y435817D01*
X148702Y378985D01*
X148279Y379160D01*
X146050Y379454D01*
X143821Y379160D01*
X141743Y378300D01*
X139959Y376931D01*
X138590Y375147D01*
X137730Y373069D01*
X137436Y370840D01*
X137730Y368611D01*
X138590Y366533D01*
X139959Y364749D01*
X141743Y363380D01*
X143821Y362520D01*
X146050Y362226D01*
X148279Y362520D01*
X150357Y363380D01*
X152141Y364749D01*
X153510Y366533D01*
X154370Y368611D01*
X154664Y370840D01*
X154370Y373069D01*
X154195Y373492D01*
X209889Y429185D01*
X327487D01*
X328094Y427185D01*
X327707Y426927D01*
X291639Y390859D01*
X290797Y389599D01*
X290501Y388112D01*
Y341969D01*
X280137Y331604D01*
X278185Y331806D01*
X277508Y333545D01*
X278301Y335460D01*
X278445Y336550D01*
X260543D01*
X260687Y335460D01*
X261480Y333545D01*
X260701Y331545D01*
X239833D01*
X239117Y333545D01*
X239286Y333684D01*
X241166Y335974D01*
X242562Y338587D01*
X243422Y341422D01*
X243713Y344370D01*
X243422Y347318D01*
X242562Y350153D01*
X241166Y352766D01*
X239286Y355056D01*
X236996Y356936D01*
X234383Y358332D01*
X231548Y359192D01*
X228600Y359483D01*
X225652Y359192D01*
X222817Y358332D01*
X220204Y356936D01*
X217914Y355056D01*
X216034Y352766D01*
X214638Y350153D01*
X213778Y347318D01*
X213487Y344370D01*
X213778Y341422D01*
X214638Y338587D01*
X216034Y335974D01*
X217914Y333684D01*
X218083Y333545D01*
X217367Y331545D01*
X149945D01*
X136605Y344885D01*
X135345Y345727D01*
X133858Y346023D01*
X88138D01*
X86651Y345727D01*
X85391Y344885D01*
X30348Y289841D01*
X28412Y290643D01*
X25400Y291040D01*
X22387Y290643D01*
X19580Y289480D01*
X17170Y287630D01*
X15320Y285220D01*
X14157Y282412D01*
X13760Y279400D01*
X14157Y276388D01*
X15320Y273580D01*
X17170Y271170D01*
X19580Y269320D01*
X22387Y268157D01*
X25400Y267760D01*
X28412Y268157D01*
X31220Y269320D01*
X33630Y271170D01*
X35480Y273580D01*
X36643Y276388D01*
X37039Y279400D01*
X36643Y282412D01*
X35841Y284348D01*
X89747Y338253D01*
X111271D01*
X113158Y337980D01*
Y333577D01*
X103124D01*
X101637Y333281D01*
X100377Y332439D01*
X31672Y263733D01*
X31220Y264080D01*
X28412Y265243D01*
X25400Y265639D01*
X22387Y265243D01*
X19580Y264080D01*
X17170Y262230D01*
X15320Y259820D01*
X14157Y257013D01*
X13760Y254000D01*
X14157Y250987D01*
X15320Y248180D01*
X17170Y245770D01*
X19580Y243920D01*
X22387Y242757D01*
X25400Y242360D01*
X28412Y242757D01*
X31220Y243920D01*
X33630Y245770D01*
X35480Y248180D01*
X36643Y250987D01*
X37039Y254000D01*
X36643Y257013D01*
X36437Y257511D01*
X104733Y325807D01*
X113158D01*
Y322900D01*
X113158Y322900D01*
X113158D01*
X112455Y321157D01*
X112174Y320791D01*
X111314Y318713D01*
X111020Y316484D01*
X111314Y314255D01*
X112174Y312177D01*
X113543Y310393D01*
X115327Y309024D01*
X117405Y308164D01*
X119634Y307870D01*
X121863Y308164D01*
X123941Y309024D01*
X125725Y310393D01*
X127094Y312177D01*
X127268Y312599D01*
X137521D01*
X138507Y310599D01*
X138336Y310377D01*
X137476Y308299D01*
X137182Y306070D01*
X137476Y303841D01*
X138336Y301763D01*
X139705Y299979D01*
X141489Y298610D01*
X143567Y297750D01*
X145796Y297456D01*
X148025Y297750D01*
X150103Y298610D01*
X151887Y299979D01*
X153256Y301763D01*
X154116Y303841D01*
X154410Y306070D01*
X155681Y307519D01*
X164030D01*
X164796Y305672D01*
X148448Y289323D01*
X148025Y289498D01*
X145796Y289792D01*
X143567Y289498D01*
X141489Y288638D01*
X139705Y287269D01*
X138336Y285485D01*
X137476Y283407D01*
X137182Y281178D01*
X137476Y278949D01*
X138336Y276871D01*
X139705Y275087D01*
X141489Y273718D01*
X143567Y272858D01*
X143712Y272839D01*
X143581Y270839D01*
X77724D01*
X76237Y270543D01*
X74977Y269701D01*
X38129Y232853D01*
X36021Y233113D01*
X35480Y234420D01*
X33630Y236830D01*
X31220Y238680D01*
X28412Y239843D01*
X25400Y240240D01*
X22387Y239843D01*
X19580Y238680D01*
X17170Y236830D01*
X15320Y234420D01*
X14157Y231612D01*
X13760Y228600D01*
X14157Y225588D01*
X15320Y222780D01*
X17170Y220370D01*
X19580Y218520D01*
X22387Y217357D01*
X25400Y216960D01*
X28412Y217357D01*
X31220Y218520D01*
X33630Y220370D01*
X35480Y222780D01*
X36282Y224715D01*
X39370D01*
X40857Y225011D01*
X42117Y225853D01*
X79333Y263069D01*
X102457D01*
X102469Y263055D01*
X103176Y261069D01*
X30348Y188241D01*
X28412Y189043D01*
X25400Y189440D01*
X22387Y189043D01*
X19580Y187880D01*
X17170Y186030D01*
X15320Y183620D01*
X14157Y180812D01*
X13760Y177800D01*
X14157Y174788D01*
X15320Y171980D01*
X17170Y169570D01*
X19580Y167720D01*
X22387Y166557D01*
X25400Y166160D01*
X28412Y166557D01*
X31220Y167720D01*
X33630Y169570D01*
X35480Y171980D01*
X36643Y174788D01*
X37039Y177800D01*
X36643Y180812D01*
X35841Y182748D01*
X108035Y254941D01*
X119619D01*
X120448Y252941D01*
X30348Y162841D01*
X28412Y163643D01*
X25400Y164039D01*
X22387Y163643D01*
X19580Y162480D01*
X17170Y160630D01*
X15320Y158220D01*
X14157Y155413D01*
X13760Y152400D01*
X14157Y149388D01*
X15320Y146580D01*
X17170Y144170D01*
X19580Y142320D01*
X22387Y141157D01*
X25400Y140760D01*
X28412Y141157D01*
X31220Y142320D01*
X33630Y144170D01*
X35480Y146580D01*
X36643Y149388D01*
X37039Y152400D01*
X36643Y155413D01*
X35841Y157348D01*
X115308Y236815D01*
X116920Y235690D01*
X115757Y232882D01*
X115528Y231140D01*
X125730D01*
Y241342D01*
X123988Y241113D01*
X121180Y239950D01*
X120055Y241562D01*
X126069Y247575D01*
X189907D01*
X202231Y235251D01*
X203491Y234409D01*
X204978Y234113D01*
X317429D01*
X318381Y232113D01*
X318343Y230523D01*
X318055Y230331D01*
X311346Y223622D01*
X309498Y224387D01*
Y231300D01*
X300228D01*
Y223760D01*
Y216220D01*
X301331D01*
X302097Y214372D01*
X295195Y207471D01*
X294353Y206211D01*
X294057Y204724D01*
Y189356D01*
X290402D01*
Y168276D01*
X305482D01*
X306249Y166594D01*
Y165539D01*
X305242Y163956D01*
X290162D01*
Y142876D01*
X305242D01*
Y149670D01*
X306033Y149827D01*
X307293Y150669D01*
X311999Y155375D01*
X312547Y155432D01*
X312669Y155416D01*
X313638Y155216D01*
X314073Y155034D01*
X314303Y154861D01*
X314445Y154690D01*
X314653Y154379D01*
X314765Y154304D01*
X314851Y154200D01*
X317171Y152315D01*
Y144357D01*
X312335Y139521D01*
X289899D01*
X285825Y143595D01*
Y213854D01*
X285529Y215341D01*
X284687Y216601D01*
X282320Y218968D01*
Y231554D01*
X261240D01*
Y216474D01*
X273826D01*
X278055Y212245D01*
Y141986D01*
X278351Y140499D01*
X279193Y139239D01*
X285543Y132889D01*
X286803Y132047D01*
X288290Y131751D01*
X313944D01*
X315431Y132047D01*
X316691Y132889D01*
X323803Y140001D01*
X324645Y141261D01*
X324941Y142748D01*
Y150318D01*
X349195D01*
Y126029D01*
X348678Y125814D01*
X347364Y124806D01*
X346356Y123492D01*
X345722Y121962D01*
X345506Y120320D01*
Y107820D01*
X345722Y106178D01*
X346356Y104648D01*
X347364Y103334D01*
X348678Y102326D01*
X349195Y102111D01*
Y95884D01*
X348314D01*
Y74804D01*
X363394D01*
Y95884D01*
X362005D01*
Y102111D01*
X362522Y102326D01*
X363836Y103334D01*
X364844Y104648D01*
X365478Y106178D01*
X365694Y107820D01*
Y120320D01*
X365478Y121962D01*
X364844Y123492D01*
X363836Y124806D01*
X362522Y125814D01*
X362005Y126029D01*
Y150318D01*
X520641D01*
Y148270D01*
X515240D01*
Y133190D01*
X536320D01*
Y148270D01*
X530919D01*
Y150318D01*
X539496D01*
X540487Y150515D01*
X541327Y151077D01*
X546153Y155903D01*
X546715Y156743D01*
X546912Y157734D01*
Y232156D01*
X546715Y233147D01*
X546153Y233987D01*
X522531Y257609D01*
X521691Y258171D01*
X520700Y258368D01*
X427866Y258368D01*
X426880Y260368D01*
X427460Y261123D01*
X428320Y263201D01*
X428614Y265430D01*
X428320Y267659D01*
X428145Y268082D01*
X430245Y270181D01*
X541189D01*
X576251Y235119D01*
Y167894D01*
X576547Y166407D01*
X577389Y165147D01*
X591613Y150923D01*
X592873Y150081D01*
X594360Y149785D01*
X598718D01*
X599520Y147850D01*
X601370Y145440D01*
X603780Y143590D01*
X606587Y142427D01*
X609600Y142030D01*
X612612Y142427D01*
X615420Y143590D01*
X617830Y145440D01*
X619680Y147850D01*
X619703Y147906D01*
X701097D01*
X701120Y147850D01*
X702970Y145440D01*
X705380Y143590D01*
X708187Y142427D01*
X711200Y142030D01*
X714212Y142427D01*
X717020Y143590D01*
X719430Y145440D01*
X721280Y147850D01*
X722443Y150658D01*
X722840Y153670D01*
X722443Y156683D01*
X721280Y159490D01*
X719430Y161900D01*
X717020Y163750D01*
X714212Y164913D01*
X711200Y165310D01*
X708187Y164913D01*
X705380Y163750D01*
X702970Y161900D01*
X701120Y159490D01*
X701097Y159434D01*
X619703D01*
X619680Y159490D01*
X617830Y161900D01*
X615420Y163750D01*
X612612Y164913D01*
X609600Y165310D01*
X606587Y164913D01*
X603780Y163750D01*
X601370Y161900D01*
X599520Y159490D01*
X598718Y157555D01*
X595969D01*
X584021Y169503D01*
Y183778D01*
X585868Y184543D01*
X594089Y176323D01*
X595349Y175481D01*
X596836Y175185D01*
X598718D01*
X599520Y173250D01*
X601370Y170840D01*
X603780Y168990D01*
X606587Y167827D01*
X609600Y167430D01*
X612612Y167827D01*
X615420Y168990D01*
X617830Y170840D01*
X619680Y173250D01*
X619703Y173306D01*
X701097D01*
X701120Y173250D01*
X702970Y170840D01*
X705380Y168990D01*
X708187Y167827D01*
X711200Y167430D01*
X714212Y167827D01*
X717020Y168990D01*
X719430Y170840D01*
X721280Y173250D01*
X722443Y176057D01*
X722840Y179070D01*
X722443Y182083D01*
X721280Y184890D01*
X719430Y187300D01*
X717020Y189150D01*
X714212Y190313D01*
X711200Y190709D01*
X708187Y190313D01*
X705380Y189150D01*
X702970Y187300D01*
X701120Y184890D01*
X701097Y184834D01*
X638885D01*
Y208265D01*
X639307Y208440D01*
X641091Y209809D01*
X642460Y211593D01*
X643320Y213671D01*
X643614Y215900D01*
X643320Y218129D01*
X642460Y220207D01*
X641091Y221991D01*
X639307Y223360D01*
X637229Y224220D01*
X635000Y224514D01*
X632771Y224220D01*
X630693Y223360D01*
X628909Y221991D01*
X627540Y220207D01*
X626680Y218129D01*
X626386Y215900D01*
X626680Y213671D01*
X627540Y211593D01*
X628909Y209809D01*
X630693Y208440D01*
X631115Y208265D01*
Y184834D01*
X619703D01*
X619680Y184890D01*
X617830Y187300D01*
X615420Y189150D01*
X612612Y190313D01*
X609600Y190709D01*
X606587Y190313D01*
X603780Y189150D01*
X601370Y187300D01*
X599520Y184890D01*
X599467Y184761D01*
X597107Y184292D01*
X590625Y190774D01*
Y240030D01*
X590329Y241517D01*
X589487Y242777D01*
X551230Y281034D01*
X551996Y282881D01*
X597069D01*
X678227Y201723D01*
X679487Y200881D01*
X680974Y200585D01*
X700318D01*
X701120Y198650D01*
X702970Y196240D01*
X705380Y194390D01*
X708187Y193227D01*
X711200Y192830D01*
X714212Y193227D01*
X717020Y194390D01*
X719430Y196240D01*
X721280Y198650D01*
X722443Y201458D01*
X722840Y204470D01*
X722443Y207482D01*
X721280Y210290D01*
X719430Y212700D01*
X717020Y214550D01*
X714212Y215713D01*
X711200Y216110D01*
X708187Y215713D01*
X705380Y214550D01*
X702970Y212700D01*
X701120Y210290D01*
X700318Y208355D01*
X682583D01*
X602253Y288685D01*
X601605Y289930D01*
X602233Y291378D01*
X605385Y294530D01*
X621140D01*
Y317610D01*
X603847D01*
X603082Y319458D01*
X604652Y321029D01*
X606587Y320227D01*
X609600Y319830D01*
X612612Y320227D01*
X615420Y321390D01*
X617830Y323240D01*
X619680Y325650D01*
X620843Y328457D01*
X621240Y331470D01*
X620843Y334482D01*
X619680Y337290D01*
X617830Y339700D01*
X615420Y341550D01*
X612612Y342713D01*
X609600Y343110D01*
X606587Y342713D01*
X603780Y341550D01*
X601370Y339700D01*
X599520Y337290D01*
X598357Y334482D01*
X597960Y331470D01*
X598357Y328457D01*
X599159Y326522D01*
X578273Y305637D01*
X566474D01*
X565708Y307484D01*
X604652Y346429D01*
X606587Y345627D01*
X609600Y345230D01*
X612612Y345627D01*
X615420Y346790D01*
X617830Y348640D01*
X619680Y351050D01*
X620843Y353857D01*
X621240Y356870D01*
X620843Y359883D01*
X619680Y362690D01*
X617830Y365100D01*
X615420Y366950D01*
X612612Y368113D01*
X609600Y368509D01*
X606587Y368113D01*
X603780Y366950D01*
X601370Y365100D01*
X599520Y362690D01*
X598357Y359883D01*
X597960Y356870D01*
X598357Y353857D01*
X599159Y351922D01*
X559223Y311987D01*
X452967D01*
X449780Y315173D01*
X450546Y317021D01*
X452560D01*
X454526Y317412D01*
X456194Y318526D01*
X457308Y320193D01*
X457699Y322160D01*
Y333160D01*
X457308Y335126D01*
X456194Y336794D01*
X454526Y337908D01*
X452560Y338299D01*
X447560D01*
X445593Y337908D01*
X443926Y336794D01*
X443831Y336651D01*
X441256Y336397D01*
X402993Y374660D01*
X403482Y375839D01*
X403827Y378460D01*
X403482Y381081D01*
X402470Y383523D01*
X400861Y385621D01*
X398763Y387230D01*
X396321Y388242D01*
X393700Y388587D01*
X391079Y388242D01*
X388637Y387230D01*
X386539Y385621D01*
X384930Y383523D01*
X383918Y381081D01*
X383573Y378460D01*
X383918Y375839D01*
X384930Y373397D01*
X386539Y371299D01*
X388637Y369690D01*
X391079Y368678D01*
X393700Y368333D01*
X396321Y368678D01*
X397500Y369167D01*
X404191Y362475D01*
X403206Y360632D01*
X402590Y360755D01*
X369316D01*
X367829Y360459D01*
X366569Y359617D01*
X361840Y354888D01*
X359993Y355653D01*
Y369316D01*
X359697Y370803D01*
X358855Y372063D01*
X352061Y378856D01*
X352236Y379279D01*
X352530Y381508D01*
X352236Y383737D01*
X351376Y385815D01*
X350007Y387599D01*
X348223Y388968D01*
X346145Y389828D01*
X345158Y389958D01*
X343862Y391991D01*
X343860Y392050D01*
X344300Y393111D01*
X344645Y395732D01*
X344300Y398353D01*
X343288Y400795D01*
X341679Y402893D01*
X339581Y404502D01*
X337139Y405514D01*
X334518Y405859D01*
X331897Y405514D01*
X329455Y404502D01*
X327357Y402893D01*
X326601Y401906D01*
X325982Y401988D01*
X325265Y404100D01*
X332063Y410897D01*
X354898D01*
X355073Y410475D01*
X356442Y408691D01*
X358226Y407322D01*
X360303Y406462D01*
X362533Y406168D01*
X364762Y406462D01*
X366839Y407322D01*
X368623Y408691D01*
X369075Y409280D01*
X369093Y409290D01*
X371532Y409197D01*
X372115Y408437D01*
X373899Y407068D01*
X375977Y406208D01*
X378206Y405914D01*
X380435Y406208D01*
X382513Y407068D01*
X384297Y408437D01*
X384692Y408953D01*
X387214D01*
X387609Y408437D01*
X389393Y407068D01*
X391471Y406208D01*
X393700Y405914D01*
X395929Y406208D01*
X397340Y406792D01*
X398023Y406295D01*
X398772Y405220D01*
X398080Y403549D01*
X397786Y401320D01*
X398080Y399091D01*
X398940Y397013D01*
X400309Y395229D01*
X402093Y393860D01*
X404171Y393000D01*
X406400Y392706D01*
X408629Y393000D01*
X410707Y393860D01*
X412491Y395229D01*
X413860Y397013D01*
X414035Y397435D01*
X429044D01*
Y384535D01*
X427044Y384137D01*
X426560Y385307D01*
X425191Y387091D01*
X423407Y388460D01*
X421329Y389320D01*
X420370Y389446D01*
Y381000D01*
Y372553D01*
X421329Y372680D01*
X423407Y373540D01*
X425191Y374909D01*
X426560Y376693D01*
X427044Y377863D01*
X429044Y377465D01*
Y352872D01*
X464124D01*
Y370273D01*
X464566D01*
X466533Y370664D01*
X468200Y371778D01*
X499202Y402780D01*
X500316Y404448D01*
X500628Y406020D01*
X503108D01*
Y408103D01*
X505191D01*
X505366Y407681D01*
X506735Y405897D01*
X508519Y404528D01*
X510597Y403668D01*
X512826Y403374D01*
X515055Y403668D01*
X517133Y404528D01*
X518917Y405897D01*
X520286Y407681D01*
X521146Y409759D01*
X521440Y411988D01*
X521146Y414217D01*
X520286Y416295D01*
X518917Y418079D01*
X517133Y419448D01*
X515055Y420308D01*
X512826Y420602D01*
X510597Y420308D01*
X508519Y419448D01*
X506735Y418079D01*
X505366Y416295D01*
X505191Y415873D01*
X503108D01*
Y427100D01*
X500961D01*
Y431928D01*
X503362D01*
Y453008D01*
X488282D01*
Y431928D01*
X490683D01*
Y427100D01*
X488028D01*
Y406141D01*
X465972Y384085D01*
X464124Y384850D01*
Y397952D01*
X436754D01*
X435926Y399952D01*
X451819Y415845D01*
X452661Y417105D01*
X452957Y418592D01*
Y459561D01*
X459919Y466523D01*
X525601D01*
X532309Y459815D01*
Y420866D01*
X531933Y420816D01*
X529855Y419956D01*
X528071Y418587D01*
X526702Y416803D01*
X525842Y414725D01*
X525548Y412496D01*
X525842Y410267D01*
X526702Y408189D01*
X528071Y406405D01*
X529855Y405036D01*
X531933Y404176D01*
X534162Y403882D01*
X536391Y404176D01*
X538469Y405036D01*
X540253Y406405D01*
X541622Y408189D01*
X542482Y410267D01*
X542776Y412496D01*
X542482Y414725D01*
X541622Y416803D01*
X540253Y418587D01*
X540079Y418720D01*
Y461424D01*
X539783Y462910D01*
X538941Y464171D01*
X529957Y473155D01*
X528696Y473997D01*
X527210Y474293D01*
X458310D01*
X456824Y473997D01*
X455563Y473155D01*
X446325Y463917D01*
X445483Y462656D01*
X445187Y461170D01*
Y420201D01*
X430191Y405205D01*
X414035D01*
X413860Y405627D01*
X412491Y407411D01*
X410707Y408780D01*
X408629Y409640D01*
X406400Y409934D01*
X404171Y409640D01*
X402760Y409056D01*
X402077Y409553D01*
X401328Y410628D01*
X402020Y412299D01*
X402314Y414528D01*
X402020Y416757D01*
X401160Y418835D01*
X399791Y420619D01*
X398007Y421988D01*
X395929Y422848D01*
X393700Y423142D01*
X392739Y423015D01*
X379937Y435817D01*
X378677Y436659D01*
X377190Y436955D01*
X278995D01*
X278597Y438955D01*
X278881Y439072D01*
X280665Y440441D01*
X282034Y442225D01*
X282208Y442647D01*
X384302D01*
X385789Y442943D01*
X387049Y443785D01*
X442092Y498829D01*
X444027Y498027D01*
X447040Y497630D01*
X450052Y498027D01*
X452860Y499190D01*
X455270Y501040D01*
X457120Y503450D01*
X458283Y506258D01*
X458680Y509270D01*
X458283Y512282D01*
X457120Y515090D01*
X455270Y517500D01*
X452860Y519350D01*
X450052Y520513D01*
X447040Y520910D01*
D02*
G37*
G36*
X472440D02*
X469427Y520513D01*
X466620Y519350D01*
X464210Y517500D01*
X462360Y515090D01*
X461197Y512282D01*
X460800Y509270D01*
X461197Y506258D01*
X462360Y503450D01*
X464210Y501040D01*
X466620Y499190D01*
X469427Y498027D01*
X472440Y497630D01*
X475452Y498027D01*
X478260Y499190D01*
X480670Y501040D01*
X482520Y503450D01*
X483683Y506258D01*
X484080Y509270D01*
X483683Y512282D01*
X482520Y515090D01*
X480670Y517500D01*
X478260Y519350D01*
X475452Y520513D01*
X472440Y520910D01*
D02*
G37*
G36*
X355600D02*
X352588Y520513D01*
X349780Y519350D01*
X347370Y517500D01*
X345520Y515090D01*
X344357Y512282D01*
X343960Y509270D01*
X344357Y506258D01*
X345520Y503450D01*
X347370Y501040D01*
X349780Y499190D01*
X352588Y498027D01*
X355600Y497630D01*
X358613Y498027D01*
X361420Y499190D01*
X363830Y501040D01*
X365680Y503450D01*
X366843Y506258D01*
X367239Y509270D01*
X366843Y512282D01*
X365680Y515090D01*
X363830Y517500D01*
X361420Y519350D01*
X358613Y520513D01*
X355600Y520910D01*
D02*
G37*
G36*
X381000D02*
X377988Y520513D01*
X375180Y519350D01*
X372770Y517500D01*
X370920Y515090D01*
X369757Y512282D01*
X369361Y509270D01*
X369757Y506258D01*
X370920Y503450D01*
X372770Y501040D01*
X375180Y499190D01*
X377988Y498027D01*
X381000Y497630D01*
X384012Y498027D01*
X386820Y499190D01*
X389230Y501040D01*
X391080Y503450D01*
X392243Y506258D01*
X392640Y509270D01*
X392243Y512282D01*
X391080Y515090D01*
X389230Y517500D01*
X386820Y519350D01*
X384012Y520513D01*
X381000Y520910D01*
D02*
G37*
G36*
X497840D02*
X494827Y520513D01*
X492020Y519350D01*
X489610Y517500D01*
X487760Y515090D01*
X486597Y512282D01*
X486200Y509270D01*
X486597Y506258D01*
X487760Y503450D01*
X489610Y501040D01*
X492020Y499190D01*
X494827Y498027D01*
X497840Y497630D01*
X500853Y498027D01*
X503660Y499190D01*
X506070Y501040D01*
X507920Y503450D01*
X509083Y506258D01*
X509480Y509270D01*
X509083Y512282D01*
X507920Y515090D01*
X506070Y517500D01*
X503660Y519350D01*
X500853Y520513D01*
X497840Y520910D01*
D02*
G37*
G36*
X574040D02*
X571027Y520513D01*
X568220Y519350D01*
X565810Y517500D01*
X563960Y515090D01*
X562797Y512282D01*
X562400Y509270D01*
X562797Y506258D01*
X563960Y503450D01*
X565810Y501040D01*
X568220Y499190D01*
X571027Y498027D01*
X574040Y497630D01*
X577052Y498027D01*
X579860Y499190D01*
X582270Y501040D01*
X584120Y503450D01*
X585283Y506258D01*
X585680Y509270D01*
X585283Y512282D01*
X584120Y515090D01*
X582270Y517500D01*
X579860Y519350D01*
X577052Y520513D01*
X574040Y520910D01*
D02*
G37*
G36*
X599440D02*
X596427Y520513D01*
X593620Y519350D01*
X591210Y517500D01*
X589360Y515090D01*
X588197Y512282D01*
X587800Y509270D01*
X588197Y506258D01*
X589360Y503450D01*
X591210Y501040D01*
X593620Y499190D01*
X596427Y498027D01*
X599440Y497630D01*
X602453Y498027D01*
X605260Y499190D01*
X607670Y501040D01*
X609520Y503450D01*
X610683Y506258D01*
X611079Y509270D01*
X610683Y512282D01*
X609520Y515090D01*
X607670Y517500D01*
X605260Y519350D01*
X602453Y520513D01*
X599440Y520910D01*
D02*
G37*
G36*
X523240D02*
X520228Y520513D01*
X517420Y519350D01*
X515010Y517500D01*
X513160Y515090D01*
X511997Y512282D01*
X511600Y509270D01*
X511997Y506258D01*
X513160Y503450D01*
X515010Y501040D01*
X517420Y499190D01*
X520228Y498027D01*
X523240Y497630D01*
X526253Y498027D01*
X529060Y499190D01*
X531470Y501040D01*
X533320Y503450D01*
X534483Y506258D01*
X534879Y509270D01*
X534483Y512282D01*
X533320Y515090D01*
X531470Y517500D01*
X529060Y519350D01*
X526253Y520513D01*
X523240Y520910D01*
D02*
G37*
G36*
X548640D02*
X545628Y520513D01*
X542820Y519350D01*
X540410Y517500D01*
X538560Y515090D01*
X537397Y512282D01*
X537000Y509270D01*
X537397Y506258D01*
X538560Y503450D01*
X540410Y501040D01*
X542820Y499190D01*
X545628Y498027D01*
X548640Y497630D01*
X551652Y498027D01*
X554460Y499190D01*
X556870Y501040D01*
X558720Y503450D01*
X559883Y506258D01*
X560280Y509270D01*
X559883Y512282D01*
X558720Y515090D01*
X556870Y517500D01*
X554460Y519350D01*
X551652Y520513D01*
X548640Y520910D01*
D02*
G37*
G36*
X330200D02*
X327188Y520513D01*
X324380Y519350D01*
X321970Y517500D01*
X320120Y515090D01*
X318957Y512282D01*
X318560Y509270D01*
X318957Y506258D01*
X320120Y503450D01*
X321970Y501040D01*
X324380Y499190D01*
X327188Y498027D01*
X330200Y497630D01*
X333213Y498027D01*
X336020Y499190D01*
X338430Y501040D01*
X340280Y503450D01*
X341443Y506258D01*
X341839Y509270D01*
X341443Y512282D01*
X340280Y515090D01*
X338430Y517500D01*
X336020Y519350D01*
X333213Y520513D01*
X330200Y520910D01*
D02*
G37*
G36*
X105410Y501207D02*
X104451Y501080D01*
X102373Y500220D01*
X100589Y498851D01*
X99220Y497067D01*
X98360Y494989D01*
X98233Y494030D01*
X105410D01*
Y501207D01*
D02*
G37*
G36*
X107950D02*
Y494030D01*
X115126D01*
X115000Y494989D01*
X114140Y497067D01*
X112771Y498851D01*
X110987Y500220D01*
X108909Y501080D01*
X107950Y501207D01*
D02*
G37*
G36*
X105410Y491490D02*
X98233D01*
X98360Y490531D01*
X99220Y488453D01*
X100589Y486669D01*
X102373Y485300D01*
X104451Y484440D01*
X105410Y484314D01*
Y491490D01*
D02*
G37*
G36*
X115126D02*
X107950D01*
Y484314D01*
X108909Y484440D01*
X110987Y485300D01*
X112771Y486669D01*
X114140Y488453D01*
X115000Y490531D01*
X115126Y491490D01*
D02*
G37*
G36*
X203200Y520910D02*
X200187Y520513D01*
X197380Y519350D01*
X194970Y517500D01*
X193120Y515090D01*
X191957Y512282D01*
X191560Y509270D01*
X191957Y506258D01*
X193120Y503450D01*
X194970Y501040D01*
X197380Y499190D01*
X200187Y498027D01*
X203200Y497630D01*
X206213Y498027D01*
X209020Y499190D01*
X211430Y501040D01*
X213280Y503450D01*
X214443Y506258D01*
X214839Y509270D01*
X214443Y512282D01*
X213280Y515090D01*
X211430Y517500D01*
X209020Y519350D01*
X206213Y520513D01*
X203200Y520910D01*
D02*
G37*
G36*
X279400D02*
X276388Y520513D01*
X273580Y519350D01*
X271170Y517500D01*
X269320Y515090D01*
X268157Y512282D01*
X267760Y509270D01*
X268157Y506258D01*
X269320Y503450D01*
X271170Y501040D01*
X273580Y499190D01*
X276388Y498027D01*
X279400Y497630D01*
X282412Y498027D01*
X285220Y499190D01*
X287630Y501040D01*
X289480Y503450D01*
X290643Y506258D01*
X291040Y509270D01*
X290643Y512282D01*
X289480Y515090D01*
X287630Y517500D01*
X285220Y519350D01*
X282412Y520513D01*
X279400Y520910D01*
D02*
G37*
G36*
X304800D02*
X301787Y520513D01*
X298980Y519350D01*
X296570Y517500D01*
X294720Y515090D01*
X293557Y512282D01*
X293160Y509270D01*
X293557Y506258D01*
X294720Y503450D01*
X296570Y501040D01*
X298980Y499190D01*
X301787Y498027D01*
X304800Y497630D01*
X307812Y498027D01*
X310620Y499190D01*
X313030Y501040D01*
X314880Y503450D01*
X316043Y506258D01*
X316439Y509270D01*
X316043Y512282D01*
X314880Y515090D01*
X313030Y517500D01*
X310620Y519350D01*
X307812Y520513D01*
X304800Y520910D01*
D02*
G37*
G36*
X228600D02*
X225588Y520513D01*
X222780Y519350D01*
X220370Y517500D01*
X218520Y515090D01*
X217357Y512282D01*
X216960Y509270D01*
X217357Y506258D01*
X218520Y503450D01*
X220370Y501040D01*
X222780Y499190D01*
X225588Y498027D01*
X228600Y497630D01*
X231612Y498027D01*
X234420Y499190D01*
X236830Y501040D01*
X238680Y503450D01*
X239843Y506258D01*
X240240Y509270D01*
X239843Y512282D01*
X238680Y515090D01*
X236830Y517500D01*
X234420Y519350D01*
X231612Y520513D01*
X228600Y520910D01*
D02*
G37*
G36*
X254000D02*
X250987Y520513D01*
X248180Y519350D01*
X245770Y517500D01*
X243920Y515090D01*
X242757Y512282D01*
X242360Y509270D01*
X242757Y506258D01*
X243920Y503450D01*
X245770Y501040D01*
X248180Y499190D01*
X250987Y498027D01*
X254000Y497630D01*
X257013Y498027D01*
X259820Y499190D01*
X262230Y501040D01*
X264080Y503450D01*
X265243Y506258D01*
X265639Y509270D01*
X265243Y512282D01*
X264080Y515090D01*
X262230Y517500D01*
X259820Y519350D01*
X257013Y520513D01*
X254000Y520910D01*
D02*
G37*
G36*
X25400Y367239D02*
X22387Y366843D01*
X19580Y365680D01*
X17170Y363830D01*
X15320Y361420D01*
X14157Y358613D01*
X13760Y355600D01*
X14157Y352588D01*
X15320Y349780D01*
X17170Y347370D01*
X19580Y345520D01*
X22387Y344357D01*
X25400Y343960D01*
X28412Y344357D01*
X31220Y345520D01*
X33630Y347370D01*
X35480Y349780D01*
X36643Y352588D01*
X37039Y355600D01*
X36643Y358613D01*
X35480Y361420D01*
X33630Y363830D01*
X31220Y365680D01*
X28412Y366843D01*
X25400Y367239D01*
D02*
G37*
G36*
X710800Y368509D02*
X707787Y368113D01*
X704980Y366950D01*
X702570Y365100D01*
X700720Y362690D01*
X699557Y359883D01*
X699161Y356870D01*
X699557Y353857D01*
X700720Y351050D01*
X702570Y348640D01*
X704980Y346790D01*
X707787Y345627D01*
X710800Y345230D01*
X713812Y345627D01*
X716620Y346790D01*
X719030Y348640D01*
X720880Y351050D01*
X722043Y353857D01*
X722440Y356870D01*
X722043Y359883D01*
X720880Y362690D01*
X719030Y365100D01*
X716620Y366950D01*
X713812Y368113D01*
X710800Y368509D01*
D02*
G37*
G36*
X270764Y346771D02*
Y339090D01*
X278445D01*
X278301Y340180D01*
X277390Y342379D01*
X275941Y344267D01*
X274053Y345716D01*
X271854Y346627D01*
X270764Y346771D01*
D02*
G37*
G36*
X505620Y338200D02*
X490540D01*
Y331545D01*
X487600D01*
Y338200D01*
X472520D01*
Y317120D01*
X487600D01*
Y323775D01*
X490540D01*
Y317120D01*
X505620D01*
Y338200D01*
D02*
G37*
G36*
X268224Y346771D02*
X267134Y346627D01*
X264935Y345716D01*
X263047Y344267D01*
X261598Y342379D01*
X260687Y340180D01*
X260543Y339090D01*
X268224D01*
Y346771D01*
D02*
G37*
G36*
X608330Y381000D02*
X598128D01*
X598357Y379258D01*
X599520Y376450D01*
X601370Y374040D01*
X603780Y372190D01*
X606587Y371027D01*
X608330Y370798D01*
Y381000D01*
D02*
G37*
G36*
X709530D02*
X699328D01*
X699557Y379258D01*
X700720Y376450D01*
X702570Y374040D01*
X704980Y372190D01*
X707787Y371027D01*
X709530Y370798D01*
Y381000D01*
D02*
G37*
G36*
X25400Y392640D02*
X22387Y392243D01*
X19580Y391080D01*
X17170Y389230D01*
X15320Y386820D01*
X14157Y384012D01*
X13760Y381000D01*
X14157Y377988D01*
X15320Y375180D01*
X17170Y372770D01*
X19580Y370920D01*
X22387Y369757D01*
X25400Y369361D01*
X28412Y369757D01*
X31220Y370920D01*
X33630Y372770D01*
X35480Y375180D01*
X36643Y377988D01*
X37039Y381000D01*
X36643Y384012D01*
X35480Y386820D01*
X33630Y389230D01*
X31220Y391080D01*
X28412Y392243D01*
X25400Y392640D01*
D02*
G37*
G36*
X123952Y405362D02*
X121723Y405068D01*
X119645Y404208D01*
X117861Y402839D01*
X116492Y401055D01*
X115632Y398977D01*
X115338Y396748D01*
X115632Y394519D01*
X116492Y392441D01*
X117861Y390657D01*
X118813Y389927D01*
Y367980D01*
X113158D01*
Y352900D01*
X134238D01*
Y367980D01*
X129091D01*
Y389927D01*
X130043Y390657D01*
X131412Y392441D01*
X132272Y394519D01*
X132566Y396748D01*
X132272Y398977D01*
X131412Y401055D01*
X130043Y402839D01*
X128259Y404208D01*
X126181Y405068D01*
X123952Y405362D01*
D02*
G37*
G36*
X97790Y404854D02*
X95561Y404560D01*
X93483Y403700D01*
X91699Y402331D01*
X90330Y400547D01*
X89470Y398469D01*
X89176Y396240D01*
X89470Y394011D01*
X90330Y391933D01*
X91699Y390149D01*
X92651Y389419D01*
Y378931D01*
X91699Y378201D01*
X90330Y376417D01*
X89470Y374339D01*
X89176Y372110D01*
X89470Y369881D01*
X90330Y367803D01*
X91699Y366019D01*
X93483Y364650D01*
X95561Y363790D01*
X97790Y363496D01*
X100019Y363790D01*
X102097Y364650D01*
X103881Y366019D01*
X105250Y367803D01*
X106110Y369881D01*
X106404Y372110D01*
X106110Y374339D01*
X105250Y376417D01*
X103881Y378201D01*
X102929Y378931D01*
Y389419D01*
X103881Y390149D01*
X105250Y391933D01*
X106110Y394011D01*
X106404Y396240D01*
X106110Y398469D01*
X105250Y400547D01*
X103881Y402331D01*
X102097Y403700D01*
X100019Y404560D01*
X97790Y404854D01*
D02*
G37*
G36*
X585470Y447769D02*
X582849Y447424D01*
X580407Y446412D01*
X578309Y444803D01*
X576700Y442705D01*
X575688Y440263D01*
X575343Y437642D01*
X575688Y435021D01*
X576700Y432579D01*
X578309Y430481D01*
X580331Y428930D01*
Y402395D01*
X567182D01*
X565215Y402004D01*
X563548Y400890D01*
X543209Y380551D01*
X534124D01*
Y397952D01*
X499044D01*
Y353813D01*
X486201D01*
X486026Y354235D01*
X484657Y356019D01*
X482873Y357388D01*
X480796Y358249D01*
X478566Y358542D01*
X476337Y358249D01*
X474259Y357388D01*
X472475Y356019D01*
X471106Y354235D01*
X470246Y352158D01*
X469953Y349929D01*
X470246Y347699D01*
X471106Y345622D01*
X472475Y343838D01*
X474259Y342469D01*
X476337Y341608D01*
X478566Y341315D01*
X480796Y341608D01*
X482873Y342469D01*
X484657Y343838D01*
X486026Y345622D01*
X486201Y346044D01*
X542968D01*
X544455Y346339D01*
X545715Y347182D01*
X565038Y366505D01*
X565461Y366330D01*
X567690Y366036D01*
X569919Y366330D01*
X571997Y367190D01*
X573781Y368559D01*
X575150Y370343D01*
X576010Y372421D01*
X576304Y374650D01*
X576010Y376879D01*
X575150Y378957D01*
X573781Y380741D01*
X571997Y382110D01*
X569919Y382970D01*
X567690Y383264D01*
X565461Y382970D01*
X563383Y382110D01*
X561599Y380741D01*
X560230Y378957D01*
X559370Y376879D01*
X559076Y374650D01*
X559370Y372421D01*
X559545Y371998D01*
X541359Y353813D01*
X534124D01*
Y370273D01*
X545338D01*
X547304Y370664D01*
X548972Y371778D01*
X569310Y392117D01*
X580331D01*
Y360255D01*
X579628Y359638D01*
X577268Y359327D01*
X575069Y358416D01*
X573181Y356967D01*
X571732Y355079D01*
X570821Y352880D01*
X570510Y350520D01*
X570821Y348160D01*
X571732Y345961D01*
X573181Y344073D01*
X575069Y342624D01*
X577268Y341713D01*
X579628Y341402D01*
X581988Y341713D01*
X584187Y342624D01*
X586075Y344073D01*
X587524Y345961D01*
X588435Y348160D01*
X588746Y350520D01*
X588531Y352155D01*
X589104Y352728D01*
X590218Y354395D01*
X590609Y356362D01*
Y397256D01*
Y428930D01*
X592631Y430481D01*
X593792Y431995D01*
X643540D01*
X652975Y422560D01*
Y317754D01*
X653366Y315788D01*
X654480Y314120D01*
X666164Y302436D01*
X667831Y301322D01*
X669798Y300931D01*
X699260D01*
Y294530D01*
X722340D01*
Y317610D01*
X699260D01*
Y311209D01*
X671926D01*
X663253Y319883D01*
Y424688D01*
X662862Y426655D01*
X661748Y428322D01*
X649302Y440768D01*
X647635Y441882D01*
X645668Y442273D01*
X594419D01*
X594240Y442705D01*
X592631Y444803D01*
X590533Y446412D01*
X588091Y447424D01*
X585470Y447769D01*
D02*
G37*
G36*
X526810Y326390D02*
X520540D01*
Y317120D01*
X526810D01*
Y326390D01*
D02*
G37*
G36*
X25400Y316439D02*
X22387Y316043D01*
X19580Y314880D01*
X17170Y313030D01*
X15320Y310620D01*
X14157Y307812D01*
X13760Y304800D01*
X14157Y301787D01*
X15320Y298980D01*
X17170Y296570D01*
X19580Y294720D01*
X22387Y293557D01*
X25400Y293160D01*
X28412Y293557D01*
X31220Y294720D01*
X33630Y296570D01*
X35480Y298980D01*
X36643Y301787D01*
X37039Y304800D01*
X36643Y307812D01*
X35480Y310620D01*
X33630Y313030D01*
X31220Y314880D01*
X28412Y316043D01*
X25400Y316439D01*
D02*
G37*
G36*
X712470Y241342D02*
Y231140D01*
X722672D01*
X722443Y232882D01*
X721280Y235690D01*
X719430Y238100D01*
X717020Y239950D01*
X714212Y241113D01*
X712470Y241342D01*
D02*
G37*
G36*
X647192Y281410D02*
X644963Y281116D01*
X642885Y280256D01*
X641101Y278887D01*
X639732Y277103D01*
X638872Y275025D01*
X638578Y272796D01*
X638872Y270567D01*
X639732Y268489D01*
X641101Y266705D01*
X642885Y265336D01*
X644963Y264476D01*
X647192Y264182D01*
X649421Y264476D01*
X651499Y265336D01*
X653283Y266705D01*
X654652Y268489D01*
X654827Y268911D01*
X665360D01*
X665640Y268235D01*
X667009Y266451D01*
X668793Y265082D01*
X670871Y264222D01*
X673100Y263928D01*
X675329Y264222D01*
X677407Y265082D01*
X679191Y266451D01*
X680560Y268235D01*
X681420Y270313D01*
X681714Y272542D01*
X681420Y274771D01*
X680560Y276849D01*
X679191Y278633D01*
X677407Y280002D01*
X675329Y280862D01*
X673100Y281156D01*
X670871Y280862D01*
X668793Y280002D01*
X667009Y278633D01*
X665640Y276849D01*
X665571Y276681D01*
X654827D01*
X654652Y277103D01*
X653283Y278887D01*
X651499Y280256D01*
X649421Y281116D01*
X647192Y281410D01*
D02*
G37*
G36*
X526810Y338200D02*
X520540D01*
Y328930D01*
X526810D01*
Y338200D01*
D02*
G37*
G36*
X535620D02*
X529350D01*
Y328930D01*
X535620D01*
Y338200D01*
D02*
G37*
G36*
X710800Y343110D02*
X707787Y342713D01*
X704980Y341550D01*
X702570Y339700D01*
X700720Y337290D01*
X699557Y334482D01*
X699161Y331470D01*
X699557Y328457D01*
X700720Y325650D01*
X702570Y323240D01*
X704980Y321390D01*
X707787Y320227D01*
X710800Y319830D01*
X713812Y320227D01*
X716620Y321390D01*
X719030Y323240D01*
X720880Y325650D01*
X722043Y328457D01*
X722440Y331470D01*
X722043Y334482D01*
X720880Y337290D01*
X719030Y339700D01*
X716620Y341550D01*
X713812Y342713D01*
X710800Y343110D01*
D02*
G37*
G36*
X535620Y326390D02*
X529350D01*
Y317120D01*
X535620D01*
Y326390D01*
D02*
G37*
G36*
X25400Y341839D02*
X22387Y341443D01*
X19580Y340280D01*
X17170Y338430D01*
X15320Y336020D01*
X14157Y333213D01*
X13760Y330200D01*
X14157Y327188D01*
X15320Y324380D01*
X17170Y321970D01*
X19580Y320120D01*
X22387Y318957D01*
X25400Y318560D01*
X28412Y318957D01*
X31220Y320120D01*
X33630Y321970D01*
X35480Y324380D01*
X36643Y327188D01*
X37039Y330200D01*
X36643Y333213D01*
X35480Y336020D01*
X33630Y338430D01*
X31220Y340280D01*
X28412Y341443D01*
X25400Y341839D01*
D02*
G37*
G36*
X473108Y415290D02*
X466838D01*
Y406020D01*
X473108D01*
Y415290D01*
D02*
G37*
G36*
X411480Y423418D02*
X404304D01*
X404430Y422459D01*
X405290Y420381D01*
X406659Y418597D01*
X408443Y417228D01*
X410521Y416368D01*
X411480Y416241D01*
Y423418D01*
D02*
G37*
G36*
X25400Y418040D02*
X22387Y417643D01*
X19580Y416480D01*
X17170Y414630D01*
X15320Y412220D01*
X14157Y409412D01*
X13760Y406400D01*
X14157Y403387D01*
X15320Y400580D01*
X17170Y398170D01*
X19580Y396320D01*
X22387Y395157D01*
X25400Y394760D01*
X28412Y395157D01*
X31220Y396320D01*
X33630Y398170D01*
X35480Y400580D01*
X36643Y403387D01*
X37039Y406400D01*
X36643Y409412D01*
X35480Y412220D01*
X33630Y414630D01*
X31220Y416480D01*
X28412Y417643D01*
X25400Y418040D01*
D02*
G37*
G36*
X464298Y415290D02*
X458028D01*
Y406020D01*
X464298D01*
Y415290D01*
D02*
G37*
G36*
X421197Y423418D02*
X414020D01*
Y416241D01*
X414979Y416368D01*
X417057Y417228D01*
X418841Y418597D01*
X420210Y420381D01*
X421070Y422459D01*
X421197Y423418D01*
D02*
G37*
G36*
X519176Y432562D02*
X512000D01*
X512126Y431603D01*
X512986Y429525D01*
X514355Y427741D01*
X516139Y426372D01*
X518217Y425512D01*
X519176Y425386D01*
Y432562D01*
D02*
G37*
G36*
X528893D02*
X521716D01*
Y425386D01*
X522675Y425512D01*
X524753Y426372D01*
X526537Y427741D01*
X527906Y429525D01*
X528766Y431603D01*
X528893Y432562D01*
D02*
G37*
G36*
X464298Y427100D02*
X458028D01*
Y417830D01*
X464298D01*
Y427100D01*
D02*
G37*
G36*
X473108D02*
X466838D01*
Y417830D01*
X473108D01*
Y427100D01*
D02*
G37*
G36*
X712070Y393742D02*
Y383540D01*
X722272D01*
X722043Y385283D01*
X720880Y388090D01*
X719030Y390500D01*
X716620Y392350D01*
X713812Y393513D01*
X712070Y393742D01*
D02*
G37*
G36*
X417830Y379730D02*
X410653D01*
X410780Y378771D01*
X411640Y376693D01*
X413009Y374909D01*
X414793Y373540D01*
X416871Y372680D01*
X417830Y372553D01*
Y379730D01*
D02*
G37*
G36*
X228600Y409883D02*
X225652Y409592D01*
X222817Y408732D01*
X220204Y407336D01*
X217914Y405456D01*
X216034Y403166D01*
X214638Y400553D01*
X213778Y397718D01*
X213487Y394770D01*
X213778Y391822D01*
X214638Y388987D01*
X216034Y386374D01*
X217914Y384084D01*
X220204Y382204D01*
X222817Y380808D01*
X225652Y379948D01*
X228600Y379657D01*
X231548Y379948D01*
X234383Y380808D01*
X236996Y382204D01*
X239286Y384084D01*
X241166Y386374D01*
X242562Y388987D01*
X243422Y391822D01*
X243713Y394770D01*
X243422Y397718D01*
X242562Y400553D01*
X241166Y403166D01*
X239286Y405456D01*
X236996Y407336D01*
X234383Y408732D01*
X231548Y409592D01*
X228600Y409883D01*
D02*
G37*
G36*
X621072Y381000D02*
X610870D01*
Y370798D01*
X612612Y371027D01*
X615420Y372190D01*
X617830Y374040D01*
X619680Y376450D01*
X620843Y379258D01*
X621072Y381000D01*
D02*
G37*
G36*
X722272D02*
X712070D01*
Y370798D01*
X713812Y371027D01*
X716620Y372190D01*
X719030Y374040D01*
X720880Y376450D01*
X722043Y379258D01*
X722272Y381000D01*
D02*
G37*
G36*
X417830Y389446D02*
X416871Y389320D01*
X414793Y388460D01*
X413009Y387091D01*
X411640Y385307D01*
X410780Y383229D01*
X410653Y382270D01*
X417830D01*
Y389446D01*
D02*
G37*
G36*
X709530Y393742D02*
X707787Y393513D01*
X704980Y392350D01*
X702570Y390500D01*
X700720Y388090D01*
X699557Y385283D01*
X699328Y383540D01*
X709530D01*
Y393742D01*
D02*
G37*
G36*
X610870D02*
Y383540D01*
X621072D01*
X620843Y385283D01*
X619680Y388090D01*
X617830Y390500D01*
X615420Y392350D01*
X612612Y393513D01*
X610870Y393742D01*
D02*
G37*
G36*
X608330D02*
X606587Y393513D01*
X603780Y392350D01*
X601370Y390500D01*
X599520Y388090D01*
X598357Y385283D01*
X598128Y383540D01*
X608330D01*
Y393742D01*
D02*
G37*
%LPD*%
G36*
X405130Y59690D02*
X379222D01*
X378500Y58968D01*
Y112776D01*
X405130D01*
Y59690D01*
D02*
G37*
G36*
X544322Y232156D02*
Y157734D01*
X539496Y152908D01*
X320548D01*
X316484Y156210D01*
X316484Y194564D01*
X377698Y255778D01*
X520700Y255778D01*
X544322Y232156D01*
D02*
G37*
D10*
X123698Y360440D02*
D03*
Y330440D02*
D03*
X383286Y279174D02*
D03*
Y249174D02*
D03*
X328930Y240044D02*
D03*
X525780Y89690D02*
D03*
Y59690D02*
D03*
Y140730D02*
D03*
Y110730D02*
D03*
X271780Y224014D02*
D03*
Y254014D02*
D03*
X298958Y223760D02*
D03*
Y253760D02*
D03*
X336042Y297674D02*
D03*
Y327674D02*
D03*
D11*
X328930Y210044D02*
D03*
D12*
X378500Y114070D02*
D03*
X332700D02*
D03*
X355600D02*
D03*
D13*
Y179070D02*
D03*
D14*
X434594Y85344D02*
D03*
X404594D02*
D03*
X297942Y178816D02*
D03*
X267942D02*
D03*
X297702Y153416D02*
D03*
X267702D02*
D03*
X325854Y85344D02*
D03*
X355854D02*
D03*
X495568Y416560D02*
D03*
X465568D02*
D03*
X465822Y442468D02*
D03*
X495822D02*
D03*
X528080Y327660D02*
D03*
X498080D02*
D03*
X480060D02*
D03*
D15*
X487172Y124968D02*
D03*
X417172D02*
D03*
X446584Y375412D02*
D03*
X516584D02*
D03*
D16*
X450060Y327660D02*
D03*
D17*
X281940Y95250D02*
X283210Y96520D01*
X281686Y95504D02*
X281940Y95250D01*
X220472Y95504D02*
X281686D01*
X283210Y96520D02*
X284480Y95250D01*
X444246Y294132D02*
X597662D01*
X609600Y306070D01*
X407670Y252730D02*
X415036D01*
X407670Y316230D02*
X422148D01*
X444246Y294132D01*
X371348Y326644D02*
X403606D01*
X407670Y322580D01*
Y252730D02*
Y316230D01*
Y322580D01*
D18*
X419608Y299466D02*
X432308Y286766D01*
X419100Y283210D02*
X421894Y280416D01*
X299212Y254014D02*
X300976Y255778D01*
X298958Y253760D02*
X299212Y254014D01*
Y264922D01*
X283464Y294386D02*
X315722Y262128D01*
X188722Y294386D02*
X283464D01*
X315722Y262128D02*
X330200D01*
X300976Y255778D02*
X337820D01*
X377190Y433070D02*
X393700Y416560D01*
X208280Y433070D02*
X377190D01*
X146050Y370840D02*
X208280Y433070D01*
X384302Y446532D02*
X447040Y509270D01*
X274574Y446532D02*
X384302D01*
X377190Y464820D02*
X421640Y509270D01*
X277622Y464820D02*
X377190D01*
X124460Y251460D02*
X191516D01*
X26670Y153670D02*
X124460Y251460D01*
X106426Y258826D02*
X194056D01*
X26670Y179070D02*
X106426Y258826D01*
X88138Y342138D02*
X133858D01*
X26670Y280670D02*
X88138Y342138D01*
X39370Y228600D02*
X77724Y266954D01*
X26670Y228600D02*
X39370D01*
X183388Y289052D02*
X188722Y294386D01*
X181102Y300482D02*
X286258D01*
X147574Y266954D02*
X181102Y300482D01*
X77724Y266954D02*
X147574D01*
X170434Y305816D02*
X296164D01*
X145796Y281178D02*
X170434Y305816D01*
X151130Y311404D02*
X299212D01*
X145796Y306070D02*
X151130Y311404D01*
X28702Y255270D02*
X103124Y329692D01*
X135382Y321818D02*
X287020D01*
X127508Y329692D02*
X135382Y321818D01*
X191516Y251460D02*
X204978Y237998D01*
X194056Y258826D02*
X204470Y248412D01*
X271780Y250190D02*
Y254014D01*
X249428Y261112D02*
X259080Y270764D01*
X233172Y261112D02*
X249428D01*
X330454Y424180D02*
X372110D01*
X294386Y388112D02*
X330454Y424180D01*
X294386Y340360D02*
Y388112D01*
X330454Y414782D02*
X362533D01*
X300228Y384556D02*
X330454Y414782D01*
X300228Y335026D02*
Y384556D01*
X594360Y153670D02*
X609600D01*
X596836Y179070D02*
X609600D01*
X586740Y189165D02*
X596836Y179070D01*
X586740Y189165D02*
Y240030D01*
X271780Y254014D02*
X275576D01*
X321056Y142748D02*
Y154940D01*
X313944Y135636D02*
X321056Y142748D01*
X288290Y135636D02*
X313944D01*
X281940Y141986D02*
X288290Y135636D01*
X281940Y141986D02*
Y213854D01*
X271780Y224014D02*
X281940Y213854D01*
X297702Y153416D02*
X304546D01*
X203200Y153670D02*
X203454Y153416D01*
X203200Y179070D02*
X203454Y178816D01*
X355600Y85598D02*
X355854Y85344D01*
X580136Y167894D02*
X594360Y153670D01*
X580136Y167894D02*
Y236728D01*
X560832Y308102D02*
X609600Y356870D01*
X281686Y327660D02*
X294386Y340360D01*
X287020Y321818D02*
X300228Y335026D01*
X299212Y311404D02*
X320040Y332232D01*
Y346710D01*
X326136Y358394D02*
X335280Y349250D01*
X314452Y358394D02*
X326136D01*
X293370Y316484D02*
X307086Y330200D01*
Y351028D01*
X314452Y358394D01*
X297942Y178816D02*
Y204724D01*
X320802Y227584D01*
X335534D01*
X337058Y237998D02*
X360934Y261874D01*
X336042Y327674D02*
Y333502D01*
X311150Y373634D02*
X324612D01*
X336042Y333502D02*
X345440Y342900D01*
Y352806D01*
X324612Y373634D02*
X345440Y352806D01*
X343916Y381508D02*
X356108Y369316D01*
Y302260D02*
Y369316D01*
Y302260D02*
X360934Y297434D01*
Y261874D02*
Y297434D01*
X344170Y367284D02*
X350520Y360934D01*
X372110Y424180D02*
X378206Y418084D01*
X314960Y271780D02*
X322580D01*
X119634Y316484D02*
X293370D01*
X133858Y342138D02*
X148336Y327660D01*
X281686D01*
X286258Y300482D02*
X314960Y271780D01*
X296164Y305816D02*
X315976Y286004D01*
X366014Y308102D02*
X366268Y308356D01*
X365252Y308864D02*
X366014Y308102D01*
X365252Y309372D02*
X366268Y308356D01*
X365252Y308864D02*
Y309372D01*
Y312420D01*
X680974Y204470D02*
X711200D01*
X647192Y272796D02*
X672846D01*
X673100Y272542D01*
X432308Y286766D02*
X598678D01*
X680974Y204470D01*
X421894Y280416D02*
X546354D01*
X586740Y240030D01*
X428636Y274066D02*
X542798D01*
X580136Y236728D01*
X579882Y301752D02*
X609600Y331470D01*
X337820Y255778D02*
X348996Y266954D01*
X309880Y243332D02*
X316230Y249682D01*
X339852D01*
X354584Y264414D01*
X350520Y296418D02*
Y360934D01*
Y296418D02*
X354584Y292354D01*
Y264414D02*
Y292354D01*
X336042Y297674D02*
X339866D01*
X348996Y288544D01*
Y266954D02*
Y288544D01*
X304546Y153416D02*
X310134Y159004D01*
Y209296D01*
X323088Y222250D01*
X337820D01*
X335534Y227584D02*
X383540Y275590D01*
Y297180D01*
X330200Y262128D02*
X339344Y271272D01*
X337820Y222250D02*
X379730Y264160D01*
X389890D01*
X397510Y271780D01*
Y310388D01*
X395478Y312420D02*
X397510Y310388D01*
X278638Y248412D02*
X283718Y243332D01*
X309880D01*
X361442Y313182D02*
Y348996D01*
X369316Y356870D01*
X449072Y461170D02*
X458310Y470408D01*
X631444Y180340D02*
X632714Y179070D01*
X25400Y280670D02*
X26670D01*
X25400Y229870D02*
X26670Y228600D01*
X25400Y179070D02*
X26670D01*
X204470Y248412D02*
X278638D01*
X25400Y153670D02*
X26670D01*
X204978Y237998D02*
X337058D01*
X25400Y255270D02*
X28702D01*
X103124Y329692D02*
X127508D01*
X534162Y412496D02*
X536194D01*
X635000Y179070D02*
Y215900D01*
X542968Y349929D02*
X567690Y374650D01*
X478566Y349929D02*
X542968D01*
X444500Y327660D02*
X450060D01*
X479820D02*
X480060D01*
X498080D01*
X369316Y356870D02*
X402590D01*
X451358Y308102D01*
X560832D01*
X361442Y313182D02*
X365252Y309372D01*
X383286Y345694D02*
X404368D01*
X448310Y301752D01*
X579882D01*
X378206Y414528D02*
Y418084D01*
X393700Y414528D02*
Y416560D01*
Y378460D02*
X444500Y327660D01*
X409924Y401320D02*
X431800D01*
X449072Y418592D01*
Y461170D01*
X432308Y446788D02*
X432310Y446786D01*
X432308Y446788D02*
Y470154D01*
X496824Y411988D02*
X512826D01*
X458310Y470408D02*
X527210D01*
X536194Y461424D01*
X406368Y404876D02*
X409924Y401320D01*
X536194Y412496D02*
Y461424D01*
X420000Y265430D02*
X428636Y274066D01*
D19*
X97790Y372110D02*
Y396240D01*
X495568Y406414D02*
Y416560D01*
X464566Y375412D02*
X495568Y406414D01*
X446584Y375412D02*
X464566D01*
X123952Y362690D02*
Y396748D01*
X203454Y153416D02*
X267702D01*
X203454Y178816D02*
X267942D01*
X323596Y395732D02*
X334518D01*
X525780Y140730D02*
Y158750D01*
X311150Y383286D02*
X323596Y395732D01*
X311150Y373634D02*
Y383286D01*
X658114Y317754D02*
X669798Y306070D01*
X710800D01*
X495822Y416814D02*
Y442468D01*
X495568Y416560D02*
X495822Y416814D01*
X579628Y350520D02*
X585470Y356362D01*
Y397256D01*
Y437134D01*
X645668D02*
X658114Y424688D01*
Y317754D02*
Y424688D01*
X516584Y375412D02*
X545338D01*
X567182Y397256D01*
X585470D01*
Y437134D02*
X645668D01*
D20*
X203200Y77470D02*
Y128270D01*
Y77470D02*
X221996Y58674D01*
X378206D01*
X378500Y58968D02*
Y114070D01*
X457200Y26670D02*
Y56896D01*
X127000Y128270D02*
Y153670D01*
X417172Y114070D02*
Y124968D01*
X127000Y128270D02*
X203200D01*
X355600Y114070D02*
Y156972D01*
X609600Y128270D02*
X711200D01*
X355600Y85598D02*
Y114070D01*
X378206Y58674D02*
X378500Y58968D01*
X457200Y56896D02*
X475234Y74930D01*
X556260D01*
X609600Y128270D01*
X378206Y58674D02*
X457200D01*
X525780Y89690D02*
Y110730D01*
X378500Y114070D02*
X417172D01*
D21*
X609600Y153670D02*
X711200D01*
X325854Y85344D02*
X332700Y92190D01*
Y114070D01*
X609600Y179070D02*
X632714D01*
X635000D01*
X711200D01*
D22*
X228600Y394770D02*
D03*
Y344370D02*
D03*
D23*
X203200Y128270D02*
D03*
X127000D02*
D03*
X710800Y306070D02*
D03*
X609600Y128270D02*
D03*
X711200D02*
D03*
X609600Y306070D02*
D03*
D24*
X203200Y153670D02*
D03*
Y179070D02*
D03*
Y204470D02*
D03*
X127000Y153670D02*
D03*
Y179070D02*
D03*
Y204470D02*
D03*
Y229870D02*
D03*
X710800Y382270D02*
D03*
Y356870D02*
D03*
Y331470D02*
D03*
X609600Y153670D02*
D03*
Y179070D02*
D03*
Y204470D02*
D03*
Y229870D02*
D03*
X711200Y153670D02*
D03*
Y179070D02*
D03*
Y204470D02*
D03*
Y229870D02*
D03*
X609600Y382270D02*
D03*
Y356870D02*
D03*
Y331470D02*
D03*
X25400Y254000D02*
D03*
Y279400D02*
D03*
Y304800D02*
D03*
Y330200D02*
D03*
Y355600D02*
D03*
Y228600D02*
D03*
Y203200D02*
D03*
Y177800D02*
D03*
Y152400D02*
D03*
Y127000D02*
D03*
Y381000D02*
D03*
Y406400D02*
D03*
X548640Y509270D02*
D03*
X574040D02*
D03*
X599440D02*
D03*
X523240D02*
D03*
X497840D02*
D03*
X472440D02*
D03*
X447040D02*
D03*
X421640D02*
D03*
X330200D02*
D03*
X355600D02*
D03*
X381000D02*
D03*
X304800D02*
D03*
X279400D02*
D03*
X254000D02*
D03*
X228600D02*
D03*
X203200D02*
D03*
X330200Y26670D02*
D03*
X355600D02*
D03*
X381000D02*
D03*
X406400D02*
D03*
X431800D02*
D03*
X304800D02*
D03*
X279400D02*
D03*
X254000D02*
D03*
X228600D02*
D03*
X203200D02*
D03*
X457200D02*
D03*
X508000D02*
D03*
X482600D02*
D03*
D25*
X685800Y52070D02*
D03*
X50800D02*
D03*
X685800Y483870D02*
D03*
X50800D02*
D03*
D26*
X299212Y264922D02*
D03*
X269494Y337820D02*
D03*
X371348Y326644D02*
D03*
X383286Y345694D02*
D03*
X579628Y350520D02*
D03*
X365252Y312420D02*
D03*
D27*
X274574Y446532D02*
D03*
X277622Y464820D02*
D03*
X543560Y44196D02*
D03*
X570230D02*
D03*
X146050Y370840D02*
D03*
X97790Y396240D02*
D03*
Y372110D02*
D03*
X183388Y289052D02*
D03*
X145796Y281178D02*
D03*
Y306070D02*
D03*
X233172Y261112D02*
D03*
X419100Y381000D02*
D03*
X123952Y396748D02*
D03*
X344170Y367284D02*
D03*
X343916Y381508D02*
D03*
X335280Y349250D02*
D03*
X320040Y346710D02*
D03*
X259080Y270764D02*
D03*
X220472Y95504D02*
D03*
X315976Y286004D02*
D03*
X311150Y373634D02*
D03*
X362533Y414782D02*
D03*
X322580Y271780D02*
D03*
X339344Y271272D02*
D03*
X420000Y265430D02*
D03*
Y283210D02*
D03*
Y299466D02*
D03*
X432308Y470154D02*
D03*
X567690Y374650D02*
D03*
X119634Y316484D02*
D03*
X647192Y272796D02*
D03*
X673100Y272542D02*
D03*
X284480Y95250D02*
D03*
X304800D02*
D03*
X569976Y454914D02*
D03*
X520446Y433832D02*
D03*
X396240Y312420D02*
D03*
X383540Y297180D02*
D03*
X534162Y412496D02*
D03*
X635000Y215900D02*
D03*
X478566Y349929D02*
D03*
X378206Y414528D02*
D03*
X393700D02*
D03*
X406400Y401320D02*
D03*
X635000Y482600D02*
D03*
X106680Y492760D02*
D03*
X629920Y30480D02*
D03*
X432310Y446786D02*
D03*
X412750Y424688D02*
D03*
X512826Y411988D02*
D03*
D28*
X129540Y45720D02*
D03*
X165100Y464820D02*
D03*
X334518Y395732D02*
D03*
X585470Y437642D02*
D03*
X393700Y378460D02*
D03*
M02*
