G04 Layer_Color=65535*
%FSLAX44Y44*%
%MOMM*%
G71*
G01*
G75*
%ADD18C,0.2540*%
%ADD37C,0.2000*%
D18*
X397172Y99968D02*
Y149968D01*
Y99968D02*
X507172D01*
Y149968D01*
X397172D02*
X507172D01*
X536584Y350412D02*
Y400412D01*
X426584D02*
X536584D01*
X426584Y350412D02*
Y400412D01*
Y350412D02*
X536584D01*
X18542Y442305D02*
X25206Y432308D01*
Y442305D02*
X18542Y432308D01*
X28539Y442305D02*
X35203D01*
Y440639D01*
X28539Y433974D01*
Y432308D01*
X425704Y411226D02*
Y421223D01*
X430702D01*
X432369Y419557D01*
Y416224D01*
X430702Y414558D01*
X425704D01*
X429036D02*
X432369Y411226D01*
X442365D02*
X435701D01*
X442365Y417891D01*
Y419557D01*
X440699Y421223D01*
X437367D01*
X435701Y419557D01*
X452362Y411226D02*
X445698D01*
X452362Y417891D01*
Y419557D01*
X450696Y421223D01*
X447364D01*
X445698Y419557D01*
X437896Y447131D02*
Y437134D01*
X442894D01*
X444561Y438800D01*
Y445465D01*
X442894Y447131D01*
X437896D01*
X447893Y437134D02*
X451225D01*
X449559D01*
Y447131D01*
X447893Y445465D01*
X412811Y362407D02*
X411144Y364073D01*
X407812D01*
X406146Y362407D01*
Y355742D01*
X407812Y354076D01*
X411144D01*
X412811Y355742D01*
X416143Y354076D02*
X419475D01*
X417809D01*
Y364073D01*
X416143Y362407D01*
X114554Y103883D02*
X121156Y93980D01*
Y103883D02*
X114554Y93980D01*
X124457D02*
X127758D01*
X126107D01*
Y103883D01*
X124457Y102232D01*
X132709D02*
X134360Y103883D01*
X137661D01*
X139311Y102232D01*
Y95631D01*
X137661Y93980D01*
X134360D01*
X132709Y95631D01*
Y102232D01*
X220980Y450941D02*
X227645D01*
Y449275D01*
X220980Y442610D01*
Y440944D01*
X227645D01*
X230977D02*
X234309D01*
X232643D01*
Y450941D01*
X230977Y449275D01*
X515620Y158750D02*
Y168747D01*
X520618D01*
X522285Y167081D01*
Y163748D01*
X520618Y162082D01*
X515620D01*
X518952D02*
X522285Y158750D01*
X525617Y160416D02*
X527283Y158750D01*
X530615D01*
X532281Y160416D01*
Y167081D01*
X530615Y168747D01*
X527283D01*
X525617Y167081D01*
Y165415D01*
X527283Y163748D01*
X532281D01*
X140970Y340614D02*
Y350517D01*
X145921D01*
X147572Y348866D01*
Y345565D01*
X145921Y343915D01*
X140970D01*
X144271D02*
X147572Y340614D01*
X150873Y348866D02*
X152523Y350517D01*
X155824D01*
X157475Y348866D01*
Y347216D01*
X155824Y345565D01*
X157475Y343915D01*
Y342265D01*
X155824Y340614D01*
X152523D01*
X150873Y342265D01*
Y343915D01*
X152523Y345565D01*
X150873Y347216D01*
Y348866D01*
X152523Y345565D02*
X155824D01*
X238760Y232410D02*
Y242407D01*
X243758D01*
X245424Y240741D01*
Y237408D01*
X243758Y235742D01*
X238760D01*
X242092D02*
X245424Y232410D01*
X248757Y242407D02*
X255421D01*
Y240741D01*
X248757Y234076D01*
Y232410D01*
X347980Y220980D02*
Y230977D01*
X352978D01*
X354645Y229311D01*
Y225978D01*
X352978Y224312D01*
X347980D01*
X351312D02*
X354645Y220980D01*
X364641Y230977D02*
X361309Y229311D01*
X357977Y225978D01*
Y222646D01*
X359643Y220980D01*
X362975D01*
X364641Y222646D01*
Y224312D01*
X362975Y225978D01*
X357977D01*
X547116Y70195D02*
Y60198D01*
X553781D01*
X563777Y70195D02*
X557113D01*
Y60198D01*
X563777D01*
X557113Y65196D02*
X560445D01*
X567110Y70195D02*
Y60198D01*
X572108D01*
X573774Y61864D01*
Y68529D01*
X572108Y70195D01*
X567110D01*
X577106Y60198D02*
X580439D01*
X578773D01*
Y70195D01*
X577106Y68529D01*
X397256Y196339D02*
X400557D01*
X398907D01*
Y186436D01*
X397256D01*
X400557D01*
X412110Y194688D02*
X410460Y196339D01*
X407159D01*
X405508Y194688D01*
Y188086D01*
X407159Y186436D01*
X410460D01*
X412110Y188086D01*
X422013Y186436D02*
X415411D01*
X422013Y193038D01*
Y194688D01*
X420363Y196339D01*
X417062D01*
X415411Y194688D01*
X293876Y89532D02*
X292225Y91183D01*
X288925D01*
X287274Y89532D01*
Y82930D01*
X288925Y81280D01*
X292225D01*
X293876Y82930D01*
X297177Y81280D02*
X300478D01*
X298827D01*
Y91183D01*
X297177Y89532D01*
X312031Y81280D02*
X305429D01*
X312031Y87882D01*
Y89532D01*
X310380Y91183D01*
X307080D01*
X305429Y89532D01*
X456422Y89024D02*
X454771Y90675D01*
X451470D01*
X449820Y89024D01*
Y82423D01*
X451470Y80772D01*
X454771D01*
X456422Y82423D01*
X459723Y80772D02*
X463024D01*
X461373D01*
Y90675D01*
X459723Y89024D01*
X467975Y80772D02*
X471276D01*
X469626D01*
Y90675D01*
X467975Y89024D01*
X446022Y167002D02*
X444371Y168653D01*
X441071D01*
X439420Y167002D01*
Y160401D01*
X441071Y158750D01*
X444371D01*
X446022Y160401D01*
X449323Y158750D02*
X452624D01*
X450973D01*
Y168653D01*
X449323Y167002D01*
X457575D02*
X459226Y168653D01*
X462527D01*
X464177Y167002D01*
Y160401D01*
X462527Y158750D01*
X459226D01*
X457575Y160401D01*
Y167002D01*
X187198Y104391D02*
X193800Y94488D01*
Y104391D02*
X187198Y94488D01*
X197101D02*
X200402D01*
X198751D01*
Y104391D01*
X197101Y102740D01*
X347980Y259080D02*
Y268983D01*
X352931D01*
X354582Y267332D01*
Y264031D01*
X352931Y262381D01*
X347980D01*
X351281D02*
X354582Y259080D01*
X357883Y267332D02*
X359533Y268983D01*
X362834D01*
X364485Y267332D01*
Y265682D01*
X362834Y264031D01*
X361184D01*
X362834D01*
X364485Y262381D01*
Y260730D01*
X362834Y259080D01*
X359533D01*
X357883Y260730D01*
X275590Y197612D02*
Y207515D01*
X280541D01*
X282192Y205864D01*
Y202563D01*
X280541Y200913D01*
X275590D01*
X278891D02*
X282192Y197612D01*
X292095D02*
X285493D01*
X292095Y204214D01*
Y205864D01*
X290444Y207515D01*
X287143D01*
X285493Y205864D01*
X277368Y122936D02*
Y132839D01*
X282319D01*
X283970Y131188D01*
Y127887D01*
X282319Y126237D01*
X277368D01*
X280669D02*
X283970Y122936D01*
X287271D02*
X290572D01*
X288921D01*
Y132839D01*
X287271Y131188D01*
X666750Y265173D02*
X673352Y255270D01*
Y265173D02*
X666750Y255270D01*
X681604D02*
Y265173D01*
X676653Y260221D01*
X683255D01*
X558800Y265173D02*
X565402Y255270D01*
Y265173D02*
X558800Y255270D01*
X575305Y265173D02*
X568703D01*
Y260221D01*
X572004Y261872D01*
X573654D01*
X575305Y260221D01*
Y256921D01*
X573654Y255270D01*
X570353D01*
X568703Y256921D01*
X666350Y417573D02*
X672952Y407670D01*
Y417573D02*
X666350Y407670D01*
X682855D02*
X676253D01*
X682855Y414272D01*
Y415922D01*
X681204Y417573D01*
X677903D01*
X676253Y415922D01*
X561340Y417667D02*
X568004Y407670D01*
Y417667D02*
X561340Y407670D01*
X571337D02*
X574669D01*
X573003D01*
Y417667D01*
X571337Y416001D01*
X579667Y407670D02*
X583000D01*
X581334D01*
Y417667D01*
X579667Y416001D01*
X287020Y276098D02*
Y286095D01*
X292018D01*
X293685Y284429D01*
Y281096D01*
X292018Y279430D01*
X287020D01*
X290352D02*
X293685Y276098D01*
X297017D02*
X300349D01*
X298683D01*
Y286095D01*
X297017Y284429D01*
X305347D02*
X307014Y286095D01*
X310346D01*
X312012Y284429D01*
Y277764D01*
X310346Y276098D01*
X307014D01*
X305347Y277764D01*
Y284429D01*
X298196Y323850D02*
Y333847D01*
X303194D01*
X304860Y332181D01*
Y328848D01*
X303194Y327182D01*
X298196D01*
X301528D02*
X304860Y323850D01*
X308193D02*
X311525D01*
X309859D01*
Y333847D01*
X308193Y332181D01*
X316523Y323850D02*
X319856D01*
X318190D01*
Y333847D01*
X316523Y332181D01*
X494030Y310479D02*
Y300482D01*
X500695D01*
X510691Y310479D02*
X504027D01*
Y300482D01*
X510691D01*
X504027Y305480D02*
X507359D01*
X514024Y310479D02*
Y300482D01*
X519022D01*
X520688Y302148D01*
Y308813D01*
X519022Y310479D01*
X514024D01*
X530685Y300482D02*
X524020D01*
X530685Y307146D01*
Y308813D01*
X529019Y310479D01*
X525686D01*
X524020Y308813D01*
X450596Y300228D02*
Y310225D01*
X455594D01*
X457261Y308559D01*
Y305226D01*
X455594Y303560D01*
X450596D01*
X453928D02*
X457261Y300228D01*
X460593Y308559D02*
X462259Y310225D01*
X465591D01*
X467257Y308559D01*
Y306893D01*
X465591Y305226D01*
X463925D01*
X465591D01*
X467257Y303560D01*
Y301894D01*
X465591Y300228D01*
X462259D01*
X460593Y301894D01*
X477254Y300228D02*
X470590D01*
X477254Y306893D01*
Y308559D01*
X475588Y310225D01*
X472256D01*
X470590Y308559D01*
X267716Y293624D02*
X272714D01*
X274380Y295290D01*
X272714Y296956D01*
X269382D01*
X267716Y298622D01*
X269382Y300289D01*
X274380D01*
X279379Y293624D02*
X282711D01*
X284377Y295290D01*
Y298622D01*
X282711Y300289D01*
X279379D01*
X277713Y298622D01*
Y295290D01*
X279379Y293624D01*
X287710D02*
X291042D01*
X289376D01*
Y303621D01*
X287710D01*
X302705D02*
Y293624D01*
X297706D01*
X296040Y295290D01*
Y298622D01*
X297706Y300289D01*
X302705D01*
X311035Y293624D02*
X307703D01*
X306037Y295290D01*
Y298622D01*
X307703Y300289D01*
X311035D01*
X312701Y298622D01*
Y296956D01*
X306037D01*
X316034Y300289D02*
Y293624D01*
Y296956D01*
X317700Y298622D01*
X319366Y300289D01*
X321032D01*
X294894Y309118D02*
Y315783D01*
X299892D01*
X301558Y314116D01*
Y309118D01*
X306557D02*
X309889D01*
X311555Y310784D01*
Y314116D01*
X309889Y315783D01*
X306557D01*
X304891Y314116D01*
Y310784D01*
X306557Y309118D01*
X316554Y317449D02*
Y315783D01*
X314888D01*
X318220D01*
X316554D01*
Y310784D01*
X318220Y309118D01*
X148842Y48892D02*
X147191Y50543D01*
X143890D01*
X142240Y48892D01*
Y42291D01*
X143890Y40640D01*
X147191D01*
X148842Y42291D01*
Y45591D01*
X145541D01*
X152143Y40640D02*
Y50543D01*
X158745Y40640D01*
Y50543D01*
X162046D02*
Y40640D01*
X166997D01*
X168647Y42291D01*
Y48892D01*
X166997Y50543D01*
X162046D01*
X101600Y459740D02*
Y469643D01*
X106551D01*
X108202Y467992D01*
Y464691D01*
X106551Y463041D01*
X101600D01*
X104901D02*
X108202Y459740D01*
X118105Y469643D02*
X111503D01*
Y459740D01*
X118105D01*
X111503Y464691D02*
X114804D01*
X128007Y467992D02*
X126357Y469643D01*
X123056D01*
X121406Y467992D01*
Y466342D01*
X123056Y464691D01*
X126357D01*
X128007Y463041D01*
Y461390D01*
X126357Y459740D01*
X123056D01*
X121406Y461390D01*
X137910Y469643D02*
X131308D01*
Y459740D01*
X137910D01*
X131308Y464691D02*
X134609D01*
X141211Y469643D02*
X147813D01*
X144512D01*
Y459740D01*
X114046Y75946D02*
Y85849D01*
X118997D01*
X120648Y84198D01*
Y80897D01*
X118997Y79247D01*
X114046D01*
X123949Y85849D02*
Y75946D01*
X127250Y79247D01*
X130551Y75946D01*
Y85849D01*
X133852Y75946D02*
Y85849D01*
X138803D01*
X140454Y84198D01*
Y80897D01*
X138803Y79247D01*
X133852D01*
X137153D02*
X140454Y75946D01*
X235202Y206372D02*
X233551Y208023D01*
X230250D01*
X228600Y206372D01*
Y199771D01*
X230250Y198120D01*
X233551D01*
X235202Y199771D01*
Y203071D01*
X231901D01*
X238503Y198120D02*
Y208023D01*
X245105Y198120D01*
Y208023D01*
X248406D02*
Y198120D01*
X253357D01*
X255007Y199771D01*
Y206372D01*
X253357Y208023D01*
X248406D01*
X228600Y182623D02*
Y172720D01*
X233551D01*
X235202Y174370D01*
Y180972D01*
X233551Y182623D01*
X228600D01*
X238503Y177671D02*
X245105D01*
X241804Y180972D02*
Y174370D01*
X228600Y157223D02*
Y147320D01*
X233551D01*
X235202Y148970D01*
Y155572D01*
X233551Y157223D01*
X228600D01*
X238503Y152271D02*
X245105D01*
X228600Y126871D02*
X235202D01*
X231901Y130172D02*
Y123570D01*
X245105Y131823D02*
X238503D01*
Y126871D01*
X241804Y128522D01*
X243454D01*
X245105Y126871D01*
Y123570D01*
X243454Y121920D01*
X240153D01*
X238503Y123570D01*
X248406Y131823D02*
Y125221D01*
X251707Y121920D01*
X255007Y125221D01*
Y131823D01*
X152400Y152271D02*
X159002D01*
X155701Y155572D02*
Y148970D01*
X168905Y157223D02*
X162303D01*
Y152271D01*
X165604Y153922D01*
X167254D01*
X168905Y152271D01*
Y148970D01*
X167254Y147320D01*
X163953D01*
X162303Y148970D01*
X172206Y157223D02*
Y150621D01*
X175506Y147320D01*
X178808Y150621D01*
Y157223D01*
X159002Y231772D02*
X157351Y233423D01*
X154051D01*
X152400Y231772D01*
Y225170D01*
X154051Y223520D01*
X157351D01*
X159002Y225170D01*
Y228471D01*
X155701D01*
X162303Y223520D02*
Y233423D01*
X168905Y223520D01*
Y233423D01*
X172206D02*
Y223520D01*
X177157D01*
X178808Y225170D01*
Y231772D01*
X177157Y233423D01*
X172206D01*
X648802Y385442D02*
X647151Y387093D01*
X643850D01*
X642200Y385442D01*
Y378840D01*
X643850Y377190D01*
X647151D01*
X648802Y378840D01*
Y382141D01*
X645501D01*
X652103Y377190D02*
Y387093D01*
X658705Y377190D01*
Y387093D01*
X662006D02*
Y377190D01*
X666957D01*
X668607Y378840D01*
Y385442D01*
X666957Y387093D01*
X662006D01*
X642200Y326390D02*
Y336293D01*
X647151D01*
X648802Y334642D01*
Y331341D01*
X647151Y329691D01*
X642200D01*
X652103Y336293D02*
Y326390D01*
Y331341D01*
X658705D01*
Y336293D01*
Y326390D01*
X662006Y324739D02*
X668607D01*
X671908Y336293D02*
Y326390D01*
X676860D01*
X678510Y328041D01*
Y329691D01*
X676860Y331341D01*
X671908D01*
X676860D01*
X678510Y332992D01*
Y334642D01*
X676860Y336293D01*
X671908D01*
X642200Y351790D02*
Y361693D01*
X647151D01*
X648802Y360042D01*
Y356741D01*
X647151Y355091D01*
X642200D01*
X652103Y361693D02*
Y351790D01*
Y356741D01*
X658705D01*
Y361693D01*
Y351790D01*
X662006Y350140D02*
X668607D01*
X671908Y351790D02*
Y358392D01*
X675209Y361693D01*
X678510Y358392D01*
Y351790D01*
Y356741D01*
X671908D01*
X642200Y303401D02*
X648802D01*
X645501Y306702D02*
Y300100D01*
X658705Y308353D02*
X652103D01*
Y303401D01*
X655404Y305052D01*
X657054D01*
X658705Y303401D01*
Y300100D01*
X657054Y298450D01*
X653753D01*
X652103Y300100D01*
X662006Y308353D02*
Y301751D01*
X665306Y298450D01*
X668607Y301751D01*
Y308353D01*
X705102Y417573D02*
X698500D01*
Y407670D01*
X705102D01*
X698500Y412621D02*
X701801D01*
X708403Y407670D02*
Y417573D01*
X715005Y407670D01*
Y417573D01*
X724908Y415922D02*
X723257Y417573D01*
X719956D01*
X718306Y415922D01*
Y409320D01*
X719956Y407670D01*
X723257D01*
X724908Y409320D01*
X579628Y485391D02*
Y475488D01*
X586230D01*
X596133Y483740D02*
X594482Y485391D01*
X591181D01*
X589531Y483740D01*
Y477138D01*
X591181Y475488D01*
X594482D01*
X596133Y477138D01*
X599434Y485391D02*
Y475488D01*
X604385D01*
X606035Y477138D01*
Y483740D01*
X604385Y485391D01*
X599434D01*
X579120Y33525D02*
Y23622D01*
X585722D01*
X595625Y33525D02*
X589023D01*
Y23622D01*
X595625D01*
X589023Y28573D02*
X592324D01*
X598926Y33525D02*
Y23622D01*
X603877D01*
X605527Y25273D01*
Y31874D01*
X603877Y33525D01*
X598926D01*
X615430Y31874D02*
X613780Y33525D01*
X610479D01*
X608828Y31874D01*
Y30224D01*
X610479Y28573D01*
X613780D01*
X615430Y26923D01*
Y25273D01*
X613780Y23622D01*
X610479D01*
X608828Y25273D01*
X146050Y512823D02*
Y502920D01*
X152652D01*
X162555Y511172D02*
X160904Y512823D01*
X157603D01*
X155953Y511172D01*
Y504571D01*
X157603Y502920D01*
X160904D01*
X162555Y504571D01*
X165856Y512823D02*
Y502920D01*
X170807D01*
X172458Y504571D01*
Y511172D01*
X170807Y512823D01*
X165856D01*
X590550Y265173D02*
Y258571D01*
X593851Y255270D01*
X597152Y258571D01*
Y265173D01*
X600453Y255270D02*
Y265173D01*
X605404D01*
X607055Y263522D01*
Y260221D01*
X605404Y258571D01*
X600453D01*
X603754D02*
X607055Y255270D01*
X616958Y265173D02*
X610356D01*
Y255270D01*
X616958D01*
X610356Y260221D02*
X613657D01*
X626860Y263522D02*
X625210Y265173D01*
X621909D01*
X620258Y263522D01*
Y256921D01*
X621909Y255270D01*
X625210D01*
X626860Y256921D01*
Y260221D01*
X623559D01*
X692150Y265173D02*
Y258571D01*
X695451Y255270D01*
X698752Y258571D01*
Y265173D01*
X702053D02*
X705354D01*
X703703D01*
Y255270D01*
X702053D01*
X705354D01*
X710305D02*
Y265173D01*
X716907Y255270D01*
Y265173D01*
X720208D02*
Y255270D01*
X725159D01*
X726810Y256921D01*
Y263522D01*
X725159Y265173D01*
X720208D01*
X184658Y86357D02*
Y78105D01*
X186308Y76454D01*
X189609D01*
X191260Y78105D01*
Y86357D01*
X201163Y84706D02*
X199512Y86357D01*
X196211D01*
X194561Y84706D01*
Y83056D01*
X196211Y81405D01*
X199512D01*
X201163Y79755D01*
Y78105D01*
X199512Y76454D01*
X196211D01*
X194561Y78105D01*
X204464Y86357D02*
Y76454D01*
X209415D01*
X211066Y78105D01*
Y79755D01*
X209415Y81405D01*
X204464D01*
X209415D01*
X211066Y83056D01*
Y84706D01*
X209415Y86357D01*
X204464D01*
X553802Y206372D02*
X552151Y208023D01*
X548851D01*
X547200Y206372D01*
Y199771D01*
X548851Y198120D01*
X552151D01*
X553802Y199771D01*
X563705Y206372D02*
X562054Y208023D01*
X558753D01*
X557103Y206372D01*
Y204722D01*
X558753Y203071D01*
X562054D01*
X563705Y201421D01*
Y199771D01*
X562054Y198120D01*
X558753D01*
X557103Y199771D01*
X567006Y206372D02*
X568656Y208023D01*
X571957D01*
X573607Y206372D01*
Y199771D01*
X571957Y198120D01*
X568656D01*
X567006Y199771D01*
Y206372D01*
X553802Y231772D02*
X552151Y233423D01*
X548851D01*
X547200Y231772D01*
Y225170D01*
X548851Y223520D01*
X552151D01*
X553802Y225170D01*
Y228471D01*
X550501D01*
X557103Y223520D02*
Y233423D01*
X563705Y223520D01*
Y233423D01*
X567006D02*
Y223520D01*
X571957D01*
X573607Y225170D01*
Y231772D01*
X571957Y233423D01*
X567006D01*
X553802Y155572D02*
X552151Y157223D01*
X548851D01*
X547200Y155572D01*
Y148970D01*
X548851Y147320D01*
X552151D01*
X553802Y148970D01*
X557103Y157223D02*
Y147320D01*
X563705D01*
X567006Y157223D02*
Y147320D01*
Y150621D01*
X573607Y157223D01*
X568656Y152271D01*
X573607Y147320D01*
X547200Y183893D02*
Y173990D01*
X552151D01*
X553802Y175641D01*
Y182242D01*
X552151Y183893D01*
X547200D01*
X557103Y173990D02*
Y180592D01*
X560404Y183893D01*
X563705Y180592D01*
Y173990D01*
Y178941D01*
X557103D01*
X567006Y183893D02*
X573607D01*
X570307D01*
Y173990D01*
X576908D02*
Y180592D01*
X580209Y183893D01*
X583510Y180592D01*
Y173990D01*
Y178941D01*
X576908D01*
X547200Y126871D02*
X553802D01*
X550501Y130172D02*
Y123570D01*
X563705Y131823D02*
X557103D01*
Y126871D01*
X560404Y128522D01*
X562054D01*
X563705Y126871D01*
Y123570D01*
X562054Y121920D01*
X558753D01*
X557103Y123570D01*
X567006Y131823D02*
Y125221D01*
X570307Y121920D01*
X573607Y125221D01*
Y131823D01*
X648802Y231772D02*
X647151Y233423D01*
X643850D01*
X642200Y231772D01*
Y225170D01*
X643850Y223520D01*
X647151D01*
X648802Y225170D01*
Y228471D01*
X645501D01*
X652103Y223520D02*
Y233423D01*
X658705Y223520D01*
Y233423D01*
X662006D02*
Y223520D01*
X666957D01*
X668607Y225170D01*
Y231772D01*
X666957Y233423D01*
X662006D01*
X648802Y206372D02*
X647151Y208023D01*
X643850D01*
X642200Y206372D01*
Y199771D01*
X643850Y198120D01*
X647151D01*
X648802Y199771D01*
X658705Y206372D02*
X657054Y208023D01*
X653753D01*
X652103Y206372D01*
Y204722D01*
X653753Y203071D01*
X657054D01*
X658705Y201421D01*
Y199771D01*
X657054Y198120D01*
X653753D01*
X652103Y199771D01*
X662006Y198120D02*
X665306D01*
X663656D01*
Y208023D01*
X662006Y206372D01*
X642200Y182623D02*
Y172720D01*
X647151D01*
X648802Y174370D01*
Y180972D01*
X647151Y182623D01*
X642200D01*
X652103Y172720D02*
Y179322D01*
X655404Y182623D01*
X658705Y179322D01*
Y172720D01*
Y177671D01*
X652103D01*
X662006Y182623D02*
X668607D01*
X665306D01*
Y172720D01*
X671908D02*
Y179322D01*
X675209Y182623D01*
X678510Y179322D01*
Y172720D01*
Y177671D01*
X671908D01*
X648802Y155572D02*
X647151Y157223D01*
X643850D01*
X642200Y155572D01*
Y148970D01*
X643850Y147320D01*
X647151D01*
X648802Y148970D01*
X652103Y157223D02*
Y147320D01*
X658705D01*
X662006Y157223D02*
Y147320D01*
Y150621D01*
X668607Y157223D01*
X663656Y152271D01*
X668607Y147320D01*
X642200Y126871D02*
X648802D01*
X645501Y130172D02*
Y123570D01*
X658705Y131823D02*
X652103D01*
Y126871D01*
X655404Y128522D01*
X657054D01*
X658705Y126871D01*
Y123570D01*
X657054Y121920D01*
X653753D01*
X652103Y123570D01*
X662006Y131823D02*
Y125221D01*
X665306Y121920D01*
X668607Y125221D01*
Y131823D01*
X159002Y206372D02*
X157351Y208023D01*
X154051D01*
X152400Y206372D01*
Y199771D01*
X154051Y198120D01*
X157351D01*
X159002Y199771D01*
Y203071D01*
X155701D01*
X162303Y198120D02*
Y208023D01*
X168905Y198120D01*
Y208023D01*
X172206D02*
Y198120D01*
X177157D01*
X178808Y199771D01*
Y206372D01*
X177157Y208023D01*
X172206D01*
X152400Y182623D02*
Y172720D01*
X155701Y176021D01*
X159002Y172720D01*
Y182623D01*
X152400Y126871D02*
X159002D01*
X155701Y130172D02*
Y123570D01*
X168905Y131823D02*
X162303D01*
Y126871D01*
X165604Y128522D01*
X167254D01*
X168905Y126871D01*
Y123570D01*
X167254Y121920D01*
X163953D01*
X162303Y123570D01*
X172206Y131823D02*
Y125221D01*
X175506Y121920D01*
X178808Y125221D01*
Y131823D01*
X50800Y406271D02*
X57402D01*
X54101Y409572D02*
Y402971D01*
X67305Y411223D02*
X60703D01*
Y406271D01*
X64004Y407922D01*
X65654D01*
X67305Y406271D01*
Y402971D01*
X65654Y401320D01*
X62353D01*
X60703Y402971D01*
X70606Y411223D02*
Y404621D01*
X73906Y401320D01*
X77207Y404621D01*
Y411223D01*
X50800Y375920D02*
Y385823D01*
X55751D01*
X57402Y384172D01*
Y380871D01*
X55751Y379221D01*
X50800D01*
X65654Y385823D02*
X62353D01*
X60703Y384172D01*
Y377570D01*
X62353Y375920D01*
X65654D01*
X67305Y377570D01*
Y384172D01*
X65654Y385823D01*
X77207D02*
X70606D01*
Y380871D01*
X73906D01*
X70606D01*
Y375920D01*
X87110Y385823D02*
X80508D01*
Y380871D01*
X83809D01*
X80508D01*
Y375920D01*
X50800Y350520D02*
Y360423D01*
X55751D01*
X57402Y358772D01*
Y355471D01*
X55751Y353821D01*
X50800D01*
X65654Y360423D02*
X62353D01*
X60703Y358772D01*
Y352170D01*
X62353Y350520D01*
X65654D01*
X67305Y352170D01*
Y358772D01*
X65654Y360423D01*
X77207D02*
X70606D01*
Y355471D01*
X73906D01*
X70606D01*
Y350520D01*
X87110Y360423D02*
X80508D01*
Y355471D01*
X83809D01*
X80508D01*
Y350520D01*
X57402Y335023D02*
X50800D01*
Y330071D01*
X54101D01*
X50800D01*
Y325120D01*
X60703D02*
Y335023D01*
X67305Y325120D01*
Y335023D01*
X77207Y325120D02*
X70606D01*
X77207Y331722D01*
Y333372D01*
X75557Y335023D01*
X72256D01*
X70606Y333372D01*
X57402Y309623D02*
X50800D01*
Y304671D01*
X54101D01*
X50800D01*
Y299720D01*
X60703D02*
Y309623D01*
X67305Y299720D01*
Y309623D01*
X70606Y299720D02*
X73906D01*
X72256D01*
Y309623D01*
X70606Y307972D01*
X50800Y274320D02*
Y284223D01*
X55751D01*
X57402Y282572D01*
Y279271D01*
X55751Y277621D01*
X50800D01*
X60703Y274320D02*
Y284223D01*
X65654D01*
X67305Y282572D01*
Y279271D01*
X65654Y277621D01*
X60703D01*
X64004D02*
X67305Y274320D01*
X77207Y284223D02*
X70606D01*
Y274320D01*
X77207D01*
X70606Y279271D02*
X73906D01*
X50800Y248920D02*
Y258823D01*
X57402Y248920D01*
Y258823D01*
X67305D02*
X60703D01*
Y248920D01*
X67305D01*
X60703Y253871D02*
X64004D01*
X70606Y258823D02*
X77207Y248920D01*
Y258823D02*
X70606Y248920D01*
X80508Y258823D02*
X87110D01*
X83809D01*
Y248920D01*
X57402Y231772D02*
X55751Y233423D01*
X52450D01*
X50800Y231772D01*
Y230122D01*
X52450Y228471D01*
X55751D01*
X57402Y226821D01*
Y225170D01*
X55751Y223520D01*
X52450D01*
X50800Y225170D01*
X60703Y233423D02*
X67305D01*
X64004D01*
Y223520D01*
X75557Y233423D02*
X72256D01*
X70606Y231772D01*
Y225170D01*
X72256Y223520D01*
X75557D01*
X77207Y225170D01*
Y231772D01*
X75557Y233423D01*
X80508Y223520D02*
Y233423D01*
X85460D01*
X87110Y231772D01*
Y228471D01*
X85460Y226821D01*
X80508D01*
X50800Y198120D02*
Y208023D01*
X55751D01*
X57402Y206372D01*
Y203071D01*
X55751Y201421D01*
X50800D01*
X60703Y208023D02*
Y198120D01*
X67305D01*
X70606D02*
Y204722D01*
X73906Y208023D01*
X77207Y204722D01*
Y198120D01*
Y203071D01*
X70606D01*
X80508Y208023D02*
Y206372D01*
X83809Y203071D01*
X87110Y206372D01*
Y208023D01*
X83809Y203071D02*
Y198120D01*
X50800Y182623D02*
Y172720D01*
X55751D01*
X57402Y174370D01*
Y180972D01*
X55751Y182623D01*
X50800D01*
X65654D02*
X62353D01*
X60703Y180972D01*
Y174370D01*
X62353Y172720D01*
X65654D01*
X67305Y174370D01*
Y180972D01*
X65654Y182623D01*
X70606D02*
Y172720D01*
X73906Y176021D01*
X77207Y172720D01*
Y182623D01*
X80508Y172720D02*
Y182623D01*
X87110Y172720D01*
Y182623D01*
X50800Y157223D02*
Y148970D01*
X52450Y147320D01*
X55751D01*
X57402Y148970D01*
Y157223D01*
X60703Y147320D02*
Y157223D01*
X65654D01*
X67305Y155572D01*
Y152271D01*
X65654Y150621D01*
X60703D01*
X57402Y130172D02*
X55751Y131823D01*
X52450D01*
X50800Y130172D01*
Y123570D01*
X52450Y121920D01*
X55751D01*
X57402Y123570D01*
Y126871D01*
X54101D01*
X60703Y121920D02*
Y131823D01*
X67305Y121920D01*
Y131823D01*
X70606D02*
Y121920D01*
X75557D01*
X77207Y123570D01*
Y130172D01*
X75557Y131823D01*
X70606D01*
X441960Y54481D02*
X448562D01*
X445261Y57782D02*
Y51181D01*
X458465Y59433D02*
X451863D01*
Y54481D01*
X455164Y56132D01*
X456814D01*
X458465Y54481D01*
Y51181D01*
X456814Y49530D01*
X453513D01*
X451863Y51181D01*
X461766Y59433D02*
Y52831D01*
X465066Y49530D01*
X468368Y52831D01*
Y59433D01*
X399540Y58290D02*
X397889Y59941D01*
X394589D01*
X392938Y58290D01*
Y51688D01*
X394589Y50038D01*
X397889D01*
X399540Y51688D01*
Y54989D01*
X396239D01*
X402841Y50038D02*
Y59941D01*
X409443Y50038D01*
Y59941D01*
X412744D02*
Y50038D01*
X417695D01*
X419346Y51688D01*
Y58290D01*
X417695Y59941D01*
X412744D01*
X334772Y45720D02*
X324869D01*
Y50671D01*
X326520Y52322D01*
X329821D01*
X331471Y50671D01*
Y45720D01*
Y49021D02*
X334772Y52322D01*
X324869Y55623D02*
X334772D01*
Y60574D01*
X333121Y62225D01*
X326520D01*
X324869Y60574D01*
Y55623D01*
X299469Y45720D02*
X309372D01*
X306071Y49021D01*
X309372Y52322D01*
X299469D01*
X309372Y55623D02*
X299469D01*
Y60574D01*
X301120Y62225D01*
X304421D01*
X306071Y60574D01*
Y55623D01*
Y58924D02*
X309372Y62225D01*
X283718Y44958D02*
X273815D01*
Y49909D01*
X275466Y51560D01*
X278767D01*
X280417Y49909D01*
Y44958D01*
Y48259D02*
X283718Y51560D01*
X275466Y61463D02*
X273815Y59812D01*
Y56511D01*
X275466Y54861D01*
X277116D01*
X278767Y56511D01*
Y59812D01*
X280417Y61463D01*
X282068D01*
X283718Y59812D01*
Y56511D01*
X282068Y54861D01*
X250828Y52068D02*
X249177Y50417D01*
Y47116D01*
X250828Y45466D01*
X257430D01*
X259080Y47116D01*
Y50417D01*
X257430Y52068D01*
X250828Y61971D02*
X249177Y60320D01*
Y57019D01*
X250828Y55369D01*
X252478D01*
X254129Y57019D01*
Y60320D01*
X255779Y61971D01*
X257430D01*
X259080Y60320D01*
Y57019D01*
X257430Y55369D01*
X233426Y45466D02*
X223523D01*
Y50417D01*
X225174Y52068D01*
X228475D01*
X230125Y50417D01*
Y45466D01*
Y48767D02*
X233426Y52068D01*
X225174Y61971D02*
X223523Y60320D01*
Y57019D01*
X225174Y55369D01*
X226824D01*
X228475Y57019D01*
Y60320D01*
X230125Y61971D01*
X231775D01*
X233426Y60320D01*
Y57019D01*
X231775Y55369D01*
X223523Y65272D02*
Y71873D01*
Y68573D01*
X233426D01*
X443233Y474980D02*
X453136D01*
Y479931D01*
X451485Y481582D01*
X444884D01*
X443233Y479931D01*
Y474980D01*
X453136Y484883D02*
Y488184D01*
Y486533D01*
X443233D01*
X444884Y484883D01*
X417325Y474218D02*
X427228D01*
Y479169D01*
X425578Y480820D01*
X418976D01*
X417325Y479169D01*
Y474218D01*
X418976Y484121D02*
X417325Y485771D01*
Y489072D01*
X418976Y490723D01*
X425578D01*
X427228Y489072D01*
Y485771D01*
X425578Y484121D01*
X418976D01*
X375923Y474218D02*
X385826D01*
Y479169D01*
X384175Y480820D01*
X377574D01*
X375923Y479169D01*
Y474218D01*
Y484121D02*
Y490723D01*
X377574D01*
X384175Y484121D01*
X385826D01*
X350015Y473964D02*
X359918D01*
Y478915D01*
X358268Y480566D01*
X351666D01*
X350015Y478915D01*
Y473964D01*
Y490469D02*
X351666Y487168D01*
X354967Y483867D01*
X358268D01*
X359918Y485517D01*
Y488818D01*
X358268Y490469D01*
X356617D01*
X354967Y488818D01*
Y483867D01*
X324869Y473710D02*
X334772D01*
Y478661D01*
X333121Y480312D01*
X326520D01*
X324869Y478661D01*
Y473710D01*
Y490215D02*
Y483613D01*
X329821D01*
X328170Y486914D01*
Y488564D01*
X329821Y490215D01*
X333121D01*
X334772Y488564D01*
Y485263D01*
X333121Y483613D01*
X299977Y473964D02*
X309880D01*
Y478915D01*
X308230Y480566D01*
X301628D01*
X299977Y478915D01*
Y473964D01*
X309880Y488818D02*
X299977D01*
X304929Y483867D01*
Y490469D01*
X274831Y473710D02*
X284734D01*
Y478661D01*
X283083Y480312D01*
X276482D01*
X274831Y478661D01*
Y473710D01*
X276482Y483613D02*
X274831Y485263D01*
Y488564D01*
X276482Y490215D01*
X278132D01*
X279783Y488564D01*
Y486914D01*
Y488564D01*
X281433Y490215D01*
X283083D01*
X284734Y488564D01*
Y485263D01*
X283083Y483613D01*
X249177Y473710D02*
X259080D01*
Y478661D01*
X257430Y480312D01*
X250828D01*
X249177Y478661D01*
Y473710D01*
X259080Y490215D02*
Y483613D01*
X252478Y490215D01*
X250828D01*
X249177Y488564D01*
Y485263D01*
X250828Y483613D01*
X546100Y88262D02*
X547751Y89913D01*
X551051D01*
X552702Y88262D01*
Y86612D01*
X551051Y84961D01*
X549401D01*
X551051D01*
X552702Y83311D01*
Y81660D01*
X551051Y80010D01*
X547751D01*
X546100Y81660D01*
X556003Y80010D02*
Y81660D01*
X557653D01*
Y80010D01*
X556003D01*
X564255Y88262D02*
X565906Y89913D01*
X569207D01*
X570857Y88262D01*
Y86612D01*
X569207Y84961D01*
X567556D01*
X569207D01*
X570857Y83311D01*
Y81660D01*
X569207Y80010D01*
X565906D01*
X564255Y81660D01*
X574158Y89913D02*
Y83311D01*
X577459Y80010D01*
X580760Y83311D01*
Y89913D01*
X598915D02*
X595614D01*
X593964Y88262D01*
Y81660D01*
X595614Y80010D01*
X598915D01*
X600565Y81660D01*
Y88262D01*
X598915Y89913D01*
X603866D02*
Y80010D01*
Y83311D01*
X610468Y89913D01*
X605517Y84961D01*
X610468Y80010D01*
X273050Y396412D02*
X279715D01*
X276382Y399745D02*
Y393080D01*
X283047Y399745D02*
X284713Y401411D01*
X288045D01*
X289711Y399745D01*
Y398078D01*
X288045Y396412D01*
X286379D01*
X288045D01*
X289711Y394746D01*
Y393080D01*
X288045Y391414D01*
X284713D01*
X283047Y393080D01*
X293044Y391414D02*
Y393080D01*
X294710D01*
Y391414D01*
X293044D01*
X301374Y399745D02*
X303040Y401411D01*
X306373D01*
X308039Y399745D01*
Y398078D01*
X306373Y396412D01*
X304706D01*
X306373D01*
X308039Y394746D01*
Y393080D01*
X306373Y391414D01*
X303040D01*
X301374Y393080D01*
X311371Y401411D02*
Y394746D01*
X314703Y391414D01*
X318036Y394746D01*
Y401411D01*
X540258Y305179D02*
X546860D01*
X543559Y308480D02*
Y301879D01*
X550161Y308480D02*
X551811Y310131D01*
X555112D01*
X556763Y308480D01*
Y306830D01*
X555112Y305179D01*
X553462D01*
X555112D01*
X556763Y303529D01*
Y301879D01*
X555112Y300228D01*
X551811D01*
X550161Y301879D01*
X560064Y300228D02*
Y301879D01*
X561714D01*
Y300228D01*
X560064D01*
X568316Y308480D02*
X569966Y310131D01*
X573267D01*
X574918Y308480D01*
Y306830D01*
X573267Y305179D01*
X571617D01*
X573267D01*
X574918Y303529D01*
Y301879D01*
X573267Y300228D01*
X569966D01*
X568316Y301879D01*
X578219Y310131D02*
Y303529D01*
X581520Y300228D01*
X584821Y303529D01*
Y310131D01*
X548640Y335023D02*
X551941D01*
X550290D01*
Y325120D01*
X548640D01*
X551941D01*
X561844Y335023D02*
X558543D01*
X556892Y333372D01*
Y326771D01*
X558543Y325120D01*
X561844D01*
X563494Y326771D01*
Y333372D01*
X561844Y335023D01*
X553802Y360042D02*
X552151Y361693D01*
X548851D01*
X547200Y360042D01*
Y353441D01*
X548851Y351790D01*
X552151D01*
X553802Y353441D01*
X557103Y361693D02*
Y351790D01*
X563705D01*
X567006Y361693D02*
Y351790D01*
Y355091D01*
X573607Y361693D01*
X568656Y356741D01*
X573607Y351790D01*
X553802Y385442D02*
X552151Y387093D01*
X548851D01*
X547200Y385442D01*
Y378840D01*
X548851Y377190D01*
X552151D01*
X553802Y378840D01*
Y382141D01*
X550501D01*
X557103Y377190D02*
Y387093D01*
X563705Y377190D01*
Y387093D01*
X567006D02*
Y377190D01*
X571957D01*
X573607Y378840D01*
Y385442D01*
X571957Y387093D01*
X567006D01*
X603502Y415922D02*
X601851Y417573D01*
X598550D01*
X596900Y415922D01*
Y414272D01*
X598550Y412621D01*
X601851D01*
X603502Y410971D01*
Y409320D01*
X601851Y407670D01*
X598550D01*
X596900Y409320D01*
X606803Y417573D02*
Y407670D01*
X610104Y410971D01*
X613405Y407670D01*
Y417573D01*
X616706D02*
Y407670D01*
X621657D01*
X623307Y409320D01*
Y415922D01*
X621657Y417573D01*
X616706D01*
X541528Y437306D02*
X548192D01*
X544860Y440639D02*
Y433974D01*
X558189Y442305D02*
X551525D01*
Y437306D01*
X554857Y438973D01*
X556523D01*
X558189Y437306D01*
Y433974D01*
X556523Y432308D01*
X553191D01*
X551525Y433974D01*
X561522Y442305D02*
Y435640D01*
X564854Y432308D01*
X568186Y435640D01*
Y442305D01*
X409194Y230883D02*
Y222631D01*
X410844Y220980D01*
X414145D01*
X415796Y222631D01*
Y230883D01*
X425699Y229232D02*
X424048Y230883D01*
X420747D01*
X419097Y229232D01*
Y227582D01*
X420747Y225931D01*
X424048D01*
X425699Y224281D01*
Y222631D01*
X424048Y220980D01*
X420747D01*
X419097Y222631D01*
X429000Y230883D02*
Y220980D01*
X433951D01*
X435602Y222631D01*
Y224281D01*
X433951Y225931D01*
X429000D01*
X433951D01*
X435602Y227582D01*
Y229232D01*
X433951Y230883D01*
X429000D01*
X445504D02*
X438902D01*
Y220980D01*
X445504D01*
X438902Y225931D02*
X442203D01*
X448805Y230883D02*
Y220980D01*
X453757D01*
X455407Y222631D01*
Y224281D01*
X453757Y225931D01*
X448805D01*
X453757D01*
X455407Y227582D01*
Y229232D01*
X453757Y230883D01*
X448805D01*
X465310Y229232D02*
X463659Y230883D01*
X460359D01*
X458708Y229232D01*
Y227582D01*
X460359Y225931D01*
X463659D01*
X465310Y224281D01*
Y222631D01*
X463659Y220980D01*
X460359D01*
X458708Y222631D01*
X468611Y229232D02*
X470261Y230883D01*
X473562D01*
X475213Y229232D01*
Y227582D01*
X473562Y225931D01*
X475213Y224281D01*
Y222631D01*
X473562Y220980D01*
X470261D01*
X468611Y222631D01*
Y224281D01*
X470261Y225931D01*
X468611Y227582D01*
Y229232D01*
X470261Y225931D02*
X473562D01*
X478514Y229232D02*
X480164Y230883D01*
X483465D01*
X485116Y229232D01*
Y227582D01*
X483465Y225931D01*
X481814D01*
X483465D01*
X485116Y224281D01*
Y222631D01*
X483465Y220980D01*
X480164D01*
X478514Y222631D01*
X488416Y230883D02*
Y224281D01*
X491717Y220980D01*
X495018Y224281D01*
Y230883D01*
X504921Y220980D02*
X498319D01*
X504921Y227582D01*
Y229232D01*
X503271Y230883D01*
X499970D01*
X498319Y229232D01*
X508222Y220980D02*
Y222631D01*
X509873D01*
Y220980D01*
X508222D01*
X516474D02*
X519775D01*
X518125D01*
Y230883D01*
X516474Y229232D01*
X355600Y391160D02*
Y401157D01*
X360598D01*
X362265Y399491D01*
Y396158D01*
X360598Y394492D01*
X355600D01*
X365597Y401157D02*
Y391160D01*
X370595D01*
X372261Y392826D01*
Y394492D01*
X370595Y396158D01*
X365597D01*
X370595D01*
X372261Y397825D01*
Y399491D01*
X370595Y401157D01*
X365597D01*
X375594Y391160D02*
X378926D01*
X377260D01*
Y401157D01*
X375594Y399491D01*
X390589Y401157D02*
X383924D01*
Y396158D01*
X387257Y397825D01*
X388923D01*
X390589Y396158D01*
Y392826D01*
X388923Y391160D01*
X385590D01*
X383924Y392826D01*
D37*
X256100Y404570D02*
G03*
X200102Y404600I-27999J233D01*
G01*
X200101Y337090D02*
G03*
X256100Y337070I27999J-199D01*
G01*
X113198Y322940D02*
X134198D01*
X113198D02*
Y367940D01*
X134198D01*
Y322940D02*
Y367940D01*
X372786Y241674D02*
Y286674D01*
Y241674D02*
X393786D01*
Y286674D01*
X372786D02*
X393786D01*
X318430Y247544D02*
X339430D01*
Y202544D02*
Y247544D01*
X318430Y202544D02*
X339430D01*
X318430D02*
Y247544D01*
X391600Y198070D02*
Y198070D01*
X391850Y197820D01*
Y100070D02*
Y197820D01*
X318600Y198070D02*
X391600D01*
X318600Y100070D02*
X391850D01*
X318600D02*
Y198070D01*
X397094Y95844D02*
X442094D01*
X397094Y74844D02*
Y95844D01*
Y74844D02*
X442094D01*
Y95844D01*
X260442Y189316D02*
X305442D01*
X260442Y168316D02*
Y189316D01*
Y168316D02*
X305442D01*
Y189316D01*
X260202Y163916D02*
X305202D01*
X260202Y142916D02*
Y163916D01*
Y142916D02*
X305202D01*
Y163916D01*
X256100Y337070D02*
Y404570D01*
X200102Y337090D02*
Y404600D01*
X318354Y74844D02*
X363354D01*
Y95844D01*
X318354D02*
X363354D01*
X318354Y74844D02*
Y95844D01*
X186100Y222320D02*
X221100D01*
X186100Y111570D02*
Y222320D01*
Y111570D02*
X216100D01*
X221100Y116570D01*
Y222320D01*
X109900Y111570D02*
Y246570D01*
X144900D01*
X109900Y238570D02*
Y246570D01*
Y111570D02*
X139900D01*
X144900Y116570D01*
Y246570D01*
X728700Y294370D02*
Y400120D01*
X723700Y289370D02*
X728700Y294370D01*
X693700Y289370D02*
X723700D01*
X693700D02*
Y400120D01*
X728700D01*
X592500Y111570D02*
Y246570D01*
X627500D01*
X592500Y238570D02*
Y246570D01*
Y111570D02*
X622500D01*
X627500Y116570D01*
Y246570D01*
X694100Y111570D02*
Y246570D01*
X729100D01*
X694100Y238570D02*
Y246570D01*
Y111570D02*
X724100D01*
X729100Y116570D01*
Y246570D01*
X515280Y52190D02*
X536280D01*
X515280D02*
Y97190D01*
X536280D01*
Y52190D02*
Y97190D01*
X515280Y103230D02*
X536280D01*
X515280D02*
Y148230D01*
X536280D01*
Y103230D02*
Y148230D01*
X261280Y261514D02*
X282280D01*
Y216514D02*
Y261514D01*
X261280Y216514D02*
X282280D01*
X261280D02*
Y261514D01*
X627500Y294370D02*
Y400120D01*
X622500Y289370D02*
X627500Y294370D01*
X592500Y289370D02*
X622500D01*
X592500D02*
Y400120D01*
X627500D01*
X309458Y216260D02*
Y261260D01*
X288458D02*
X309458D01*
X288458Y216260D02*
Y261260D01*
Y216260D02*
X309458D01*
X346542Y290174D02*
Y335174D01*
X325542D02*
X346542D01*
X325542Y290174D02*
Y335174D01*
Y290174D02*
X346542D01*
X458068Y406060D02*
Y427060D01*
X503068D01*
Y406060D02*
Y427060D01*
X458068Y406060D02*
X503068D01*
X503322Y431968D02*
Y452968D01*
X458322Y431968D02*
X503322D01*
X458322D02*
Y452968D01*
X503322D01*
X43300Y115300D02*
Y245300D01*
X37220Y109220D02*
X43300Y115300D01*
X8300Y109220D02*
X37220D01*
X43300Y237300D02*
Y424180D01*
X8300Y237300D02*
Y424180D01*
Y109220D02*
Y245300D01*
Y424180D02*
X43300D01*
X490580Y338160D02*
X535580D01*
X490580Y317160D02*
Y338160D01*
Y317160D02*
X535580D01*
Y338160D01*
X442560Y317160D02*
X487560D01*
Y338160D01*
X442560D02*
X487560D01*
X442560Y317160D02*
Y338160D01*
X467106Y462534D02*
X492252D01*
X473456Y456692D02*
Y468630D01*
Y456692D02*
X486156Y462534D01*
X473456Y468630D02*
X486156Y462534D01*
X486410Y456692D02*
Y468884D01*
X517906Y409956D02*
X528066D01*
X522986Y405384D02*
Y415036D01*
X405892Y156464D02*
Y166116D01*
X400812Y161036D02*
X410972D01*
M02*
