G04 Layer_Color=8388736*
%FSLAX44Y44*%
%MOMM*%
G71*
G01*
G75*
%ADD38R,1.8032X1.2032*%
G04:AMPARAMS|DCode=39|XSize=1.2032mm|YSize=1.8032mm|CornerRadius=0.3516mm|HoleSize=0mm|Usage=FLASHONLY|Rotation=90.000|XOffset=0mm|YOffset=0mm|HoleType=Round|Shape=RoundedRectangle|*
%AMROUNDEDRECTD39*
21,1,1.2032,1.1000,0,0,90.0*
21,1,0.5000,1.8032,0,0,90.0*
1,1,0.7032,0.5500,0.2500*
1,1,0.7032,0.5500,-0.2500*
1,1,0.7032,-0.5500,-0.2500*
1,1,0.7032,-0.5500,0.2500*
%
%ADD39ROUNDEDRECTD39*%
G04:AMPARAMS|DCode=40|XSize=1.7032mm|YSize=2.2032mm|CornerRadius=0.4766mm|HoleSize=0mm|Usage=FLASHONLY|Rotation=0.000|XOffset=0mm|YOffset=0mm|HoleType=Round|Shape=RoundedRectangle|*
%AMROUNDEDRECTD40*
21,1,1.7032,1.2500,0,0,0.0*
21,1,0.7500,2.2032,0,0,0.0*
1,1,0.9532,0.3750,-0.6250*
1,1,0.9532,-0.3750,-0.6250*
1,1,0.9532,-0.3750,0.6250*
1,1,0.9532,0.3750,0.6250*
%
%ADD40ROUNDEDRECTD40*%
G04:AMPARAMS|DCode=41|XSize=6.2032mm|YSize=3.2032mm|CornerRadius=0.8516mm|HoleSize=0mm|Usage=FLASHONLY|Rotation=0.000|XOffset=0mm|YOffset=0mm|HoleType=Round|Shape=RoundedRectangle|*
%AMROUNDEDRECTD41*
21,1,6.2032,1.5000,0,0,0.0*
21,1,4.5000,3.2032,0,0,0.0*
1,1,1.7032,2.2500,-0.7500*
1,1,1.7032,-2.2500,-0.7500*
1,1,1.7032,-2.2500,0.7500*
1,1,1.7032,2.2500,0.7500*
%
%ADD41ROUNDEDRECTD41*%
%ADD42R,1.2032X1.8032*%
%ADD43R,3.2032X4.2032*%
G04:AMPARAMS|DCode=44|XSize=1.2032mm|YSize=1.8032mm|CornerRadius=0.3516mm|HoleSize=0mm|Usage=FLASHONLY|Rotation=180.000|XOffset=0mm|YOffset=0mm|HoleType=Round|Shape=RoundedRectangle|*
%AMROUNDEDRECTD44*
21,1,1.2032,1.1000,0,0,180.0*
21,1,0.5000,1.8032,0,0,180.0*
1,1,0.7032,-0.2500,0.5500*
1,1,0.7032,0.2500,0.5500*
1,1,0.7032,0.2500,-0.5500*
1,1,0.7032,-0.2500,-0.5500*
%
%ADD44ROUNDEDRECTD44*%
%ADD45C,2.7032*%
%ADD46R,2.0032X2.0032*%
%ADD47C,2.0032*%
G04:AMPARAMS|DCode=48|XSize=6.7032mm|YSize=6.7032mm|CornerRadius=1.7266mm|HoleSize=0mm|Usage=FLASHONLY|Rotation=0.000|XOffset=0mm|YOffset=0mm|HoleType=Round|Shape=RoundedRectangle|*
%AMROUNDEDRECTD48*
21,1,6.7032,3.2500,0,0,0.0*
21,1,3.2500,6.7032,0,0,0.0*
1,1,3.4532,1.6250,-1.6250*
1,1,3.4532,-1.6250,-1.6250*
1,1,3.4532,-1.6250,1.6250*
1,1,3.4532,1.6250,1.6250*
%
%ADD48ROUNDEDRECTD48*%
%ADD49C,1.5032*%
%ADD50C,1.4032*%
%ADD51C,1.7032*%
D38*
X123698Y360440D02*
D03*
Y330440D02*
D03*
X383286Y279174D02*
D03*
Y249174D02*
D03*
X328930Y240044D02*
D03*
X525780Y89690D02*
D03*
Y59690D02*
D03*
Y140730D02*
D03*
Y110730D02*
D03*
X271780Y224014D02*
D03*
Y254014D02*
D03*
X298958Y223760D02*
D03*
Y253760D02*
D03*
X336042Y297674D02*
D03*
Y327674D02*
D03*
D39*
X328930Y210044D02*
D03*
D40*
X378500Y114070D02*
D03*
X332700D02*
D03*
X355600D02*
D03*
D41*
Y179070D02*
D03*
D42*
X434594Y85344D02*
D03*
X404594D02*
D03*
X297942Y178816D02*
D03*
X267942D02*
D03*
X297702Y153416D02*
D03*
X267702D02*
D03*
X325854Y85344D02*
D03*
X355854D02*
D03*
X495568Y416560D02*
D03*
X465568D02*
D03*
X465822Y442468D02*
D03*
X495822D02*
D03*
X528080Y327660D02*
D03*
X498080D02*
D03*
X480060D02*
D03*
D43*
X487172Y124968D02*
D03*
X417172D02*
D03*
X446584Y375412D02*
D03*
X516584D02*
D03*
D44*
X450060Y327660D02*
D03*
D45*
X228600Y394770D02*
D03*
Y344370D02*
D03*
D46*
X203200Y128270D02*
D03*
X127000D02*
D03*
X710800Y306070D02*
D03*
X609600Y128270D02*
D03*
X711200D02*
D03*
X609600Y306070D02*
D03*
D47*
X203200Y153670D02*
D03*
Y179070D02*
D03*
Y204470D02*
D03*
X127000Y153670D02*
D03*
Y179070D02*
D03*
Y204470D02*
D03*
Y229870D02*
D03*
X710800Y382270D02*
D03*
Y356870D02*
D03*
Y331470D02*
D03*
X609600Y153670D02*
D03*
Y179070D02*
D03*
Y204470D02*
D03*
Y229870D02*
D03*
X711200Y153670D02*
D03*
Y179070D02*
D03*
Y204470D02*
D03*
Y229870D02*
D03*
X609600Y382270D02*
D03*
Y356870D02*
D03*
Y331470D02*
D03*
X25400Y254000D02*
D03*
Y279400D02*
D03*
Y304800D02*
D03*
Y330200D02*
D03*
Y355600D02*
D03*
Y228600D02*
D03*
Y203200D02*
D03*
Y177800D02*
D03*
Y152400D02*
D03*
Y127000D02*
D03*
Y381000D02*
D03*
Y406400D02*
D03*
X548640Y509270D02*
D03*
X574040D02*
D03*
X599440D02*
D03*
X523240D02*
D03*
X497840D02*
D03*
X472440D02*
D03*
X447040D02*
D03*
X421640D02*
D03*
X330200D02*
D03*
X355600D02*
D03*
X381000D02*
D03*
X304800D02*
D03*
X279400D02*
D03*
X254000D02*
D03*
X228600D02*
D03*
X203200D02*
D03*
X330200Y26670D02*
D03*
X355600D02*
D03*
X381000D02*
D03*
X406400D02*
D03*
X431800D02*
D03*
X304800D02*
D03*
X279400D02*
D03*
X254000D02*
D03*
X228600D02*
D03*
X203200D02*
D03*
X457200D02*
D03*
X508000D02*
D03*
X482600D02*
D03*
D48*
X685800Y52070D02*
D03*
X50800D02*
D03*
X685800Y483870D02*
D03*
X50800D02*
D03*
D49*
X299212Y264922D02*
D03*
D50*
X570230Y44196D02*
D03*
D51*
X129540Y45720D02*
D03*
X165100Y464820D02*
D03*
X334518Y395732D02*
D03*
X585470Y437642D02*
D03*
X393700Y378460D02*
D03*
M02*
