G04 Layer_Color=32896*
%FSLAX44Y44*%
%MOMM*%
G71*
G01*
G75*
%ADD18C,0.2540*%
%ADD37C,0.2000*%
D18*
X545846Y188559D02*
X539182D01*
X542514D01*
Y178562D01*
X535849D02*
X532517D01*
X534183D01*
Y188559D01*
X535849Y186893D01*
X372364Y239268D02*
X382361D01*
Y244266D01*
X380695Y245933D01*
X377362D01*
X375696Y244266D01*
Y239268D01*
Y242600D02*
X372364Y245933D01*
Y255929D02*
Y249265D01*
X379029Y255929D01*
X380695D01*
X382361Y254263D01*
Y250931D01*
X380695Y249265D01*
X382361Y265926D02*
Y259262D01*
X377362D01*
X379029Y262594D01*
Y264260D01*
X377362Y265926D01*
X374030D01*
X372364Y264260D01*
Y260928D01*
X374030Y259262D01*
X420624Y239522D02*
X430621D01*
Y244520D01*
X428955Y246187D01*
X425622D01*
X423956Y244520D01*
Y239522D01*
Y242854D02*
X420624Y246187D01*
Y256183D02*
Y249519D01*
X427289Y256183D01*
X428955D01*
X430621Y254517D01*
Y251185D01*
X428955Y249519D01*
X430621Y266180D02*
X428955Y262848D01*
X425622Y259516D01*
X422290D01*
X420624Y261182D01*
Y264514D01*
X422290Y266180D01*
X423956D01*
X425622Y264514D01*
Y259516D01*
X515126Y216662D02*
Y226659D01*
X510128D01*
X508461Y224993D01*
Y221660D01*
X510128Y219994D01*
X515126D01*
X511794D02*
X508461Y216662D01*
X498465D02*
X505129D01*
X498465Y223326D01*
Y224993D01*
X500131Y226659D01*
X503463D01*
X505129Y224993D01*
X490134Y216662D02*
Y226659D01*
X495132Y221660D01*
X488468D01*
X584962Y171704D02*
Y181701D01*
X579964D01*
X578298Y180035D01*
Y176702D01*
X579964Y175036D01*
X584962D01*
X581630D02*
X578298Y171704D01*
X568301D02*
X574965D01*
X568301Y178368D01*
Y180035D01*
X569967Y181701D01*
X573299D01*
X574965Y180035D01*
X564968D02*
X563302Y181701D01*
X559970D01*
X558304Y180035D01*
Y178368D01*
X559970Y176702D01*
X561636D01*
X559970D01*
X558304Y175036D01*
Y173370D01*
X559970Y171704D01*
X563302D01*
X564968Y173370D01*
X544576Y148935D02*
X541244D01*
X542910D01*
Y138938D01*
X544576D01*
X541244D01*
X529581Y147269D02*
X531247Y148935D01*
X534579D01*
X536245Y147269D01*
Y140604D01*
X534579Y138938D01*
X531247D01*
X529581Y140604D01*
X521250Y138938D02*
Y148935D01*
X526249Y143936D01*
X519584D01*
X404571Y245424D02*
X406237Y243758D01*
Y240426D01*
X404571Y238760D01*
X397906D01*
X396240Y240426D01*
Y243758D01*
X397906Y245424D01*
X404571Y248757D02*
X406237Y250423D01*
Y253755D01*
X404571Y255421D01*
X402905D01*
X401238Y253755D01*
Y252089D01*
Y253755D01*
X399572Y255421D01*
X397906D01*
X396240Y253755D01*
Y250423D01*
X397906Y248757D01*
X377623Y90627D02*
X379290Y92293D01*
X382622D01*
X384288Y90627D01*
Y83962D01*
X382622Y82296D01*
X379290D01*
X377623Y83962D01*
X367627Y82296D02*
X374291D01*
X367627Y88961D01*
Y90627D01*
X369293Y92293D01*
X372625D01*
X374291Y90627D01*
X107950Y413004D02*
Y423001D01*
X102952D01*
X101285Y421335D01*
Y418002D01*
X102952Y416336D01*
X107950D01*
X104618D02*
X101285Y413004D01*
X91289Y423001D02*
X97953D01*
Y418002D01*
X94621Y419669D01*
X92955D01*
X91289Y418002D01*
Y414670D01*
X92955Y413004D01*
X96287D01*
X97953Y414670D01*
X656338Y314068D02*
X657989Y315719D01*
X661290D01*
X662940Y314068D01*
Y307467D01*
X661290Y305816D01*
X657989D01*
X656338Y307467D01*
X653037Y305816D02*
X649736D01*
X651387D01*
Y315719D01*
X653037Y314068D01*
X644785D02*
X643134Y315719D01*
X639833D01*
X638183Y314068D01*
Y312418D01*
X639833Y310767D01*
X638183Y309117D01*
Y307467D01*
X639833Y305816D01*
X643134D01*
X644785Y307467D01*
Y309117D01*
X643134Y310767D01*
X644785Y312418D01*
Y314068D01*
X643134Y310767D02*
X639833D01*
X651766Y428368D02*
X653417Y430019D01*
X656718D01*
X658368Y428368D01*
Y421767D01*
X656718Y420116D01*
X653417D01*
X651766Y421767D01*
X648465Y420116D02*
X645164D01*
X646815D01*
Y430019D01*
X648465Y428368D01*
X640213Y430019D02*
X633611D01*
Y428368D01*
X640213Y421767D01*
Y420116D01*
X196598Y370202D02*
X198249Y371853D01*
X201549D01*
X203200Y370202D01*
Y363601D01*
X201549Y361950D01*
X198249D01*
X196598Y363601D01*
X193297Y361950D02*
X189996D01*
X191647D01*
Y371853D01*
X193297Y370202D01*
X178443Y371853D02*
X181744Y370202D01*
X185045Y366901D01*
Y363601D01*
X183394Y361950D01*
X180093D01*
X178443Y363601D01*
Y365251D01*
X180093Y366901D01*
X185045D01*
X196598Y421002D02*
X198249Y422653D01*
X201549D01*
X203200Y421002D01*
Y414400D01*
X201549Y412750D01*
X198249D01*
X196598Y414400D01*
X193297Y412750D02*
X189996D01*
X191647D01*
Y422653D01*
X193297Y421002D01*
X178443Y422653D02*
X185045D01*
Y417701D01*
X181744Y419352D01*
X180093D01*
X178443Y417701D01*
Y414400D01*
X180093Y412750D01*
X183394D01*
X185045Y414400D01*
X394910Y470865D02*
X396576Y472531D01*
X399908D01*
X401574Y470865D01*
Y464200D01*
X399908Y462534D01*
X396576D01*
X394910Y464200D01*
X391577Y462534D02*
X388245D01*
X389911D01*
Y472531D01*
X391577Y470865D01*
X378248Y462534D02*
Y472531D01*
X383247Y467532D01*
X376582D01*
X260798Y289255D02*
X262464Y290921D01*
X265796D01*
X267462Y289255D01*
Y282590D01*
X265796Y280924D01*
X262464D01*
X260798Y282590D01*
X257465Y280924D02*
X254133D01*
X255799D01*
Y290921D01*
X257465Y289255D01*
X249135D02*
X247468Y290921D01*
X244136D01*
X242470Y289255D01*
Y287589D01*
X244136Y285922D01*
X245802D01*
X244136D01*
X242470Y284256D01*
Y282590D01*
X244136Y280924D01*
X247468D01*
X249135Y282590D01*
X641096Y515871D02*
X634494Y505968D01*
Y515871D02*
X641096Y505968D01*
X631193Y507618D02*
X629543Y505968D01*
X626242D01*
X624591Y507618D01*
Y514220D01*
X626242Y515871D01*
X629543D01*
X631193Y514220D01*
Y512570D01*
X629543Y510919D01*
X624591D01*
X178562Y502923D02*
X171960Y512826D01*
Y502923D02*
X178562Y512826D01*
X168659Y504574D02*
X167009Y502923D01*
X163708D01*
X162057Y504574D01*
Y506224D01*
X163708Y507875D01*
X162057Y509525D01*
Y511175D01*
X163708Y512826D01*
X167009D01*
X168659Y511175D01*
Y509525D01*
X167009Y507875D01*
X168659Y506224D01*
Y504574D01*
X167009Y507875D02*
X163708D01*
X329946Y447545D02*
X326645D01*
X328296D01*
Y437642D01*
X329946D01*
X326645D01*
X315092Y445894D02*
X316742Y447545D01*
X320043D01*
X321694Y445894D01*
Y439292D01*
X320043Y437642D01*
X316742D01*
X315092Y439292D01*
X311791Y437642D02*
X308490D01*
X310140D01*
Y447545D01*
X311791Y445894D01*
X176022Y29461D02*
X169420Y19558D01*
Y29461D02*
X176022Y19558D01*
X166119Y27810D02*
X164469Y29461D01*
X161168D01*
X159517Y27810D01*
Y26160D01*
X161168Y24509D01*
X162818D01*
X161168D01*
X159517Y22859D01*
Y21209D01*
X161168Y19558D01*
X164469D01*
X166119Y21209D01*
X191518Y467230D02*
X193169Y468881D01*
X196469D01*
X198120Y467230D01*
Y460629D01*
X196469Y458978D01*
X193169D01*
X191518Y460629D01*
X181615Y468881D02*
X184916Y467230D01*
X188217Y463929D01*
Y460629D01*
X186567Y458978D01*
X183266D01*
X181615Y460629D01*
Y462279D01*
X183266Y463929D01*
X188217D01*
X148844Y458978D02*
Y468881D01*
X143893D01*
X142242Y467230D01*
Y463929D01*
X143893Y462279D01*
X148844D01*
X145543D02*
X142242Y458978D01*
X133990D02*
Y468881D01*
X138941Y463929D01*
X132339D01*
X532638Y478881D02*
X529306D01*
X530972D01*
Y468884D01*
X532638D01*
X529306D01*
X517643Y477215D02*
X519309Y478881D01*
X522641D01*
X524307Y477215D01*
Y470550D01*
X522641Y468884D01*
X519309D01*
X517643Y470550D01*
X514311Y477215D02*
X512644Y478881D01*
X509312D01*
X507646Y477215D01*
Y475549D01*
X509312Y473882D01*
X510978D01*
X509312D01*
X507646Y472216D01*
Y470550D01*
X509312Y468884D01*
X512644D01*
X514311Y470550D01*
X456692Y308102D02*
Y318099D01*
X451694D01*
X450028Y316433D01*
Y313100D01*
X451694Y311434D01*
X456692D01*
X453360D02*
X450028Y308102D01*
X446695D02*
X443363D01*
X445029D01*
Y318099D01*
X446695Y316433D01*
X431700Y308102D02*
X438365D01*
X431700Y314767D01*
Y316433D01*
X433366Y318099D01*
X436698D01*
X438365Y316433D01*
X458216Y271272D02*
Y281269D01*
X453218D01*
X451552Y279603D01*
Y276270D01*
X453218Y274604D01*
X458216D01*
X454884D02*
X451552Y271272D01*
X448219D02*
X444887D01*
X446553D01*
Y281269D01*
X448219Y279603D01*
X439889D02*
X438222Y281269D01*
X434890D01*
X433224Y279603D01*
Y277936D01*
X434890Y276270D01*
X436556D01*
X434890D01*
X433224Y274604D01*
Y272938D01*
X434890Y271272D01*
X438222D01*
X439889Y272938D01*
X504952Y338582D02*
Y348579D01*
X499954D01*
X498288Y346913D01*
Y343580D01*
X499954Y341914D01*
X504952D01*
X501620D02*
X498288Y338582D01*
X494955D02*
X491623D01*
X493289D01*
Y348579D01*
X494955Y346913D01*
X481626Y338582D02*
Y348579D01*
X486625Y343580D01*
X479960D01*
X536194Y338328D02*
Y348325D01*
X531196D01*
X529529Y346659D01*
Y343326D01*
X531196Y341660D01*
X536194D01*
X532862D02*
X529529Y338328D01*
X526197D02*
X522865D01*
X524531D01*
Y348325D01*
X526197Y346659D01*
X511202Y348325D02*
X514534Y346659D01*
X517867Y343326D01*
Y339994D01*
X516200Y338328D01*
X512868D01*
X511202Y339994D01*
Y341660D01*
X512868Y343326D01*
X517867D01*
X567944Y338328D02*
Y348325D01*
X562946D01*
X561279Y346659D01*
Y343326D01*
X562946Y341660D01*
X567944D01*
X564612D02*
X561279Y338328D01*
X557947D02*
X554615D01*
X556281D01*
Y348325D01*
X557947Y346659D01*
X549617D02*
X547950Y348325D01*
X544618D01*
X542952Y346659D01*
Y344992D01*
X544618Y343326D01*
X542952Y341660D01*
Y339994D01*
X544618Y338328D01*
X547950D01*
X549617Y339994D01*
Y341660D01*
X547950Y343326D01*
X549617Y344992D01*
Y346659D01*
X547950Y343326D02*
X544618D01*
X574802Y339344D02*
X584799D01*
Y344342D01*
X583133Y346008D01*
X579800D01*
X578134Y344342D01*
Y339344D01*
Y342676D02*
X574802Y346008D01*
Y356005D02*
Y349341D01*
X581466Y356005D01*
X583133D01*
X584799Y354339D01*
Y351007D01*
X583133Y349341D01*
Y359338D02*
X584799Y361004D01*
Y364336D01*
X583133Y366002D01*
X576468D01*
X574802Y364336D01*
Y361004D01*
X576468Y359338D01*
X583133D01*
X618744Y261874D02*
Y271871D01*
X613746D01*
X612080Y270205D01*
Y266872D01*
X613746Y265206D01*
X618744D01*
X615412D02*
X612080Y261874D01*
X602083D02*
X608747D01*
X602083Y268538D01*
Y270205D01*
X603749Y271871D01*
X607081D01*
X608747Y270205D01*
X598750Y261874D02*
X595418D01*
X597084D01*
Y271871D01*
X598750Y270205D01*
X604266Y78232D02*
Y88229D01*
X599268D01*
X597602Y86563D01*
Y83230D01*
X599268Y81564D01*
X604266D01*
X600934D02*
X597602Y78232D01*
X587605D02*
X594269D01*
X587605Y84896D01*
Y86563D01*
X589271Y88229D01*
X592603D01*
X594269Y86563D01*
X584272Y88229D02*
X577608D01*
Y86563D01*
X584272Y79898D01*
Y78232D01*
X435102Y61468D02*
Y71465D01*
X430104D01*
X428438Y69799D01*
Y66466D01*
X430104Y64800D01*
X435102D01*
X431770D02*
X428438Y61468D01*
X425105Y69799D02*
X423439Y71465D01*
X420107D01*
X418441Y69799D01*
Y68133D01*
X420107Y66466D01*
X421773D01*
X420107D01*
X418441Y64800D01*
Y63134D01*
X420107Y61468D01*
X423439D01*
X425105Y63134D01*
X415108Y61468D02*
X411776D01*
X413442D01*
Y71465D01*
X415108Y69799D01*
X348742Y198465D02*
X345410D01*
X347076D01*
Y188468D01*
X348742D01*
X345410D01*
X333747Y196799D02*
X335413Y198465D01*
X338745D01*
X340411Y196799D01*
Y190134D01*
X338745Y188468D01*
X335413D01*
X333747Y190134D01*
X323750Y198465D02*
X330415D01*
Y193466D01*
X327082Y195133D01*
X325416D01*
X323750Y193466D01*
Y190134D01*
X325416Y188468D01*
X328748D01*
X330415Y190134D01*
X349189Y462991D02*
X350856Y464657D01*
X354188D01*
X355854Y462991D01*
Y461325D01*
X354188Y459658D01*
X350856D01*
X349189Y457992D01*
Y456326D01*
X350856Y454660D01*
X354188D01*
X355854Y456326D01*
X345857Y464657D02*
X339193D01*
X342525D01*
Y454660D01*
X335860D02*
Y464657D01*
X332528Y461325D01*
X329196Y464657D01*
Y454660D01*
X325864Y462991D02*
X324198Y464657D01*
X320865D01*
X319199Y462991D01*
Y461325D01*
X320865Y459658D01*
X322531D01*
X320865D01*
X319199Y457992D01*
Y456326D01*
X320865Y454660D01*
X324198D01*
X325864Y456326D01*
X309202Y454660D02*
X315867D01*
X309202Y461325D01*
Y462991D01*
X310868Y464657D01*
X314201D01*
X315867Y462991D01*
X299206Y464657D02*
X305870D01*
Y459658D01*
X302538D01*
X305870D01*
Y454660D01*
X295873D02*
X292541D01*
X294207D01*
Y464657D01*
X295873Y462991D01*
X287543D02*
X285877Y464657D01*
X282544D01*
X280878Y462991D01*
Y456326D01*
X282544Y454660D01*
X285877D01*
X287543Y456326D01*
Y462991D01*
X277546D02*
X275880Y464657D01*
X272547D01*
X270881Y462991D01*
Y461325D01*
X272547Y459658D01*
X274214D01*
X272547D01*
X270881Y457992D01*
Y456326D01*
X272547Y454660D01*
X275880D01*
X277546Y456326D01*
X260885Y462991D02*
X262551Y464657D01*
X265883D01*
X267549Y462991D01*
Y456326D01*
X265883Y454660D01*
X262551D01*
X260885Y456326D01*
X250888Y464657D02*
X254220Y462991D01*
X257552Y459658D01*
Y456326D01*
X255886Y454660D01*
X252554D01*
X250888Y456326D01*
Y457992D01*
X252554Y459658D01*
X257552D01*
X349189Y480771D02*
X350856Y482437D01*
X354188D01*
X355854Y480771D01*
Y479104D01*
X354188Y477438D01*
X350856D01*
X349189Y475772D01*
Y474106D01*
X350856Y472440D01*
X354188D01*
X355854Y474106D01*
X345857Y482437D02*
X339193D01*
X342525D01*
Y472440D01*
X335860D02*
Y482437D01*
X332528Y479104D01*
X329196Y482437D01*
Y472440D01*
X325864Y480771D02*
X324198Y482437D01*
X320865D01*
X319199Y480771D01*
Y479104D01*
X320865Y477438D01*
X322531D01*
X320865D01*
X319199Y475772D01*
Y474106D01*
X320865Y472440D01*
X324198D01*
X325864Y474106D01*
X309202Y472440D02*
X315867D01*
X309202Y479104D01*
Y480771D01*
X310868Y482437D01*
X314201D01*
X315867Y480771D01*
X299206Y482437D02*
X305870D01*
Y477438D01*
X302538D01*
X305870D01*
Y472440D01*
X295873D02*
X292541D01*
X294207D01*
Y482437D01*
X295873Y480771D01*
X287543D02*
X285877Y482437D01*
X282544D01*
X280878Y480771D01*
Y474106D01*
X282544Y472440D01*
X285877D01*
X287543Y474106D01*
Y480771D01*
X277546D02*
X275880Y482437D01*
X272547D01*
X270881Y480771D01*
Y479104D01*
X272547Y477438D01*
X274214D01*
X272547D01*
X270881Y475772D01*
Y474106D01*
X272547Y472440D01*
X275880D01*
X277546Y474106D01*
X260885Y480771D02*
X262551Y482437D01*
X265883D01*
X267549Y480771D01*
Y474106D01*
X265883Y472440D01*
X262551D01*
X260885Y474106D01*
X257552Y480771D02*
X255886Y482437D01*
X252554D01*
X250888Y480771D01*
Y479104D01*
X252554Y477438D01*
X250888Y475772D01*
Y474106D01*
X252554Y472440D01*
X255886D01*
X257552Y474106D01*
Y475772D01*
X255886Y477438D01*
X257552Y479104D01*
Y480771D01*
X255886Y477438D02*
X252554D01*
X619252Y49113D02*
Y39116D01*
X612588D01*
X602591Y49113D02*
X609255D01*
Y39116D01*
X602591D01*
X609255Y44114D02*
X605923D01*
X599258Y49113D02*
Y39116D01*
X594260D01*
X592594Y40782D01*
Y47447D01*
X594260Y49113D01*
X599258D01*
X582597Y47447D02*
X584263Y49113D01*
X587595D01*
X589262Y47447D01*
Y45781D01*
X587595Y44114D01*
X584263D01*
X582597Y42448D01*
Y40782D01*
X584263Y39116D01*
X587595D01*
X589262Y40782D01*
D37*
X483108Y352552D02*
G03*
X479552Y356108I-3556J0D01*
G01*
X481076Y353060D02*
G03*
X479806Y354330I-1270J0D01*
G01*
X168000Y354670D02*
X213000D01*
Y333670D02*
Y354670D01*
X168000Y333670D02*
X213000D01*
X168000D02*
Y354670D01*
Y405470D02*
X213000D01*
Y384470D02*
Y405470D01*
X168000Y384470D02*
X213000D01*
X168000D02*
Y405470D01*
X367136Y435016D02*
X412136D01*
X367136D02*
Y456016D01*
X412136D01*
Y435016D02*
Y456016D01*
X263700Y332470D02*
Y431470D01*
Y332470D02*
X273700Y322470D01*
X372700D01*
Y431470D01*
X263700D02*
X372700D01*
X231740Y316570D02*
X276740D01*
Y295570D02*
Y316570D01*
X231740Y295570D02*
X276740D01*
X231740D02*
Y316570D01*
X162200Y407076D02*
Y428076D01*
X117200D02*
X162200D01*
X117200Y407076D02*
Y428076D01*
Y407076D02*
X162200D01*
X117440Y432222D02*
X162440D01*
X117440D02*
Y453222D01*
X162440D01*
Y432222D02*
Y453222D01*
X213508Y432222D02*
Y453222D01*
X168508D02*
X213508D01*
X168508Y432222D02*
Y453222D01*
Y432222D02*
X213508D01*
X668442Y289172D02*
Y334172D01*
X689442D01*
Y289172D02*
Y334172D01*
X668442Y289172D02*
X689442D01*
X665840Y414442D02*
X710840D01*
X665840D02*
Y435442D01*
X710840D01*
Y414442D02*
Y435442D01*
X216300Y111760D02*
X221380Y116840D01*
X185820Y111760D02*
X216300D01*
X185820D02*
Y222250D01*
X221380D01*
Y116840D02*
Y222250D01*
X140100Y111760D02*
X145180Y116840D01*
X109620Y111760D02*
X140100D01*
X109620D02*
Y246380D01*
X145180D01*
Y116840D02*
Y246380D01*
X728980Y294640D02*
Y400050D01*
X693420D02*
X728980D01*
X693420Y289560D02*
Y400050D01*
Y289560D02*
X723900D01*
X728980Y294640D01*
X622700Y111760D02*
X627780Y116840D01*
X592220Y111760D02*
X622700D01*
X592220D02*
Y246380D01*
X627780D01*
Y116840D02*
Y246380D01*
X724300Y111760D02*
X729380Y116840D01*
X693820Y111760D02*
X724300D01*
X693820D02*
Y246380D01*
X729380D01*
Y116840D02*
Y246380D01*
X627780Y294640D02*
Y400050D01*
X592220D02*
X627780D01*
X592220Y289560D02*
Y400050D01*
Y289560D02*
X622700D01*
X627780Y294640D01*
X464480Y237610D02*
Y282610D01*
X485480D01*
Y237610D02*
Y282610D01*
X464480Y237610D02*
X485480D01*
X515280Y288650D02*
Y333650D01*
X536280D01*
Y288650D02*
Y333650D01*
X515280Y288650D02*
X536280D01*
X510880Y237850D02*
Y282850D01*
X489880Y237850D02*
X510880D01*
X489880D02*
Y282850D01*
X510880D01*
X515280Y237850D02*
Y282850D01*
X536280D01*
Y237850D02*
Y282850D01*
X515280Y237850D02*
X536280D01*
X540680D02*
Y282850D01*
X561680D01*
Y237850D02*
Y282850D01*
X540680Y237850D02*
X561680D01*
X566080D02*
Y282850D01*
X587080D01*
Y237850D02*
Y282850D01*
X566080Y237850D02*
X587080D01*
X540680Y288650D02*
Y333650D01*
X561680D01*
Y288650D02*
Y333650D01*
X540680Y288650D02*
X561680D01*
X566080D02*
Y333650D01*
X587080D01*
Y288650D02*
Y333650D01*
X566080Y288650D02*
X587080D01*
X464480Y288410D02*
Y333410D01*
X485480D01*
Y288410D02*
Y333410D01*
X464480Y288410D02*
X485480D01*
X566080Y188574D02*
X587080D01*
Y233574D01*
X566080D02*
X587080D01*
X566080Y188574D02*
Y233574D01*
X557276Y193548D02*
Y227584D01*
X519176D02*
X557276D01*
X519176Y193548D02*
X557276D01*
X519176D02*
Y227584D01*
X440796Y211496D02*
Y232496D01*
Y211496D02*
X485796D01*
Y232496D01*
X440796D02*
X485796D01*
X513814Y110056D02*
Y110056D01*
Y110056D02*
X514064Y110306D01*
Y208056D01*
X440814Y110056D02*
X513814D01*
X440814Y208056D02*
X514064D01*
X440814Y110056D02*
Y208056D01*
X411820Y187050D02*
Y232050D01*
X390820Y187050D02*
X411820D01*
X390820D02*
Y232050D01*
X411820D01*
X495722Y60558D02*
Y105558D01*
X516722D01*
Y60558D02*
Y105558D01*
X495722Y60558D02*
X516722D01*
X522900Y60304D02*
Y105304D01*
X543900D01*
Y60304D02*
Y105304D01*
X522900Y60304D02*
X543900D01*
X440858D02*
Y105304D01*
X461858D01*
Y60304D02*
Y105304D01*
X440858Y60304D02*
X461858D01*
X468798D02*
Y105304D01*
X489798D01*
Y60304D02*
Y105304D01*
X468798Y60304D02*
X489798D01*
X391506Y97114D02*
X436506D01*
Y76114D02*
Y97114D01*
X391506Y76114D02*
X436506D01*
X391506D02*
Y97114D01*
X365674Y187050D02*
X386674D01*
Y232050D01*
X365674D02*
X386674D01*
X365674Y187050D02*
Y232050D01*
X415458Y232304D02*
X436458D01*
X415458Y187304D02*
Y232304D01*
Y187304D02*
X436458D01*
Y232304D01*
X322072Y101346D02*
X436372D01*
X322072D02*
Y182626D01*
X436372D01*
Y101346D02*
Y182626D01*
X549824Y60304D02*
Y105304D01*
X570824D01*
Y60304D02*
Y105304D01*
X549824Y60304D02*
X570824D01*
X8890Y109220D02*
Y422910D01*
X43180D01*
Y115570D02*
Y422910D01*
X36830Y109220D02*
X43180Y115570D01*
X8890Y109220D02*
X36830D01*
X409940Y527170D02*
X539940D01*
X404940Y522170D02*
X409940Y527170D01*
X404940Y492170D02*
Y522170D01*
X531940Y527170D02*
X617220D01*
X531940Y492170D02*
X617220D01*
Y527170D01*
X404940Y492170D02*
X539940D01*
X191500Y527170D02*
X321500D01*
X186500Y522170D02*
X191500Y527170D01*
X186500Y492170D02*
Y522170D01*
X313500Y527170D02*
X398780D01*
X313500Y492170D02*
X398780D01*
Y527170D01*
X186500Y492170D02*
X321500D01*
X191500Y44570D02*
X321500D01*
X185420Y38490D02*
X191500Y44570D01*
X185420Y9570D02*
Y38490D01*
X313500Y44570D02*
X527050D01*
X313500Y9570D02*
X527050D01*
X185420D02*
X321500D01*
X527050D02*
Y44570D01*
X479196Y352162D02*
X560446D01*
Y462162D01*
X479196Y352162D02*
Y462162D01*
X560446D01*
X479552Y354330D02*
X479806D01*
X489880Y288650D02*
Y333650D01*
X510880D01*
Y288650D02*
Y333650D01*
X489880Y288650D02*
X510880D01*
M02*
