M48
;Layer_Color=9474304
;FILE_FORMAT=4:4
METRIC,LZ
;TYPE=PLATED
T1F00S00C0.5000
T2F00S00C0.8000
T3F00S00C1.0000
T4F00S00C3.2000
%
T01
X0062992Y0003048
X0057023Y00044196
X0054356
X00183388Y00289052
X00145796Y00281178
Y0030607
X00119634Y00316484
X0009779Y0037211
Y0039624
X00123952Y00396748
X0014605Y0037084
X00269494Y0033782
X0032004Y0034671
X0033528Y0034925
X0034417Y00367284
X00343916Y00381508
X0031115Y00373634
X00315976Y00286004
X0032258Y0027178
X00339344Y00271272
X00299212Y00264922
X0025908Y00270764
X00233172Y00261112
X00220472Y00095504
X0028448Y0009525
X003048
X00365252Y0031242
X00371348Y00326644
X00383286Y00345694
X0039624Y0031242
X0038354Y0029718
X0042Y00299466
Y0028321
Y0026543
X004191Y00381
X004064Y0040132
X003937Y00414528
X00378206
X00362533Y00414782
X0041275Y00424688
X0043231Y00446786
X00432308Y00470154
X00520446Y00433832
X00512826Y00411988
X00534162Y00412496
X0056769Y0037465
X00579628Y0035052
X00478566Y00349929
X00569976Y00454914
X00277622Y0046482
X00274574Y00446532
X00647192Y00272796
X006731Y00272542
X00635Y002159
Y004826
X0010668Y0049276
T02
X0012954Y0004572
X001651Y0046482
X00334518Y00395732
X003937Y0037846
X0058547Y00437642
T03
X002286Y0002667
X00254
X002794
X003048
X003302
X003556
X00381
X004064
X004318
X004572
X004826
X00508
X002032
Y0012827
Y0015367
Y0017907
Y0020447
X00127
Y0017907
Y0015367
Y0012827
Y0022987
X000254Y002286
Y00254
Y002794
Y003048
Y003302
Y003556
Y00381
Y004064
Y002032
Y001778
Y001524
Y00127
X002286Y0034437
Y0039477
X006096Y0038227
Y0035687
Y0033147
Y0030607
Y0022987
Y0020447
Y0017907
Y0015367
Y0012827
X007112
Y0015367
Y0017907
Y0020447
Y0022987
X007108Y0030607
Y0033147
Y0035687
Y0038227
X0059944Y0050927
X0057404
X0054864
X0052324
X0049784
X0047244
X0044704
X0042164
X00381
X003556
X003302
X003048
X002794
X00254
X002286
X002032
T04
X006858Y0005207
X000508
X006858Y0048387
X000508
M30
